<svg width="85" height="52" viewBox="0 0 85 52" fill="none" xmlns="http://www.w3.org/2000/svg">
    <g clip-path="url(#clip0_1007_630)">
        <path d="M57.8762 41.2363H30.5767V51.7548H57.8762V41.2363Z" fill="#1F2937" />
        <path d="M58.1205 51.9994H30.3325V40.9814H58.1205V51.9994ZM30.8209 51.5097H57.6321V41.4711H30.8209V51.5097Z" fill="#AAFF00" />
        <path d="M25.8368 13.1923C24.8886 14.1729 24.2085 15.382 23.862 16.7029C23.5155 18.0239 23.5144 19.412 23.8588 20.7335C23.8588 20.7335 26.3692 28.5244 32.7551 34.5672V41.2367H55.9765V34.9858L59.1389 32.2363C59.1389 32.2363 61.41 30.4807 61.3953 27.4398V10.1709H49.1168" fill="#1F2937" />
        <path d="M56.2207 41.4813H32.5109V34.6722C26.2105 28.6637 23.6512 20.8875 23.6268 20.8116C23.2766 19.4446 23.2808 18.0106 23.6389 16.6457C23.9971 15.2808 24.6974 14.0304 25.6732 13.0133L26.0029 13.3732C25.0926 14.3281 24.4399 15.4997 24.1062 16.7775C23.7726 18.0553 23.7689 19.3973 24.0957 20.6769C24.1152 20.7381 26.6598 28.4629 32.9212 34.3882L32.9993 34.4616V40.9916H55.7323V34.8705L58.9777 32.0474C59.0119 32.023 61.1756 30.3164 61.1511 27.4395V10.4155H49.1168V9.92578H61.6395V27.4395C61.6566 30.5661 59.3855 32.3535 59.2879 32.4294L56.2207 35.0958V41.4813Z" fill="#AAFF00" />
        <path d="M63.0728 7.57018C63.0142 7.57018 62.9581 7.57018 62.8946 7.57018H22.6913C22.4553 7.5698 22.2198 7.59194 21.988 7.63628C21.1265 5.48836 19.6515 3.64338 17.7481 2.33286C15.8446 1.02235 13.5975 0.304666 11.2887 0.269882C8.97996 0.235098 6.71237 0.88476 4.7705 2.13735C2.82864 3.38993 1.299 5.18964 0.373535 7.31064H11.1185V16.6612H0.373535C1.29949 18.7796 2.8283 20.577 4.76846 21.8282C6.70862 23.0794 8.97387 23.7288 11.2805 23.6951C13.5871 23.6614 15.8325 22.946 17.7354 21.6386C19.6384 20.3313 21.1143 18.49 21.9782 16.3454C22.21 16.3906 22.4455 16.4136 22.6815 16.4139H62.8946C62.9312 16.4139 62.963 16.4139 62.9971 16.4139C63.849 18.5721 65.3197 20.4287 67.2235 21.7491C69.1274 23.0696 71.3788 23.7946 73.6935 23.8326C76.0081 23.8706 78.282 23.2198 80.228 21.9626C82.1739 20.7054 83.7044 18.898 84.6263 16.769H73.8813V7.40858H84.6263C83.7077 5.29956 82.1918 3.50735 80.2666 2.25426C78.3414 1.00118 76.0916 0.342375 73.7964 0.359583C71.5011 0.376792 69.2614 1.06925 67.3551 2.35107C65.4488 3.63288 63.9598 5.44763 63.0728 7.57018Z" fill="#1F2937" />
        <path d="M73.8838 24.0729C71.514 24.0808 69.196 23.3783 67.2274 22.0554C65.2588 20.7326 63.7295 18.85 62.8361 16.6493H22.6914C22.5068 16.6481 22.3225 16.635 22.1395 16.6101C21.2281 18.7686 19.7059 20.6122 17.7611 21.913C15.8163 23.2139 13.534 23.9151 11.1961 23.9299C8.8583 23.9447 6.56734 23.2726 4.60624 21.9966C2.64514 20.7205 1.09982 18.8965 0.161174 16.7497L0 16.4167H10.8695V7.55576H0L0.148964 7.21298C1.08518 5.06225 2.62993 3.23402 4.59198 1.95461C6.55403 0.675205 8.84722 0.000792447 11.1877 0.0148642C13.5281 0.028936 15.8131 0.730874 17.7597 2.03378C19.7063 3.33669 21.2291 5.18336 22.1395 7.34519C22.3225 7.32061 22.5068 7.30834 22.6914 7.30847H62.9142C63.8451 5.16812 65.3788 3.34666 67.3271 2.06743C69.2754 0.788205 71.5537 0.106817 73.8826 0.106817C76.2115 0.106817 78.4898 0.788205 80.4381 2.06743C82.3865 3.34666 83.9201 5.16812 84.851 7.30847L85 7.65125H74.128V16.5146H85L84.851 16.8574C83.9223 19.0001 82.3897 20.8244 80.4415 22.1062C78.4932 23.388 76.2141 24.0715 73.8838 24.0729ZM63.0046 16.1596H63.1706L63.2317 16.3138C64.0543 18.3961 65.4658 20.192 67.2925 21.481C69.1193 22.77 71.2818 23.4959 73.5144 23.5695C75.747 23.6431 77.9524 23.0612 79.8597 21.8953C81.7669 20.7294 83.293 19.0303 84.2503 17.0067H73.6396V7.16401H84.2503C83.299 5.15754 81.7887 3.47006 79.9018 2.3053C78.0149 1.14054 75.8321 0.548295 73.6169 0.600073C71.4016 0.651852 69.2487 1.34544 67.418 2.59709C65.5873 3.84875 64.1571 5.60496 63.3001 7.6537L63.2317 7.81774L63.0461 7.80305C62.9972 7.80305 62.9508 7.80305 62.8971 7.80305H22.6914C22.471 7.80243 22.251 7.82293 22.0345 7.86426L21.8367 7.90344L21.761 7.71491C20.9274 5.64382 19.5108 3.86068 17.6839 2.58294C15.8569 1.3052 13.6986 0.588084 11.4722 0.519039C9.24573 0.449994 7.04736 1.03201 5.14515 2.1941C3.24294 3.35619 1.7191 5.04815 0.759474 7.06362H11.3579V16.9064H0.752147C1.71178 18.9218 3.23561 20.6138 5.13782 21.7759C7.04003 22.938 9.23841 23.52 11.4649 23.4509C13.6913 23.3819 15.8496 22.6648 17.6765 21.387C19.5035 20.1093 20.9201 18.3262 21.7537 16.2551L21.8294 16.0665L22.0272 16.1057C22.2436 16.1479 22.4636 16.1692 22.6841 16.1694H62.9215L63.0046 16.1596Z" fill="#AAFF00" />
        <path d="M60.1058 10.8809C60.4115 10.8809 60.7047 11.0026 60.9209 11.2193C61.137 11.4361 61.2585 11.73 61.2585 12.0365C61.2585 12.343 61.137 12.637 60.9209 12.8537C60.7047 13.0704 60.4115 13.1922 60.1058 13.1922H24.9087C24.7572 13.1925 24.607 13.1629 24.4669 13.1049C24.3268 13.047 24.1994 12.9619 24.0921 12.8546C23.9848 12.7472 23.8997 12.6197 23.8416 12.4793C23.7836 12.339 23.7537 12.1885 23.7537 12.0365C23.7537 11.8846 23.7836 11.7341 23.8416 11.5937C23.8997 11.4533 23.9848 11.3258 24.0921 11.2185C24.1994 11.1111 24.3268 11.0261 24.4669 10.9681C24.607 10.9102 24.7572 10.8805 24.9087 10.8809H60.1058Z" fill="#1F2937" />
        <path d="M60.1059 13.4368H24.9088C24.5383 13.4368 24.183 13.2892 23.9211 13.0266C23.6591 12.7639 23.512 12.4077 23.512 12.0363C23.512 11.6648 23.6591 11.3086 23.9211 11.0459C24.183 10.7833 24.5383 10.6357 24.9088 10.6357H60.1059C60.4764 10.6357 60.8317 10.7833 61.0936 11.0459C61.3556 11.3086 61.5027 11.6648 61.5027 12.0363C61.5027 12.4077 61.3556 12.7639 61.0936 13.0266C60.8317 13.2892 60.4764 13.4368 60.1059 13.4368ZM24.9088 11.1254C24.6679 11.1254 24.4368 11.2214 24.2664 11.3922C24.0961 11.563 24.0004 11.7947 24.0004 12.0363C24.0004 12.2778 24.0961 12.5095 24.2664 12.6803C24.4368 12.8511 24.6679 12.9471 24.9088 12.9471H60.1059C60.3468 12.9471 60.5779 12.8511 60.7483 12.6803C60.9186 12.5095 61.0143 12.2778 61.0143 12.0363C61.0143 11.7947 60.9186 11.563 60.7483 11.3922C60.5779 11.2214 60.3468 11.1254 60.1059 11.1254H24.9088Z" fill="#AAFF00" />
        <path d="M20.3152 12.1417H19.8268C19.8531 11.045 19.6636 9.95382 19.269 8.93059C18.8745 7.90736 18.2827 6.97212 17.5275 6.17831C16.7723 5.38451 15.8684 4.74771 14.8676 4.30431C13.8668 3.86091 12.7887 3.6196 11.6948 3.59418V3.10449C14.0325 3.15908 16.253 4.1413 17.8692 5.83559C19.4853 7.52987 20.365 9.79781 20.3152 12.1417Z" fill="#AAFF00" />
        <path d="M75.5517 20.9782C73.2123 20.9198 70.9917 19.933 69.3773 18.2345C67.7629 16.536 66.8867 14.2646 66.9411 11.9189H67.4295C67.381 14.1326 68.2097 16.2753 69.7339 17.8774C71.2582 19.4796 73.3538 20.4106 75.5615 20.4665L75.5517 20.9782Z" fill="#AAFF00" />
        <path d="M39.8053 11.9266C39.8056 12.3901 39.7148 12.8492 39.5381 13.2775C39.3614 13.7059 39.1023 14.0951 38.7755 14.423C38.4487 14.7509 38.0606 15.011 37.6335 15.1885C37.2064 15.3659 36.7486 15.4573 36.2863 15.4573C35.8237 15.4576 35.3655 15.3665 34.938 15.1892C34.5105 15.0119 34.122 14.7519 33.7947 14.424C33.4675 14.0961 33.2079 13.7068 33.0307 13.2783C32.8536 12.8498 32.7625 12.3905 32.7625 11.9266V5.31582C32.7625 4.38028 33.1328 3.48298 33.7921 2.821C34.4515 2.15901 35.3459 1.78646 36.279 1.78516C36.7419 1.7842 37.2005 1.87483 37.6285 2.05185C38.0564 2.22888 38.4453 2.48884 38.7729 2.81682C39.1005 3.14479 39.3603 3.53436 39.5374 3.96318C39.7146 4.392 39.8056 4.85166 39.8053 5.31582V11.9266Z" fill="#1F2937" />
        <path d="M36.2788 15.7018C35.2801 15.7012 34.3224 15.3033 33.616 14.5954C32.9095 13.8876 32.512 12.9277 32.5107 11.9263V5.31554C32.5107 4.31421 32.9075 3.3539 33.6137 2.64586C34.3199 1.93781 35.2777 1.54004 36.2764 1.54004C37.2751 1.54004 38.2329 1.93781 38.9391 2.64586C39.6452 3.3539 40.042 4.31421 40.042 5.31554V11.9263C40.0413 12.927 39.6447 13.8866 38.9392 14.5944C38.2337 15.3023 37.2769 15.7005 36.2788 15.7018ZM36.2788 2.02973C35.4096 2.03037 34.5762 2.37669 33.9613 2.99269C33.3465 3.60868 33.0004 4.44406 32.9991 5.31554V11.9263C32.9991 12.7978 33.3444 13.6335 33.959 14.2497C34.5736 14.866 35.4072 15.2121 36.2764 15.2121C37.1455 15.2121 37.9791 14.866 38.5937 14.2497C39.2083 13.6335 39.5536 12.7978 39.5536 11.9263V5.31554C39.5529 4.44471 39.2078 3.6097 38.5939 2.9937C37.9799 2.3777 37.1474 2.03102 36.2788 2.02973Z" fill="#AAFF00" />
        <path d="M47.3121 11.4271C47.3115 12.3638 46.9399 13.2618 46.2791 13.9238C45.6184 14.5859 44.7224 14.9578 43.7883 14.9578C42.8545 14.9572 41.9592 14.585 41.299 13.923C40.6387 13.261 40.2675 12.3633 40.2668 11.4271V3.77577C40.2668 2.83938 40.6379 1.94135 41.2982 1.27922C41.9586 0.617096 42.8543 0.245118 43.7883 0.245118C44.2509 0.244796 44.7091 0.335882 45.1366 0.51317C45.5641 0.690458 45.9526 0.950473 46.2799 1.27836C46.6071 1.60624 46.8667 1.99556 47.0438 2.42408C47.221 2.8526 47.3121 3.31191 47.3121 3.77577V11.4271Z" fill="#1F2937" />
        <path d="M43.7881 15.2024C42.7896 15.2018 41.8321 14.8038 41.1261 14.0959C40.42 13.388 40.0231 12.428 40.0225 11.4269V3.77553C40.0475 2.79053 40.4553 1.8543 41.159 1.1665C41.8627 0.478696 42.8066 0.09375 43.7893 0.09375C44.772 0.09375 45.7159 0.478696 46.4196 1.1665C47.1233 1.8543 47.5311 2.79053 47.5561 3.77553V11.4269C47.5549 12.4283 47.1574 13.3882 46.4509 14.096C45.7445 14.8039 44.7868 15.2018 43.7881 15.2024ZM43.7881 0.489717C42.9191 0.490366 42.0859 0.836756 41.4715 1.45282C40.857 2.06889 40.5115 2.90427 40.5109 3.77553V11.4269C40.5342 12.2831 40.8898 13.0965 41.5021 13.6938C42.1144 14.2912 42.935 14.6254 43.7893 14.6254C44.6436 14.6254 45.4642 14.2912 46.0765 13.6938C46.6888 13.0965 47.0444 12.2831 47.0677 11.4269V3.77553C47.0664 2.90405 46.7204 2.06867 46.1056 1.45268C45.4907 0.836677 44.6573 0.490365 43.7881 0.489717Z" fill="#AAFF00" />
        <path d="M54.3524 10.1613C54.3524 11.0977 53.9814 11.9957 53.321 12.6578C52.6606 13.3199 51.7649 13.6919 50.831 13.6919C49.8975 13.6913 49.0024 13.319 48.3425 12.657C47.6827 11.9949 47.312 11.0972 47.312 10.1613V5.31581C47.3117 4.85227 47.4025 4.39322 47.5792 3.96487C47.7559 3.53653 48.015 3.14729 48.3418 2.81941C48.6686 2.49153 49.0567 2.23142 49.4838 2.05396C49.9109 1.8765 50.3687 1.78516 50.831 1.78516C51.2935 1.78484 51.7516 1.87594 52.179 2.05326C52.6063 2.23057 52.9947 2.49063 53.3217 2.81854C53.6488 3.14646 53.9082 3.5358 54.085 3.96431C54.2619 4.39281 54.3527 4.85207 54.3524 5.31581V10.1613Z" fill="#1F2937" />
        <path d="M50.831 13.936C49.833 13.9347 48.8762 13.5364 48.1706 12.8286C47.4651 12.1207 47.0685 11.1612 47.0679 10.1605V5.31499C47.0551 4.81126 47.143 4.31006 47.3264 3.84092C47.5098 3.37178 47.7851 2.9442 48.1359 2.58339C48.4867 2.22257 48.906 1.93581 49.3691 1.74002C49.8322 1.54423 50.3297 1.44336 50.8323 1.44336C51.3348 1.44336 51.8323 1.54423 52.2954 1.74002C52.7585 1.93581 53.1778 2.22257 53.5287 2.58339C53.8795 2.9442 54.1547 3.37178 54.3381 3.84092C54.5216 4.31006 54.6095 4.81126 54.5967 5.31499V10.1605C54.5954 11.1614 54.1982 12.1209 53.4923 12.8287C52.7864 13.5365 51.8294 13.9347 50.831 13.936ZM50.831 2.02919C49.9625 2.03048 49.1299 2.37716 48.516 2.99316C47.9021 3.60916 47.5569 4.44417 47.5563 5.31499V10.1605C47.5443 10.5993 47.6202 11.0362 47.7795 11.4452C47.9387 11.8541 48.1781 12.227 48.4835 12.5416C48.7889 12.8563 49.1541 13.1064 49.5575 13.2772C49.9609 13.448 50.3944 13.536 50.8323 13.536C51.2702 13.536 51.7036 13.448 52.107 13.2772C52.5105 13.1064 52.8756 12.8563 53.181 12.5416C53.4864 12.227 53.7258 11.8541 53.8851 11.4452C54.0443 11.0362 54.1202 10.5993 54.1083 10.1605V5.31499C54.1076 4.44374 53.7621 3.60836 53.1477 2.99229C52.5332 2.37622 51.7 2.02983 50.831 2.02919Z" fill="#AAFF00" />
        <path d="M61.3954 10.171C61.3967 10.6353 61.3066 11.0952 61.1304 11.5246C60.9541 11.9539 60.6952 12.3442 60.3683 12.673C60.0414 13.0019 59.6531 13.2629 59.2255 13.4411C58.7979 13.6192 58.3395 13.7111 57.8764 13.7114C56.9422 13.7114 56.0463 13.3395 55.3855 12.6775C54.7247 12.0154 54.3532 11.1174 54.3525 10.1808V6.8705C54.3525 6.40664 54.4437 5.94733 54.6208 5.51881C54.7979 5.09029 55.0575 4.70097 55.3848 4.37308C55.7121 4.0452 56.1005 3.78518 56.5281 3.6079C56.9556 3.43061 57.4138 3.33952 57.8764 3.33984C58.3387 3.33984 58.7965 3.43119 59.2236 3.60865C59.6507 3.78611 60.0388 4.04621 60.3656 4.3741C60.6924 4.70198 60.9515 5.09122 61.1282 5.51956C61.3049 5.9479 61.3957 6.40696 61.3954 6.8705V10.171Z" fill="#1F2937" />
        <path d="M57.8762 13.956C56.8775 13.9554 55.9198 13.5575 55.2134 12.8496C54.5069 12.1418 54.1094 11.1819 54.1082 10.1805V6.87022C54.1082 5.8689 54.5049 4.90859 55.2111 4.20054C55.9173 3.4925 56.8751 3.09473 57.8738 3.09473C58.8725 3.09473 59.8303 3.4925 60.5365 4.20054C61.2427 4.90859 61.6394 5.8689 61.6394 6.87022V10.1707C61.6404 10.6671 61.5438 11.1587 61.3551 11.6176C61.1665 12.0765 60.8895 12.4936 60.5401 12.8452C60.1906 13.1967 59.7755 13.4757 59.3184 13.6663C58.8613 13.8569 58.3713 13.9554 57.8762 13.956ZM57.8762 3.59421C57.007 3.59486 56.1736 3.94117 55.5587 4.55717C54.9439 5.17316 54.5979 6.00854 54.5966 6.88002V10.1707C54.5966 11.0422 54.9418 11.8779 55.5564 12.4941C56.171 13.1103 57.0046 13.4565 57.8738 13.4565C58.7429 13.4565 59.5765 13.1103 60.1911 12.4941C60.8057 11.8779 61.151 11.0422 61.151 10.1707V6.87022C61.1503 5.9994 60.8052 5.16438 60.1913 4.54839C59.5773 3.93239 58.7448 3.58571 57.8762 3.58441V3.59421Z" fill="#AAFF00" />
        <path d="M39.9541 28.5245C41.2899 17.8958 32.4424 15.4571 32.4424 15.4571H42.6721C47.3119 14.4557 47.3119 8.62109 47.3119 8.62109H31.2409L25.8367 13.1923C25.8367 13.1923 22.9062 16.3753 23.8586 20.7335C23.8586 20.7335 26.0564 27.9001 32.7549 34.5672" fill="#1F2937" />
        <path d="M32.5817 34.7413C25.9198 28.106 23.6463 20.8782 23.6243 20.8121C22.6621 16.3682 25.534 13.168 25.6585 13.0334L25.6805 13.0113L31.0847 8.44255C31.1283 8.40517 31.1837 8.38436 31.241 8.38379H47.3121C47.3768 8.38379 47.4389 8.40958 47.4847 8.4555C47.5305 8.50142 47.5563 8.5637 47.5563 8.62863C47.5563 8.68984 47.5001 14.6714 42.7259 15.7046H42.6722H33.7197C36.1349 16.8481 41.2363 20.2783 40.196 28.5565L39.7076 28.4953C40.2497 24.1787 39.185 20.7141 36.5329 18.1996C35.3438 17.0677 33.9205 16.2125 32.3644 15.6948C32.2996 15.6864 32.2408 15.6525 32.201 15.6006C32.1611 15.5487 32.1435 15.4831 32.1519 15.4182C32.1603 15.3532 32.1941 15.2943 32.2459 15.2544C32.2976 15.2144 32.3631 15.1967 32.4278 15.2051H42.6331C46.4671 14.358 46.9751 9.95079 47.0434 8.85879H31.3314L26.0077 13.3688C25.8295 13.572 23.2214 16.6326 24.0956 20.6823C24.1127 20.7337 26.3545 27.8489 32.926 34.3936L32.5817 34.7413Z" fill="#AAFF00" />
        <path d="M55.5222 46.4956C55.5227 46.8671 55.4132 47.2305 55.2077 47.5396C55.0022 47.8488 54.7098 48.0899 54.3676 48.2324C54.0254 48.3749 53.6487 48.4124 53.2853 48.3402C52.9218 48.2681 52.5878 48.0894 52.3256 47.8269C52.0634 47.5643 51.8848 47.2297 51.8123 46.8653C51.7398 46.501 51.7768 46.1233 51.9185 45.78C52.0602 45.4367 52.3002 45.1432 52.6083 44.9368C52.9164 44.7303 53.2786 44.6201 53.6492 44.6201C54.1455 44.6201 54.6215 44.8176 54.9727 45.1693C55.3239 45.5209 55.5216 45.998 55.5222 46.4956Z" fill="#1F2937" />
        <path d="M53.6492 48.6186C53.2305 48.6186 52.8211 48.4941 52.473 48.2609C52.1248 48.0276 51.8534 47.6961 51.6932 47.3082C51.5329 46.9203 51.491 46.4935 51.5727 46.0817C51.6544 45.6699 51.856 45.2917 52.1521 44.9948C52.4482 44.6979 52.8255 44.4957 53.2362 44.4138C53.6469 44.3319 54.0726 44.374 54.4595 44.5346C54.8463 44.6953 55.177 44.9674 55.4097 45.3165C55.6423 45.6656 55.7665 46.076 55.7665 46.4958C55.7658 47.0586 55.5426 47.5982 55.1456 47.9962C54.7487 48.3941 54.2106 48.618 53.6492 48.6186ZM53.6492 44.8652C53.327 44.8652 53.012 44.961 52.744 45.1406C52.4761 45.3201 52.2674 45.5753 52.1441 45.8739C52.0209 46.1725 51.9888 46.5009 52.0519 46.8178C52.1149 47.1347 52.2703 47.4256 52.4983 47.6539C52.7264 47.8822 53.0168 48.0376 53.333 48.1003C53.6491 48.1631 53.9767 48.1304 54.2743 48.0064C54.5718 47.8824 54.8261 47.6727 55.0048 47.4038C55.1834 47.1349 55.2786 46.8189 55.2781 46.4958C55.2774 46.0631 55.1055 45.6484 54.8001 45.3426C54.4947 45.0369 54.0808 44.8652 53.6492 44.8652Z" fill="#AAFF00" />
    </g>
    <defs>
        <clipPath id="clip0_1007_630">
            <rect width="85" height="52" fill="white" />
        </clipPath>
    </defs>
</svg>
    