<svg width="65" height="56" viewBox="0 0 65 56" fill="none" xmlns="http://www.w3.org/2000/svg">
    <g clip-path="url(#clip0_1007_197)">
        <path d="M64.478 40.473C64.478 41.3528 64.1278 42.1965 63.5046 42.8186C62.8813 43.4407 62.036 43.7901 61.1545 43.7901H4.30269C3.86615 43.7905 3.43384 43.7049 3.03047 43.5383C2.62711 43.3717 2.2606 43.1274 1.95193 42.8193C1.64325 42.5112 1.39846 42.1454 1.23156 41.7428C1.06466 41.3402 0.978919 40.9087 0.979249 40.473V4.46512C0.97892 4.0293 1.06464 3.59769 1.23151 3.19495C1.39838 2.79221 1.64313 2.42624 1.95178 2.11795C2.26042 1.80966 2.6269 1.5651 3.03028 1.39825C3.43367 1.23139 3.86604 1.14551 4.30269 1.14551H61.1545C62.0362 1.14617 62.8815 1.49621 63.5047 2.11868C64.1279 2.74116 64.478 3.58514 64.478 4.46512V40.473Z" fill="#1F2937" />
        <path d="M61.1544 44.0405H4.30259C3.35509 44.0391 2.44678 43.6629 1.7768 42.9942C1.10682 42.3255 0.729842 41.4189 0.728516 40.4732L0.728516 4.46528C0.729179 3.51915 1.10586 2.61193 1.77592 1.94268C2.44597 1.27344 3.35466 0.896833 4.30259 0.895508L61.1544 0.895508C62.1024 0.896833 63.0111 1.27344 63.6811 1.94268C64.3512 2.61193 64.7279 3.51915 64.7285 4.46528V40.4732C64.7272 41.4189 64.3502 42.3255 63.6802 42.9942C63.0102 43.6629 62.1019 44.0391 61.1544 44.0405ZM4.30259 1.39583C3.48761 1.39715 2.70642 1.72104 2.13037 2.29646C1.55432 2.87188 1.23045 3.65185 1.22979 4.46528V40.4732C1.23045 41.2864 1.55441 42.0661 2.13052 42.6411C2.70664 43.2161 3.48784 43.5395 4.30259 43.5401H61.1544C61.9692 43.5395 62.7504 43.2161 63.3265 42.6411C63.9026 42.0661 64.2266 41.2864 64.2272 40.4732V4.46528C64.2266 3.65185 63.9027 2.87188 63.3267 2.29646C62.7506 1.72104 61.9694 1.39715 61.1544 1.39583H4.30259Z" fill="#AAFF00" />
        <path d="M60.7158 5.00586H4.74121V39.9331H60.7158V5.00586Z" fill="#1F2937" />
        <path d="M60.7158 40.1834H4.73867C4.6722 40.1834 4.60845 40.1571 4.56145 40.1101C4.51444 40.0632 4.48804 39.9996 4.48804 39.9332V5.00602C4.48804 4.93967 4.51444 4.87604 4.56145 4.82913C4.60845 4.78222 4.6722 4.75586 4.73867 4.75586H60.7158C60.7823 4.75586 60.846 4.78222 60.893 4.82913C60.94 4.87604 60.9664 4.93967 60.9664 5.00602V39.9332C60.9664 39.9996 60.94 40.0632 60.893 40.1101C60.846 40.1571 60.7823 40.1834 60.7158 40.1834ZM4.98931 39.6831H60.4652V5.25618H4.98931V39.6831Z" fill="#AAFF00" />
        <path d="M38.73 43.79H26.7271V52.7683H38.73V43.79Z" fill="#1F2937" />
        <path d="M38.9806 53.0186H26.4763V43.54H38.9806V53.0186ZM26.9776 52.5183H38.4793V44.0404H26.9776V52.5183Z" fill="#AAFF00" />
        <path d="M42.6776 52.7686H22.7846C22.7846 52.7686 20.1956 52.7686 19.9224 55.6454H45.5399C45.2692 52.7686 42.6776 52.7686 42.6776 52.7686Z" fill="#1F2937" />
        <path d="M45.5398 55.8957H19.9147C19.8798 55.8956 19.8452 55.8882 19.8132 55.874C19.7813 55.8598 19.7527 55.8391 19.7293 55.8132C19.7059 55.7872 19.6883 55.7566 19.6775 55.7235C19.6667 55.6903 19.663 55.6552 19.6666 55.6205C19.9573 52.5536 22.7494 52.5186 22.777 52.5186H42.68C42.7076 52.5186 45.4997 52.5536 45.7904 55.6205C45.7937 55.6554 45.7896 55.6906 45.7783 55.7237C45.7671 55.7569 45.749 55.7874 45.7253 55.8132C45.7018 55.8391 45.6732 55.8598 45.6413 55.874C45.6093 55.8882 45.5748 55.8956 45.5398 55.8957ZM20.2005 55.3954H45.2641C45.1957 54.7546 44.8965 54.1604 44.4221 53.7233C43.9477 53.2862 43.3305 53.0359 42.685 53.0189H22.7845C22.1381 53.0341 21.5193 53.2837 21.0438 53.7211C20.5682 54.1584 20.2685 54.7536 20.2005 55.3954Z" fill="#AAFF00" />
        <path d="M23.3209 13.0703H13.709V19.2017H23.3209V13.0703Z" fill="#1F2937" />
        <path d="M23.5714 19.452H13.4583V12.8203H23.5714V19.452ZM13.9595 18.9517H23.0702V13.3206H13.9595V18.9517Z" fill="#AAFF00" />
        <path d="M37.7826 13.0703H28.1707V19.2017H37.7826V13.0703Z" fill="#1F2937" />
        <path d="M38.0359 19.452H27.9202V12.8203H38.0359V19.452ZM28.4214 18.9517H37.5346V13.3206H28.4214V18.9517Z" fill="#AAFF00" />
        <path d="M51.7481 13.0703H42.1362V19.2017H51.7481V13.0703Z" fill="#1F2937" />
        <path d="M51.9987 19.452H41.8855V12.8203H51.9987V19.452ZM42.3868 18.9517H51.4974V13.3206H42.3868V18.9517Z" fill="#AAFF00" />
        <path d="M23.3209 23.9453H13.709V30.0767H23.3209V23.9453Z" fill="#1F2937" />
        <path d="M23.5714 30.327H13.4583V23.6953H23.5714V30.327ZM13.9595 29.8267H23.0702V24.1956H13.9595V29.8267Z" fill="#AAFF00" />
        <path d="M37.7826 23.9453H28.1707V30.0767H37.7826V23.9453Z" fill="#1F2937" />
        <path d="M38.0333 30.327H27.9202V23.6953H38.0333V30.327ZM28.4214 29.8267H37.5321V24.1956H28.4214V29.8267Z" fill="#AAFF00" />
        <path d="M51.7455 23.9453H42.1335V30.0767H51.7455V23.9453Z" fill="#1F2937" />
        <path d="M51.9987 30.327H41.8831V23.6953H51.9987V30.327ZM42.3843 29.8267H51.4975V24.1956H42.3843V29.8267Z" fill="#AAFF00" />
    </g>
    <defs>
        <clipPath id="clip0_1007_197">
            <rect width="64" height="55" fill="white" transform="translate(0.728516 0.895508)" />
        </clipPath>
    </defs>
</svg>
    