<svg width="347" height="320" viewBox="0 0 347 320" fill="none" xmlns="http://www.w3.org/2000/svg">
<path d="M329.166 161.306L215.262 95.6757L59.6704 119.693L17.9827 209.357L131.887 275.004L287.479 250.987L329.166 161.306Z" fill="url(#paint0_linear_1401_18457)"/>
<path d="M329.166 161.306L287.479 250.987V295.974L329.166 206.31V161.306Z" fill="url(#paint1_linear_1401_18457)"/>
<path d="M17.9827 209.357V254.362L131.887 319.991V275.004L17.9827 209.357Z" fill="url(#paint2_linear_1401_18457)"/>
<path d="M131.887 275.004L287.479 250.987V295.974L131.887 319.991V275.004Z" fill="url(#paint3_linear_1401_18457)"/>
<path style="mix-blend-mode:overlay" d="M328.183 163.423V204.347L286.495 294.029L130.904 318.046L17.9827 252.967V254.362L131.887 319.991L287.479 295.974L329.166 206.31V161.306L328.183 163.423Z" fill="url(#paint4_linear_1401_18457)"/>
<path style="mix-blend-mode:color-dodge" opacity="0.4" d="M43.2505 201.455L135.698 254.74L274.146 233.357L303.898 169.363L346.673 -179.24L223.886 -250L39.9906 -221.61L0.476074 -136.594L43.2505 201.455Z" fill="url(#paint5_radial_1401_18457)"/>
<path d="M49.2354 204.829L73.0027 153.696L211.45 132.33L297.913 182.155L274.163 233.323L135.715 254.74L49.2354 204.829Z" fill="url(#paint6_linear_1401_18457)"/>
<path style="mix-blend-mode:overlay" d="M223.11 139.096L79.0912 222.098L81.2644 223.354L225.283 140.353L223.11 139.096ZM218.367 136.359L74.3481 219.36L76.5213 220.617L220.54 137.615L218.367 136.359ZM213.606 133.621L69.5877 216.571L71.7609 217.828L215.78 134.826L213.606 133.621ZM204.396 133.466L64.8446 213.885L67.0178 215.142L210.329 132.502L204.396 133.466ZM191.408 135.463L60.0842 211.217L62.2574 212.473L197.359 134.551L191.408 135.463ZM242.117 150.046L98.0982 233.047L100.271 234.304L244.29 151.303L242.117 150.046ZM237.356 147.308L93.3378 230.344L95.511 231.601L239.53 148.6L237.356 147.308ZM232.613 144.571L88.5947 227.572L90.7679 228.829L234.787 145.828L232.613 144.571ZM227.87 141.834L83.8343 224.835L86.0075 226.092L230.13 143.09L227.87 141.834ZM100.565 149.426L65.6035 169.57L64.0167 173.013L106.498 148.531L100.565 149.426ZM126.522 145.415L58.6526 184.531L57.0658 187.974L132.456 144.519L126.522 145.415ZM87.5943 151.423L69.0875 162.098L67.5007 165.541L93.5276 150.545L87.5943 151.423ZM74.6068 153.438L72.5543 154.608L70.9675 158.052L80.5573 152.525L74.6068 153.438ZM152.48 141.386L51.7018 199.561L50.115 203.004L158.414 140.577L152.48 141.386ZM165.451 139.389L50.5979 205.673L52.7711 206.93L171.487 138.562L165.451 139.389ZM178.438 137.374L55.3411 208.324L57.5143 209.581L184.371 136.462L178.438 137.374ZM139.51 143.4L55.1686 191.986L53.5818 195.429L145.443 142.539L139.51 143.4ZM113.552 147.395L62.1367 177.128L60.5326 180.571L119.485 146.603L113.552 147.395ZM246.567 237.506L281.528 217.363L283.115 213.92L240.634 238.402L246.567 237.506ZM259.537 235.509L278.044 224.835L279.631 221.392L253.604 236.405L259.537 235.509ZM272.525 233.495L274.56 232.324L276.164 228.881L266.574 234.39L272.525 233.495ZM294.36 180.123L175.73 248.491L181.681 247.578L296.533 181.38L294.36 180.123ZM188.735 246.528L194.668 245.615L295.447 187.527L297.034 184.083L188.735 246.528ZM207.708 243.601L292.032 194.999L293.636 191.555L201.774 244.479L207.708 243.601ZM246.86 152.869L102.841 235.871L105.015 237.128L249.102 154.04L246.86 152.869ZM220.609 241.69L288.479 202.574L290.066 199.131L214.607 242.517L220.609 241.69ZM233.579 239.676L284.995 210.046L286.582 206.603L227.646 240.571L233.579 239.676ZM289.617 177.506L162.76 250.626L168.693 249.696L291.79 178.694L289.617 177.506ZM256.363 158.344L112.345 241.346L114.518 242.603L258.537 159.601L256.363 158.344ZM265.867 163.819L121.848 246.821L124.022 248.077L268.075 164.921L265.867 163.819ZM261.176 160.996L117.157 243.997L119.33 245.254L263.349 162.252L261.176 160.996ZM251.689 155.521L107.671 238.522L109.844 239.779L253.863 156.778L251.689 155.521ZM280.148 171.945L136.837 254.585L142.77 253.673L282.321 173.254L280.148 171.945ZM284.891 174.683L149.807 252.537L155.757 251.624L287.064 175.871L284.891 174.683ZM270.645 166.471L126.643 249.472L128.816 250.729L272.835 167.727L270.645 166.471ZM275.405 169.208L131.386 252.209L133.56 253.466L277.578 170.465L275.405 169.208Z" fill="url(#paint7_linear_1401_18457)"/>
<path style="mix-blend-mode:overlay" opacity="0.6" d="M49.2354 124.807L73.0027 73.6731L211.45 52.29L297.913 102.115L274.163 153.3L135.715 174.7L49.2354 124.807Z" fill="url(#paint8_linear_1401_18457)"/>
<path style="mix-blend-mode:overlay" d="M49.2354 46.9871L73.0027 -4.14634L211.45 -25.5294L297.913 24.2956L274.163 75.4634L135.715 96.8809L49.2354 46.9871Z" fill="url(#paint9_linear_1401_18457)"/>
<path style="mix-blend-mode:overlay" d="M49.2354 -33.2941L73.0027 -84.4276L211.45 -105.793L297.913 -55.9684L274.163 -4.80058L135.715 16.6169L49.2354 -33.2941Z" fill="url(#paint10_linear_1401_18457)"/>
<path d="M73.0028 153.696L211.45 132.33L297.913 182.155L303.898 169.294L211.45 116.009L73.0028 137.392L43.2505 201.386L49.2355 204.829L73.0028 153.696Z" fill="url(#paint11_linear_1401_18457)"/>
<g style="mix-blend-mode:color-dodge">
<path style="mix-blend-mode:color-dodge" d="M122.59 83.5553C122.59 84.3214 122.362 85.0704 121.936 85.7074C121.51 86.3444 120.904 86.8409 120.194 87.1341C119.485 87.4273 118.705 87.504 117.952 87.3546C117.199 87.2051 116.508 86.8362 115.965 86.2944C115.423 85.7527 115.053 85.0624 114.903 84.311C114.753 83.5596 114.83 82.7807 115.124 82.0728C115.418 81.365 115.915 80.76 116.553 80.3343C117.192 79.9087 117.942 79.6815 118.709 79.6815C119.739 79.6815 120.726 80.0896 121.453 80.8161C122.181 81.5426 122.59 82.5279 122.59 83.5553Z" fill="url(#paint12_radial_1401_18457)"/>
<path style="mix-blend-mode:color-dodge" d="M98.1674 131.383C100.282 131.383 101.996 129.672 101.996 127.561C101.996 125.45 100.282 123.739 98.1674 123.739C96.0527 123.739 94.3384 125.45 94.3384 127.561C94.3384 129.672 96.0527 131.383 98.1674 131.383Z" fill="url(#paint13_radial_1401_18457)"/>
<path style="mix-blend-mode:color-dodge" d="M278.217 116.336C278.217 117.122 277.983 117.891 277.545 118.545C277.107 119.199 276.485 119.709 275.757 120.01C275.029 120.311 274.228 120.39 273.455 120.236C272.682 120.083 271.972 119.704 271.415 119.148C270.858 118.592 270.478 117.883 270.325 117.112C270.171 116.34 270.25 115.54 270.551 114.814C270.853 114.087 271.364 113.466 272.019 113.029C272.674 112.592 273.444 112.359 274.232 112.359C274.756 112.356 275.275 112.458 275.76 112.657C276.244 112.856 276.684 113.149 277.055 113.518C277.425 113.888 277.718 114.328 277.918 114.811C278.117 115.295 278.219 115.813 278.217 116.336V116.336Z" fill="url(#paint14_radial_1401_18457)"/>
<path style="mix-blend-mode:color-dodge" d="M203.206 21.4376C203.21 22.1874 202.99 22.9214 202.575 23.5466C202.16 24.1717 201.569 24.6599 200.876 24.9492C200.183 25.2385 199.419 25.316 198.682 25.1718C197.945 25.0276 197.267 24.6682 196.735 24.1392C196.202 23.6102 195.839 22.9353 195.691 22.2001C195.544 21.4649 195.618 20.7025 195.904 20.0093C196.191 19.3162 196.677 18.7237 197.302 18.3067C197.926 17.8897 198.66 17.6672 199.412 17.6671C200.415 17.6671 201.378 18.0638 202.089 18.7704C202.8 19.477 203.202 20.436 203.206 21.4376Z" fill="url(#paint15_radial_1401_18457)"/>
<path style="mix-blend-mode:color-dodge" d="M121.038 4.13486C121.038 4.88399 120.815 5.61631 120.398 6.23918C119.981 6.86206 119.389 7.34752 118.695 7.6342C118.002 7.92088 117.239 7.9959 116.503 7.84975C115.767 7.7036 115.091 7.34286 114.56 6.81314C114.029 6.28343 113.668 5.60853 113.522 4.8738C113.375 4.13907 113.45 3.37749 113.738 2.68539C114.025 1.99328 114.511 1.40172 115.135 0.985528C115.759 0.569335 116.493 0.347207 117.243 0.347207C117.742 0.344928 118.237 0.441336 118.698 0.630876C119.159 0.820417 119.579 1.09932 119.931 1.45149C120.284 1.80366 120.564 2.22211 120.754 2.68268C120.943 3.14325 121.04 3.63682 121.038 4.13486V4.13486Z" fill="url(#paint16_radial_1401_18457)"/>
<path style="mix-blend-mode:color-dodge" d="M254.277 20.8522C254.266 21.629 254.027 22.3854 253.587 23.0266C253.148 23.6677 252.528 24.165 251.807 24.456C251.085 24.747 250.294 24.8188 249.531 24.6623C248.769 24.5058 248.07 24.1279 247.522 23.5763C246.974 23.0246 246.602 22.3236 246.452 21.5614C246.302 20.7992 246.38 20.0097 246.678 19.292C246.976 18.5742 247.479 17.9604 248.125 17.5273C248.771 17.0943 249.531 16.8614 250.31 16.8579C250.835 16.8533 251.356 16.9536 251.841 17.1531C252.327 17.3527 252.768 17.6472 253.137 18.0195C253.507 18.3918 253.798 18.8343 253.994 19.3208C254.19 19.8073 254.286 20.3281 254.277 20.8522Z" fill="url(#paint17_radial_1401_18457)"/>
<path style="mix-blend-mode:color-dodge" d="M266.54 90.3903C266.54 91.136 266.318 91.8649 265.903 92.485C265.488 93.105 264.898 93.5883 264.208 93.8737C263.518 94.1591 262.758 94.2337 262.026 94.0883C261.293 93.9428 260.62 93.5837 260.092 93.0563C259.563 92.529 259.204 91.8572 259.058 91.1258C258.912 90.3944 258.987 89.6363 259.273 88.9474C259.559 88.2584 260.043 87.6695 260.664 87.2552C261.285 86.8409 262.016 86.6198 262.763 86.6198C263.764 86.6198 264.725 87.017 265.434 87.7241C266.142 88.4312 266.54 89.3903 266.54 90.3903Z" fill="url(#paint18_radial_1401_18457)"/>
<path style="mix-blend-mode:color-dodge" d="M149.41 21.9024C149.41 22.6652 149.184 23.4108 148.759 24.045C148.335 24.6792 147.731 25.1735 147.025 25.4654C146.319 25.7573 145.543 25.8337 144.793 25.6849C144.044 25.5361 143.355 25.1688 142.815 24.6294C142.275 24.0901 141.907 23.4029 141.758 22.6548C141.609 21.9067 141.685 21.1313 141.977 20.4266C142.27 19.7219 142.765 19.1196 143.4 18.6959C144.036 18.2721 144.783 18.0459 145.547 18.0459C146.572 18.0459 147.554 18.4522 148.279 19.1755C149.003 19.8987 149.41 20.8796 149.41 21.9024Z" fill="url(#paint19_radial_1401_18457)"/>
<path style="mix-blend-mode:color-dodge" d="M280.838 139.664C280.841 140.452 280.611 141.222 280.175 141.878C279.739 142.535 279.118 143.047 278.391 143.351C277.663 143.654 276.861 143.736 276.087 143.584C275.313 143.433 274.602 143.055 274.043 142.5C273.484 141.944 273.103 141.236 272.947 140.464C272.792 139.692 272.87 138.891 273.171 138.164C273.472 137.436 273.983 136.814 274.639 136.376C275.294 135.938 276.065 135.704 276.854 135.704C277.376 135.702 277.894 135.803 278.377 136.001C278.86 136.199 279.3 136.49 279.67 136.858C280.04 137.226 280.334 137.663 280.534 138.145C280.735 138.626 280.838 139.143 280.838 139.664Z" fill="url(#paint20_radial_1401_18457)"/>
<path style="mix-blend-mode:color-dodge" d="M94.5108 24.7776C94.5108 25.5438 94.2832 26.2927 93.8567 26.9297C93.4303 27.5668 92.8242 28.0633 92.1151 28.3565C91.406 28.6497 90.6257 28.7264 89.8729 28.5769C89.1201 28.4274 88.4286 28.0585 87.8859 27.5168C87.3432 26.975 86.9736 26.2848 86.8238 25.5333C86.6741 24.7819 86.7509 24.003 87.0447 23.2952C87.3384 22.5874 87.8358 21.9823 88.474 21.5567C89.1122 21.131 89.8625 20.9039 90.63 20.9039C91.6593 20.9039 92.6463 21.312 93.3741 22.0384C94.1019 22.7649 94.5108 23.7502 94.5108 24.7776V24.7776Z" fill="url(#paint21_radial_1401_18457)"/>
<path style="mix-blend-mode:color-dodge" d="M168.538 79.6815C168.538 80.4647 168.306 81.2303 167.87 81.8815C167.434 82.5326 166.814 83.0402 166.089 83.3399C165.364 83.6396 164.567 83.718 163.797 83.5652C163.028 83.4124 162.321 83.0353 161.766 82.4815C161.211 81.9277 160.834 81.2222 160.68 80.454C160.527 79.6859 160.606 78.8897 160.906 78.1662C161.206 77.4426 161.715 76.8241 162.367 76.389C163.02 75.9539 163.787 75.7217 164.571 75.7217C165.623 75.7217 166.632 76.1389 167.376 76.8815C168.12 77.6241 168.538 78.6313 168.538 79.6815V79.6815Z" fill="url(#paint22_radial_1401_18457)"/>
<path style="mix-blend-mode:color-dodge" d="M88.267 90.3386C88.267 91.1252 88.0334 91.8941 87.5956 92.5481C87.1578 93.2021 86.5355 93.7119 85.8075 94.0129C85.0795 94.3139 84.2784 94.3927 83.5055 94.2392C82.7327 94.0858 82.0227 93.707 81.4655 93.1508C80.9083 92.5946 80.5289 91.886 80.3751 91.1145C80.2214 90.343 80.3003 89.5434 80.6019 88.8167C80.9034 88.0899 81.4141 87.4688 82.0693 87.0318C82.7245 86.5948 83.4948 86.3615 84.2828 86.3615C84.8067 86.3593 85.3258 86.4606 85.8102 86.6596C86.2946 86.8587 86.7348 87.1516 87.1052 87.5213C87.4756 87.8911 87.769 88.3304 87.9684 88.814C88.1678 89.2975 88.2693 89.8157 88.267 90.3386V90.3386Z" fill="url(#paint23_radial_1401_18457)"/>
<path style="mix-blend-mode:color-dodge" d="M205.362 87.6872C205.362 88.4159 205.146 89.1282 204.74 89.7341C204.334 90.34 203.758 90.8122 203.083 91.0911C202.409 91.37 201.667 91.4429 200.951 91.3008C200.235 91.1586 199.577 90.8077 199.061 90.2925C198.545 89.7772 198.193 89.1207 198.051 88.406C197.908 87.6913 197.982 86.9505 198.261 86.2773C198.54 85.604 199.013 85.0286 199.62 84.6238C200.227 84.2189 200.941 84.0028 201.671 84.0028C202.156 84.0006 202.637 84.0943 203.086 84.2787C203.535 84.463 203.943 84.7343 204.286 85.0769C204.629 85.4195 204.901 85.8265 205.086 86.2746C205.27 86.7226 205.364 87.2027 205.362 87.6872V87.6872Z" fill="url(#paint24_radial_1401_18457)"/>
<path style="mix-blend-mode:color-dodge" d="M181.957 17.0129C181.96 17.7525 181.744 18.4765 181.335 19.0932C180.925 19.7098 180.342 20.1914 179.658 20.4768C178.975 20.7622 178.222 20.8386 177.495 20.6964C176.767 20.5542 176.099 20.1998 175.574 19.678C175.049 19.1562 174.69 18.4905 174.545 17.7653C174.399 17.0402 174.472 16.2881 174.755 15.6044C175.037 14.9207 175.517 14.3362 176.133 13.925C176.749 13.5137 177.473 13.2941 178.214 13.2941C179.204 13.2941 180.153 13.6854 180.855 14.3823C181.556 15.0792 181.952 16.025 181.957 17.0129Z" fill="url(#paint25_radial_1401_18457)"/>
</g>
<path d="M121.572 192.795C121.848 189.972 120.451 181.621 122.159 179.022C123.866 176.422 123.245 179.435 126.402 177.524L177.593 155.452L177.455 165.644L140.441 188.784C139.447 189.351 138.588 190.126 137.923 191.056C137.36 191.841 137.02 192.763 136.94 193.725C136.876 194.689 137.072 195.652 137.509 196.514C138.043 197.509 138.791 198.373 139.7 199.045C140.74 199.839 141.906 200.456 143.149 200.87C144.46 201.303 145.823 201.558 147.202 201.627C148.586 201.695 149.972 201.579 151.325 201.283C152.632 201.009 153.885 200.52 155.033 199.837L170.815 190.419C174.158 188.448 177.807 187.045 181.612 186.27C185.596 185.409 190.097 183.171 194.323 183.36C198.587 183.556 202.812 184.25 206.914 185.426C211.105 186.597 214.589 190.161 218.056 192.313C221.177 194.118 223.914 196.516 226.111 199.372C227.991 201.954 232.061 191.538 232.32 194.207C232.579 196.875 232.872 210.752 231.233 213.317C229.595 215.883 222.713 219.997 219.16 222.012L183.561 241.157L167.796 230.499L167.503 221.426L202.568 211.613C203.581 211.06 204.454 210.282 205.12 209.34C205.664 208.576 205.953 207.661 205.948 206.723C205.911 205.764 205.593 204.836 205.034 204.055C204.352 203.082 203.47 202.266 202.447 201.662C201.277 200.899 199.997 200.319 198.652 199.94C197.27 199.549 195.845 199.33 194.409 199.286C192.99 199.228 191.57 199.356 190.184 199.664C188.878 199.937 187.626 200.42 186.475 201.093L170.228 210.666C166.661 212.733 162.781 214.21 158.741 215.039C154.54 215.952 150.239 216.328 145.943 216.158C141.994 215.838 138.113 214.945 134.422 213.507C130.489 212.233 123.452 205.553 122.072 202.626L121.572 192.795Z" fill="url(#paint26_linear_1401_18457)"/>
<path d="M127.902 195.704C125.316 193.697 123.29 191.058 122.021 188.043C120.915 185.359 120.54 182.431 120.934 179.555C121.354 176.591 122.478 173.769 124.211 171.326C126.18 168.531 128.72 166.184 131.662 164.439L165.503 143.194L180.232 153.851L145.409 175.475C144.411 176.065 143.543 176.849 142.856 177.782C142.282 178.579 141.92 179.51 141.804 180.485C141.714 181.443 141.887 182.407 142.304 183.274C142.807 184.26 143.533 185.115 144.426 185.77C145.461 186.55 146.63 187.133 147.875 187.492C149.175 187.912 150.528 188.144 151.894 188.181C153.275 188.233 154.656 188.094 155.999 187.768C157.317 187.466 158.58 186.96 159.742 186.27L175.696 176.542C179.051 174.511 182.715 173.039 186.545 172.186C190.575 171.256 194.708 170.851 198.842 170.981C203.059 171.089 207.246 171.707 211.313 172.823C215.278 173.87 219.071 175.482 222.575 177.61C225.613 179.349 228.261 181.693 230.354 184.496C232.033 186.785 233.004 189.514 233.148 192.347C233.161 195.177 232.3 197.943 230.682 200.267C228.639 203.175 225.961 205.583 222.851 207.308L183.82 230.344L168.504 219.894L206.449 197.323C207.476 196.747 208.365 195.954 209.053 194.999C209.609 194.223 209.921 193.3 209.95 192.347C209.937 191.402 209.649 190.481 209.122 189.696C208.472 188.736 207.618 187.93 206.621 187.337C205.477 186.609 204.226 186.063 202.913 185.719C200.164 184.968 197.271 184.915 194.496 185.564C193.182 185.869 191.924 186.38 190.77 187.079L174.385 196.961C170.808 199.08 166.92 200.625 162.864 201.541C158.682 202.517 154.394 202.968 150.1 202.884C145.955 202.8 141.841 202.151 137.872 200.955C134.245 199.853 130.861 198.071 127.902 195.704Z" fill="#F7F7F7"/>
<defs>
<linearGradient id="paint0_linear_1401_18457" x1="325.976" y1="192.898" x2="32.4561" y2="178.28" gradientUnits="userSpaceOnUse">
<stop stop-color="#E8E9FF"/>
<stop offset="1" stop-color="#C0C0F6"/>
</linearGradient>
<linearGradient id="paint1_linear_1401_18457" x1="347.363" y1="162.029" x2="247.44" y2="333.147" gradientUnits="userSpaceOnUse">
<stop stop-color="#E8E9FF"/>
<stop offset="1" stop-color="#C0C0F6"/>
</linearGradient>
<linearGradient id="paint2_linear_1401_18457" x1="167.814" y1="304.565" x2="-24.6141" y2="221.639" gradientUnits="userSpaceOnUse">
<stop stop-color="#B6B9FE"/>
<stop offset="1" stop-color="#12121C"/>
</linearGradient>
<linearGradient id="paint3_linear_1401_18457" x1="396.864" y1="239.986" x2="164.842" y2="296.597" gradientUnits="userSpaceOnUse">
<stop stop-color="#E8E9FF"/>
<stop offset="1" stop-color="#C0C0F6"/>
</linearGradient>
<linearGradient id="paint4_linear_1401_18457" x1="339.549" y1="193.191" x2="35.0267" y2="326.161" gradientUnits="userSpaceOnUse">
<stop stop-color="#4E0F82"/>
<stop offset="1" stop-color="white" stop-opacity="0"/>
</linearGradient>
<radialGradient id="paint5_radial_1401_18457" cx="0" cy="0" r="1" gradientUnits="userSpaceOnUse" gradientTransform="translate(175.748 189.73) scale(473.847 472.993)">
<stop stop-color="#D3FF84"/>
<stop offset="0.85" stop-opacity="0"/>
</radialGradient>
<linearGradient id="paint6_linear_1401_18457" x1="340.118" y1="196.496" x2="-86.2106" y2="188.894" gradientUnits="userSpaceOnUse">
<stop stop-color="#AAFF00"/>
<stop offset="1" stop-color="#9FF1C7"/>
</linearGradient>
<linearGradient id="paint7_linear_1401_18457" x1="298.741" y1="175.75" x2="0.70438" y2="218.253" gradientUnits="userSpaceOnUse">
<stop stop-color="#E8E9FF"/>
<stop offset="1" stop-color="#501275"/>
</linearGradient>
<linearGradient id="paint8_linear_1401_18457" x1="381.496" y1="166.746" x2="20.495" y2="73.9448" gradientUnits="userSpaceOnUse">
<stop stop-color="white"/>
<stop offset="1" stop-color="white" stop-opacity="0"/>
</linearGradient>
<linearGradient id="paint9_linear_1401_18457" x1="381.496" y1="88.9268" x2="20.495" y2="-3.87462" gradientUnits="userSpaceOnUse">
<stop stop-color="white"/>
<stop offset="1" stop-color="white" stop-opacity="0"/>
</linearGradient>
<linearGradient id="paint10_linear_1401_18457" x1="381.496" y1="8.66284" x2="20.495" y2="-84.1386" gradientUnits="userSpaceOnUse">
<stop stop-color="white"/>
<stop offset="1" stop-color="white" stop-opacity="0"/>
</linearGradient>
<linearGradient id="paint11_linear_1401_18457" x1="24.4677" y1="166.35" x2="295.841" y2="151.11" gradientUnits="userSpaceOnUse">
<stop stop-color="#B6B9FE"/>
<stop offset="1" stop-color="#AAFF00"/>
</linearGradient>
<radialGradient id="paint12_radial_1401_18457" cx="0" cy="0" r="1" gradientUnits="userSpaceOnUse" gradientTransform="translate(118.709 83.5553) scale(3.88073 3.87374)">
<stop stop-color="#E9FFF2"/>
<stop offset="0.85" stop-opacity="0"/>
</radialGradient>
<radialGradient id="paint13_radial_1401_18457" cx="0" cy="0" r="1" gradientUnits="userSpaceOnUse" gradientTransform="translate(98.1674 127.561) scale(3.82901 3.8221)">
<stop stop-color="#E9FFF2"/>
<stop offset="0.85" stop-opacity="0"/>
</radialGradient>
<radialGradient id="paint14_radial_1401_18457" cx="0" cy="0" r="1" gradientUnits="userSpaceOnUse" gradientTransform="translate(274.232 116.336) scale(3.98423 3.97704)">
<stop stop-color="#E9FFF2"/>
<stop offset="0.85" stop-opacity="0"/>
</radialGradient>
<radialGradient id="paint15_radial_1401_18457" cx="0" cy="0" r="1" gradientUnits="userSpaceOnUse" gradientTransform="translate(199.412 21.4376) scale(3.77725 3.77044)">
<stop stop-color="#E9FFF2"/>
<stop offset="0.85" stop-opacity="0"/>
</radialGradient>
<radialGradient id="paint16_radial_1401_18457" cx="0" cy="0" r="1" gradientUnits="userSpaceOnUse" gradientTransform="translate(117.243 4.13487) scale(3.7945 3.78766)">
<stop stop-color="#E9FFF2"/>
<stop offset="0.85" stop-opacity="0"/>
</radialGradient>
<radialGradient id="paint17_radial_1401_18457" cx="0" cy="0" r="1" gradientUnits="userSpaceOnUse" gradientTransform="translate(250.31 20.8522) scale(3.93248 3.9254)">
<stop stop-color="#E9FFF2"/>
<stop offset="0.85" stop-opacity="0"/>
</radialGradient>
<radialGradient id="paint18_radial_1401_18457" cx="0" cy="0" r="1" gradientUnits="userSpaceOnUse" gradientTransform="translate(262.763 90.3903) scale(3.77726 3.77044)">
<stop stop-color="#E9FFF2"/>
<stop offset="0.85" stop-opacity="0"/>
</radialGradient>
<radialGradient id="paint19_radial_1401_18457" cx="0" cy="0" r="1" gradientUnits="userSpaceOnUse" gradientTransform="translate(145.547 21.9025) scale(3.86349 3.85652)">
<stop stop-color="#E9FFF2"/>
<stop offset="0.85" stop-opacity="0"/>
</radialGradient>
<radialGradient id="paint20_radial_1401_18457" cx="0" cy="0" r="1" gradientUnits="userSpaceOnUse" gradientTransform="translate(276.854 139.664) scale(3.96697 3.95983)">
<stop stop-color="#E9FFF2"/>
<stop offset="0.85" stop-opacity="0"/>
</radialGradient>
<radialGradient id="paint21_radial_1401_18457" cx="0" cy="0" r="1" gradientUnits="userSpaceOnUse" gradientTransform="translate(90.63 24.7776) scale(3.88075 3.87374)">
<stop stop-color="#E9FFF2"/>
<stop offset="0.85" stop-opacity="0"/>
</radialGradient>
<radialGradient id="paint22_radial_1401_18457" cx="0" cy="0" r="1" gradientUnits="userSpaceOnUse" gradientTransform="translate(164.571 79.6815) scale(3.96697 3.95983)">
<stop stop-color="#E9FFF2"/>
<stop offset="0.85" stop-opacity="0"/>
</radialGradient>
<radialGradient id="paint23_radial_1401_18457" cx="0" cy="0" r="1" gradientUnits="userSpaceOnUse" gradientTransform="translate(84.2828 90.3386) scale(3.98423 3.97705)">
<stop stop-color="#E9FFF2"/>
<stop offset="0.85" stop-opacity="0"/>
</radialGradient>
<radialGradient id="paint24_radial_1401_18457" cx="0" cy="0" r="1" gradientUnits="userSpaceOnUse" gradientTransform="translate(201.671 87.6872) scale(3.67376 3.66714)">
<stop stop-color="#E9FFF2"/>
<stop offset="0.85" stop-opacity="0"/>
</radialGradient>
<radialGradient id="paint25_radial_1401_18457" cx="0" cy="0" r="1" gradientUnits="userSpaceOnUse" gradientTransform="translate(178.214 17.0129) scale(3.74276 3.73602)">
<stop stop-color="#E9FFF2"/>
<stop offset="0.85" stop-opacity="0"/>
</radialGradient>
<linearGradient id="paint26_linear_1401_18457" x1="121.296" y1="198.304" x2="232.579" y2="198.304" gradientUnits="userSpaceOnUse">
<stop stop-color="#EBECFF"/>
<stop offset="1" stop-color="#009E0A"/>
</linearGradient>
</defs>
</svg>
