<svg width="608" height="366" viewBox="0 0 608 366" fill="none" xmlns="http://www.w3.org/2000/svg">
<path style="mix-blend-mode:screen" d="M273.635 366C270.305 366.002 267.034 365.129 264.149 363.469L31.8565 229.593C28.9733 227.93 26.5792 225.539 24.9148 222.661C23.2503 219.782 22.374 216.517 22.374 213.194C22.374 209.87 23.2503 206.605 24.9148 203.726C26.5792 200.848 28.9733 198.457 31.8565 196.795L297.782 44.4792C300.666 42.817 303.938 41.942 307.268 41.942C310.599 41.942 313.87 42.817 316.755 44.4792L546.943 178.494C549.806 180.162 552.181 182.55 553.832 185.419C555.482 188.289 556.351 191.54 556.351 194.849C556.351 198.158 555.482 201.41 553.832 204.279C552.181 207.149 549.806 209.537 546.943 211.205L283.122 363.469C280.237 365.129 276.965 366.002 273.635 366ZM307.234 43.6356C304.208 43.6305 301.234 44.4202 298.61 45.9254L32.7706 198.241C30.1244 199.745 27.9243 201.922 26.3939 204.549C24.8634 207.177 24.0572 210.163 24.0572 213.202C24.0572 216.242 24.8634 219.227 26.3939 221.855C27.9243 224.483 30.1244 226.66 32.7706 228.164L265.08 362.04C267.706 363.541 270.679 364.331 273.704 364.331C276.73 364.331 279.703 363.541 282.328 362.04L546.063 209.862C548.693 208.353 550.878 206.179 552.397 203.558C553.916 200.938 554.716 197.963 554.716 194.935C554.716 191.908 553.916 188.933 552.397 186.313C550.878 183.692 548.693 181.517 546.063 180.009L315.944 45.9771C313.3 44.4391 310.294 43.631 307.234 43.6356V43.6356Z" fill="url(#paint0_linear_1401_18458)"/>
<path style="mix-blend-mode:color-dodge" d="M283.674 339.865L509.429 209.621C511.773 208.257 513.719 206.303 515.07 203.954C516.422 201.605 517.133 198.944 517.133 196.235C517.133 193.527 516.422 190.865 515.07 188.516C513.719 186.168 511.773 184.214 509.429 182.849L312.477 68.1349C310.117 66.7749 307.441 66.059 304.716 66.059C301.991 66.059 299.314 66.7749 296.954 68.1349L69.3531 198.396C66.9927 199.756 65.0326 201.712 63.6697 204.068C62.3069 206.424 61.5894 209.096 61.5894 211.816C61.5894 214.537 62.3069 217.209 63.6697 219.565C65.0326 221.921 66.9927 223.877 69.3531 225.237L268.185 339.831C270.538 341.19 273.207 341.908 275.925 341.914C278.643 341.92 281.315 341.214 283.674 339.865Z" fill="url(#paint1_linear_1401_18458)"/>
<g style="mix-blend-mode:screen">
<path style="mix-blend-mode:screen" d="M447.286 87.9856C446.386 87.6948 445.407 87.769 444.561 88.1923C444.366 88.258 444.197 88.383 444.077 88.5498C443.957 88.7166 443.893 88.9167 443.893 89.1219C443.893 89.3272 443.957 89.5273 444.077 89.6941C444.197 89.8609 444.366 89.9859 444.561 90.0517C445.061 90.3056 445.613 90.438 446.174 90.438C446.734 90.438 447.287 90.3056 447.786 90.0517C448.511 89.6212 448.632 88.9842 448.149 88.4849L574.678 15.5724C575.575 15.857 576.548 15.7766 577.386 15.3486C577.583 15.2878 577.755 15.1655 577.878 14.9998C578 14.834 578.066 14.6335 578.066 14.4276C578.066 14.2216 578 14.0211 577.878 13.8553C577.755 13.6895 577.583 13.5673 577.386 13.5065C576.891 13.2471 576.341 13.1115 575.782 13.1115C575.223 13.1115 574.673 13.2471 574.178 13.5065C573.436 13.9197 573.315 14.5567 573.798 15.0732L447.286 87.9856ZM515.018 68.6341L557.999 43.8594C558.485 44.1072 559.023 44.2365 559.569 44.2365C560.115 44.2365 560.653 44.1072 561.139 43.8594C561.333 43.7937 561.503 43.6686 561.623 43.5019C561.742 43.3351 561.807 43.135 561.807 42.9297C561.807 42.7244 561.742 42.5243 561.623 42.3575C561.503 42.1908 561.333 42.0657 561.139 42C560.64 41.7541 560.091 41.6261 559.534 41.6261C558.978 41.6261 558.429 41.7541 557.93 42C557.327 42.3443 557.137 42.8264 557.344 43.274L514.138 68.1693L515.018 68.6341ZM479.85 61.5409L556.947 17.1047C557.849 17.3847 558.824 17.3108 559.672 16.8981C559.867 16.8324 560.037 16.7074 560.156 16.5406C560.276 16.3738 560.341 16.1737 560.341 15.9684C560.341 15.7631 560.276 15.5631 560.156 15.3963C560.037 15.2295 559.867 15.1045 559.672 15.0387C559.173 14.7848 558.62 14.6524 558.06 14.6524C557.499 14.6524 556.947 14.7848 556.447 15.0387C555.705 15.4692 555.585 16.1062 556.085 16.6055L481.075 59.8192V47.3027L538.975 13.9369C539.878 14.2205 540.856 14.1402 541.7 13.713C541.889 13.6437 542.052 13.5183 542.167 13.3536C542.283 13.1888 542.344 12.9928 542.344 12.792C542.344 12.5911 542.283 12.3951 542.167 12.2304C542.052 12.0656 541.889 11.9402 541.7 11.8709C541.201 11.6169 540.648 11.4845 540.088 11.4845C539.527 11.4845 538.975 11.6169 538.475 11.8709C537.733 12.2841 537.63 12.9383 538.113 13.4376L479.85 47.0101V61.5409ZM574.712 26.109L504.118 66.7747C503.221 66.4902 502.247 66.5706 501.41 66.9985C501.215 67.0643 501.046 67.1893 500.926 67.3561C500.806 67.5229 500.741 67.723 500.741 67.9283C500.741 68.1335 500.806 68.3336 500.926 68.5004C501.046 68.6672 501.215 68.7922 501.41 68.8579C501.911 69.1041 502.463 69.2321 503.022 69.2321C503.581 69.2321 504.133 69.1041 504.635 68.8579C505.359 68.4275 505.48 67.7905 504.997 67.2913L573.471 27.8135V41.0531L530.8 65.6557C530.358 65.5054 529.89 65.4463 529.425 65.4818C528.959 65.5173 528.506 65.6467 528.092 65.8623C527.897 65.928 527.728 66.053 527.608 66.2198C527.488 66.3866 527.423 66.5867 527.423 66.792C527.423 66.9972 527.488 67.1974 527.608 67.3641C527.728 67.5309 527.897 67.656 528.092 67.7217C528.591 67.9676 529.14 68.0955 529.696 68.0955C530.252 68.0955 530.801 67.9676 531.3 67.7217C532.042 67.2913 532.162 66.6542 531.679 66.1549L574.799 41.3458L574.712 26.109ZM607.328 39.2109C606.827 38.9609 606.275 38.8308 605.715 38.8308C605.155 38.8308 604.603 38.9609 604.103 39.2109C603.361 39.6413 603.258 40.2783 603.74 40.7776L535.232 80.2554H493.838L463.792 97.5753C462.972 97.3894 462.113 97.4929 461.36 97.868C461.166 97.9337 460.996 98.0588 460.876 98.2255C460.756 98.3923 460.692 98.5924 460.692 98.7977C460.692 99.003 460.756 99.2031 460.876 99.3699C460.996 99.5366 461.166 99.6617 461.36 99.7274C461.86 99.9814 462.412 100.114 462.973 100.114C463.534 100.114 464.086 99.9814 464.586 99.7274C465.396 99.2626 465.448 98.5222 464.775 98.0057L494.355 80.9612H535.75L604.603 41.363C605.047 41.5156 605.518 41.5761 605.987 41.5406C606.455 41.505 606.912 41.3743 607.328 41.1564C607.564 41.1271 607.782 41.0131 607.941 40.8356C608.099 40.658 608.188 40.429 608.19 40.1912C608.192 39.9533 608.108 39.7228 607.952 39.5425C607.797 39.3622 607.581 39.2443 607.345 39.2109H607.328ZM488.112 74.0574H531.886L567.537 53.5007C568.432 53.7906 569.405 53.7164 570.245 53.2941C570.44 53.2284 570.609 53.1033 570.729 52.9366C570.849 52.7698 570.914 52.5697 570.914 52.3644C570.914 52.1591 570.849 51.959 570.729 51.7923C570.609 51.6255 570.44 51.5004 570.245 51.4347C569.751 51.1753 569.2 51.0398 568.641 51.0398C568.082 51.0398 567.532 51.1753 567.037 51.4347C566.296 51.8651 566.175 52.5022 566.658 53.0014L531.369 73.3343H487.611L437.3 102.344C436.855 102.197 436.384 102.139 435.916 102.174C435.449 102.21 434.992 102.338 434.575 102.551C434.38 102.617 434.211 102.742 434.091 102.908C433.971 103.075 433.906 103.275 433.906 103.481C433.906 103.686 433.971 103.886 434.091 104.053C434.211 104.22 434.38 104.345 434.575 104.41C435.074 104.664 435.627 104.797 436.187 104.797C436.748 104.797 437.3 104.664 437.8 104.41C438.542 103.98 438.645 103.343 438.162 102.844L488.112 74.0574ZM437.524 85.4204C438.019 85.6798 438.569 85.8153 439.128 85.8153C439.687 85.8153 440.237 85.6798 440.732 85.4204C441.474 84.99 441.594 84.3529 441.112 83.8537L469.674 67.3945V44.9096L539.475 4.67431C539.92 4.82699 540.391 4.88742 540.859 4.8519C541.328 4.81637 541.784 4.68564 542.2 4.46772C542.395 4.402 542.565 4.27695 542.685 4.11018C542.804 3.9434 542.869 3.74331 542.869 3.53803C542.869 3.33275 542.804 3.13263 542.685 2.96586C542.565 2.79908 542.395 2.67403 542.2 2.60832C541.699 2.36216 541.147 2.23417 540.588 2.23417C540.029 2.23417 539.477 2.36216 538.975 2.60832C538.234 3.03873 538.13 3.67575 538.613 4.17504L468.449 44.6169V67.1019L440.249 83.3544C439.354 83.0645 438.381 83.1387 437.541 83.561C437.346 83.6267 437.177 83.7517 437.057 83.9185C436.937 84.0853 436.873 84.2854 436.873 84.4907C436.873 84.6959 436.937 84.8961 437.057 85.0628C437.177 85.2296 437.346 85.3547 437.541 85.4204H437.524ZM490.233 47.7676L491.113 48.2669L568.934 3.4175C569.836 3.69923 570.811 3.6253 571.66 3.21091C571.854 3.14519 572.024 3.02014 572.144 2.85337C572.264 2.68659 572.328 2.48647 572.328 2.2812C572.328 2.07592 572.264 1.87583 572.144 1.70905C572.024 1.54228 571.854 1.41723 571.66 1.35151C571.16 1.09754 570.608 0.965149 570.047 0.965149C569.486 0.965149 568.934 1.09754 568.434 1.35151C567.693 1.78193 567.589 2.41895 568.072 2.91823L490.233 47.7676Z" fill="url(#paint2_linear_1401_18458)"/>
</g>
<g style="mix-blend-mode:screen">
<path style="mix-blend-mode:screen" d="M92.9998 291.71L50.0184 316.485C49.5294 316.247 48.9927 316.124 48.4489 316.124C47.905 316.124 47.3683 316.247 46.8793 316.485C46.6845 316.551 46.5152 316.676 46.3953 316.842C46.2754 317.009 46.2109 317.209 46.2109 317.415C46.2109 317.62 46.2754 317.82 46.3953 317.987C46.5152 318.154 46.6845 318.279 46.8793 318.344C47.3788 318.598 47.9314 318.731 48.492 318.731C49.0525 318.731 49.6052 318.598 50.1046 318.344C50.6911 318 50.8808 317.518 50.6738 317.088L93.8794 292.175L92.9998 291.71ZM33.2881 334.253L103.866 293.57C104.762 293.85 105.731 293.776 106.574 293.363C106.769 293.297 106.938 293.172 107.058 293.005C107.178 292.839 107.242 292.639 107.242 292.433C107.242 292.228 107.178 292.028 107.058 291.861C106.938 291.694 106.769 291.569 106.574 291.504C106.079 291.244 105.529 291.109 104.97 291.109C104.411 291.109 103.86 291.244 103.366 291.504C102.624 291.934 102.503 292.571 103.003 293.07L34.4954 332.531V319.308L77.1836 294.706C78.0862 294.991 79.0651 294.911 79.9087 294.482C80.0976 294.413 80.2606 294.287 80.3758 294.123C80.4909 293.958 80.5527 293.762 80.5527 293.561C80.5527 293.36 80.4909 293.164 80.3758 292.999C80.2606 292.835 80.0976 292.709 79.9087 292.64C79.4092 292.386 78.8566 292.254 78.2961 292.254C77.7355 292.254 77.1829 292.386 76.6834 292.64C75.9418 293.053 75.8383 293.707 76.3212 294.207L33.2019 319.016L33.2881 334.253ZM173.426 255.951C172.926 255.697 172.374 255.565 171.813 255.565C171.253 255.565 170.7 255.697 170.201 255.951C169.476 256.364 169.356 257.019 169.838 257.518L119.82 286.304H76.1142L40.4632 306.861C39.5606 306.575 38.5817 306.656 37.738 307.085C37.5492 307.154 37.3861 307.279 37.271 307.444C37.1558 307.609 37.0941 307.805 37.0941 308.006C37.0941 308.207 37.1558 308.403 37.271 308.567C37.3861 308.732 37.5492 308.858 37.738 308.927C38.2375 309.181 38.7901 309.313 39.3507 309.313C39.9112 309.313 40.4639 309.181 40.9633 308.927C41.6878 308.514 41.8085 307.859 41.3255 307.36L76.6144 287.027H120.389L170.753 258.017C171.649 258.302 172.623 258.221 173.46 257.793C173.657 257.729 173.827 257.604 173.946 257.435C174.066 257.267 174.128 257.066 174.124 256.86C174.12 256.654 174.05 256.454 173.925 256.291C173.799 256.127 173.624 256.008 173.426 255.951V255.951ZM72.7509 280.055H114.146L144.208 262.735C145.022 262.933 145.88 262.829 146.623 262.442C146.818 262.376 146.987 262.251 147.107 262.084C147.227 261.918 147.291 261.717 147.291 261.512C147.291 261.307 147.227 261.107 147.107 260.94C146.987 260.773 146.818 260.648 146.623 260.582C146.128 260.323 145.578 260.188 145.019 260.188C144.46 260.188 143.91 260.323 143.415 260.582C142.587 261.065 142.535 261.788 143.208 262.304L113.663 279.314H72.268L3.44952 319.067C2.55379 318.787 1.58421 318.861 0.741622 319.274C0.546799 319.34 0.377526 319.465 0.257628 319.632C0.13773 319.798 0.0732422 319.998 0.0732422 320.204C0.0732422 320.409 0.13773 320.609 0.257628 320.776C0.377526 320.943 0.546799 321.068 0.741622 321.133C1.23636 321.393 1.78683 321.528 2.34566 321.528C2.90449 321.528 3.45496 321.393 3.9497 321.133C4.69135 320.703 4.81209 320.066 4.32915 319.567L72.7509 280.055ZM160.714 272.341C161.611 272.626 162.584 272.546 163.422 272.118C163.619 272.057 163.792 271.935 163.914 271.769C164.037 271.603 164.103 271.403 164.103 271.197C164.103 270.991 164.037 270.79 163.914 270.624C163.792 270.459 163.619 270.336 163.422 270.275C162.928 270.016 162.377 269.881 161.818 269.881C161.259 269.881 160.709 270.016 160.214 270.275C159.473 270.689 159.352 271.326 159.835 271.825L33.3398 344.737C32.4395 344.447 31.4607 344.521 30.6147 344.944C30.4199 345.01 30.2506 345.135 30.1307 345.302C30.0108 345.468 29.9463 345.668 29.9463 345.874C29.9463 346.079 30.0108 346.279 30.1307 346.446C30.2506 346.613 30.4199 346.738 30.6147 346.803C31.1142 347.057 31.6668 347.19 32.2274 347.19C32.7879 347.19 33.3405 347.057 33.84 346.803C34.5817 346.373 34.6852 345.736 34.2022 345.237L160.714 272.341ZM170.459 274.907C169.96 274.653 169.407 274.52 168.847 274.52C168.286 274.52 167.734 274.653 167.234 274.907C166.492 275.32 166.372 275.957 166.872 276.456L138.327 292.95V315.469L68.508 355.67C67.6123 355.389 66.6427 355.463 65.8001 355.877C65.6053 355.942 65.436 356.067 65.3161 356.234C65.1962 356.401 65.1317 356.601 65.1317 356.806C65.1317 357.012 65.1962 357.212 65.3161 357.378C65.436 357.545 65.6053 357.67 65.8001 357.736C66.2948 357.995 66.8453 358.131 67.4041 358.131C67.963 358.131 68.5134 357.995 69.0082 357.736C69.7498 357.306 69.8706 356.669 69.3876 356.169L139.551 315.727V293.242L167.751 277.007C168.654 277.291 169.632 277.211 170.477 276.783C170.665 276.714 170.828 276.589 170.944 276.424C171.059 276.259 171.121 276.063 171.121 275.862C171.121 275.661 171.059 275.465 170.944 275.301C170.828 275.136 170.665 275.01 170.477 274.941L170.459 274.907ZM128.168 298.821L51.0533 343.24C50.1564 342.955 49.1832 343.036 48.3454 343.463C48.1506 343.529 47.9813 343.654 47.8614 343.821C47.7415 343.988 47.677 344.188 47.677 344.393C47.677 344.598 47.7415 344.799 47.8614 344.965C47.9813 345.132 48.1506 345.257 48.3454 345.323C48.8442 345.569 49.3931 345.697 49.9494 345.697C50.5058 345.697 51.0546 345.569 51.5535 345.323C52.2951 344.892 52.4158 344.255 51.9329 343.756L126.926 300.525V313.042L68.9909 346.459C68.549 346.309 68.0812 346.25 67.6157 346.285C67.1503 346.321 66.6969 346.45 66.283 346.666C66.0882 346.731 65.9189 346.856 65.799 347.023C65.6791 347.19 65.6146 347.39 65.6146 347.595C65.6146 347.801 65.6791 348.001 65.799 348.168C65.9189 348.334 66.0882 348.459 66.283 348.525C66.7818 348.771 67.3307 348.899 67.8871 348.899C68.4434 348.899 68.9923 348.771 69.4911 348.525C70.2328 348.095 70.3535 347.458 69.8705 346.958L128.133 313.386L128.168 298.821ZM117.819 312.594L116.94 312.095L39.0488 356.927C38.1519 356.642 37.1788 356.723 36.341 357.151C36.1438 357.211 35.9714 357.334 35.849 357.5C35.7265 357.665 35.6604 357.866 35.6604 358.072C35.6604 358.278 35.7265 358.478 35.849 358.644C35.9714 358.81 36.1438 358.932 36.341 358.993C36.8357 359.252 37.3862 359.388 37.945 359.388C38.5038 359.388 39.0543 359.252 39.549 358.993C40.2907 358.58 40.4114 357.925 39.9285 357.426L117.819 312.594Z" fill="url(#paint3_linear_1401_18458)"/>
</g>
<path style="mix-blend-mode:color-dodge" d="M441.06 298.356C439.168 297.397 437.076 296.897 434.954 296.897C432.832 296.897 430.74 297.397 428.848 298.356C425.399 300.301 425.399 303.521 428.848 305.397C430.74 306.356 432.832 306.856 434.954 306.856C437.076 306.856 439.168 306.356 441.06 305.397C444.423 303.417 444.423 300.301 441.06 298.356ZM412.98 314.539C411.088 313.581 408.997 313.081 406.875 313.081C404.753 313.081 402.661 313.581 400.769 314.539C397.319 316.485 397.319 319.704 400.769 321.581C402.663 322.532 404.754 323.027 406.875 323.027C408.995 323.027 411.086 322.532 412.98 321.581C416.344 319.636 416.344 316.485 412.98 314.539ZM384.901 330.723C383.009 329.764 380.917 329.265 378.795 329.265C376.674 329.265 374.582 329.764 372.69 330.723C369.24 332.651 369.24 335.888 372.69 337.747C374.582 338.706 376.674 339.206 378.795 339.206C380.917 339.206 383.009 338.706 384.901 337.747C388.264 335.819 388.264 332.686 384.901 330.723V330.723ZM356.822 346.889C354.927 345.939 352.836 345.443 350.716 345.443C348.596 345.443 346.505 345.939 344.61 346.889C341.161 348.835 341.161 352.054 344.61 353.931C346.502 354.89 348.594 355.39 350.716 355.39C352.838 355.39 354.93 354.89 356.822 353.931C360.202 351.986 360.202 348.835 356.822 346.889V346.889ZM553.446 233.621C551.551 232.662 549.456 232.163 547.332 232.163C545.207 232.163 543.112 232.662 541.217 233.621C537.854 235.567 537.854 238.786 541.217 240.663C543.112 241.622 545.207 242.121 547.332 242.121C549.456 242.121 551.551 241.622 553.446 240.663C556.74 238.717 556.74 235.567 553.377 233.621H553.446ZM525.367 249.805C523.475 248.846 521.383 248.346 519.261 248.346C517.139 248.346 515.047 248.846 513.155 249.805C509.706 251.75 509.706 254.97 513.155 256.846C515.047 257.805 517.139 258.305 519.261 258.305C521.383 258.305 523.475 257.805 525.367 256.846C528.661 254.901 528.661 251.768 525.298 249.805H525.367ZM497.287 265.988C495.395 265.03 493.303 264.53 491.182 264.53C489.06 264.53 486.968 265.03 485.076 265.988C481.626 267.934 481.626 271.153 485.076 273.03C486.968 273.989 489.06 274.489 491.182 274.489C493.303 274.489 495.395 273.989 497.287 273.03C500.582 271.085 500.582 267.934 497.218 265.988H497.287ZM469.139 282.172C467.247 281.213 465.155 280.714 463.033 280.714C460.911 280.714 458.82 281.213 456.928 282.172C453.478 284.118 453.478 287.337 456.928 289.214C458.82 290.173 460.911 290.672 463.033 290.672C465.155 290.672 467.247 290.173 469.139 289.214C472.589 287.268 472.589 284.118 469.139 282.172Z" fill="url(#paint4_linear_1401_18458)"/>
<defs>
<linearGradient id="paint0_linear_1401_18458" x1="617.055" y1="180.68" x2="-525.224" y2="262.511" gradientUnits="userSpaceOnUse">
<stop stop-color="#CEFF6B"/>
<stop offset="0.11" stop-color="#B5E05E" stop-opacity="0.88"/>
<stop offset="0.56" stop-color="#556B2C" stop-opacity="0.41"/>
<stop offset="0.86" stop-color="#19210C" stop-opacity="0.12"/>
<stop offset="1" stop-color="#010400" stop-opacity="0"/>
</linearGradient>
<linearGradient id="paint1_linear_1401_18458" x1="496.045" y1="318.551" x2="1.35573" y2="42.1358" gradientUnits="userSpaceOnUse">
<stop stop-color="#CEFF6B"/>
<stop offset="0.11" stop-color="#B5E05E" stop-opacity="0.88"/>
<stop offset="0.56" stop-color="#556B2C" stop-opacity="0.41"/>
<stop offset="0.86" stop-color="#19210C" stop-opacity="0.12"/>
<stop offset="1" stop-color="#010400" stop-opacity="0"/>
</linearGradient>
<linearGradient id="paint2_linear_1401_18458" x1="448.528" y1="91.6011" x2="611.844" y2="-0.139522" gradientUnits="userSpaceOnUse">
<stop stop-color="#CEFF6B"/>
<stop offset="0.11" stop-color="#B5E05E" stop-opacity="0.88"/>
<stop offset="0.56" stop-color="#556B2C" stop-opacity="0.41"/>
<stop offset="0.86" stop-color="#19210C" stop-opacity="0.12"/>
<stop offset="1" stop-color="#010400" stop-opacity="0"/>
</linearGradient>
<linearGradient id="paint3_linear_1401_18458" x1="189.656" y1="247.463" x2="-7.21588" y2="363.659" gradientUnits="userSpaceOnUse">
<stop stop-color="#CEFF6B"/>
<stop offset="0.11" stop-color="#B5E05E" stop-opacity="0.88"/>
<stop offset="0.56" stop-color="#556B2C" stop-opacity="0.41"/>
<stop offset="0.86" stop-color="#19210C" stop-opacity="0.12"/>
<stop offset="1" stop-color="#010400" stop-opacity="0"/>
</linearGradient>
<linearGradient id="paint4_linear_1401_18458" x1="577.938" y1="222.172" x2="191.401" y2="437.594" gradientUnits="userSpaceOnUse">
<stop stop-color="#CEFF6B"/>
<stop offset="0.11" stop-color="#B5E05E" stop-opacity="0.88"/>
<stop offset="0.56" stop-color="#556B2C" stop-opacity="0.41"/>
<stop offset="0.86" stop-color="#19210C" stop-opacity="0.12"/>
<stop offset="1" stop-color="#010400" stop-opacity="0"/>
</linearGradient>
</defs>
</svg>
