<svg width="132" height="125" viewBox="0 0 132 125" fill="none" xmlns="http://www.w3.org/2000/svg">
<g clip-path="url(#clip0_1360_18614)">
<path d="M16.0813 0.600548C10.5538 6.27512 6.28588 11.9007 0.72168 17.5385V124.412H88.4526V0.600548H16.0813Z" fill="#667D9A"/>
<path d="M88.4523 125.012H0.721292C0.564465 125.012 0.413875 124.951 0.301844 124.841C0.189813 124.731 0.125271 124.581 0.12207 124.424V17.5385C0.130951 17.3951 0.191846 17.26 0.293277 17.1585C3.15487 14.2293 5.72296 11.2756 8.19322 8.41994C10.6635 5.56427 12.9625 2.94147 15.6529 0.183842C15.7075 0.124967 15.7738 0.0781953 15.8475 0.0465335C15.9212 0.0148717 16.0007 -0.000978938 16.0809 8.41817e-07H88.4523C88.6112 8.41817e-07 88.7636 0.0632728 88.876 0.175898C88.9883 0.288522 89.0515 0.441274 89.0515 0.60055V124.387C89.0548 124.468 89.0417 124.549 89.0131 124.625C88.9845 124.7 88.9408 124.769 88.8848 124.828C88.8289 124.886 88.7617 124.933 88.6874 124.964C88.613 124.996 88.5331 125.012 88.4523 125.012ZM1.30828 123.787H87.853V1.22561H16.3377C13.733 3.89744 11.4461 6.60604 9.09817 9.2411C6.7502 11.8762 4.13319 14.9524 1.30828 17.8204V123.787Z" fill="#1F2937"/>
<path d="M0.72168 17.5385C8.63385 17.6978 14.8707 18.2003 19.0652 18.2861C18.7717 12.7096 17.1208 6.12805 16.0813 0.600548C15.6411 1.51976 5.45431 11.9497 0.72168 17.5385Z" fill="#667D9A"/>
<path d="M19.0894 18.8867C17.304 18.8867 15.1517 18.7396 12.6692 18.6048C9.20838 18.4332 5.33179 18.2248 0.721448 18.139C0.607999 18.1392 0.496846 18.107 0.400915 18.0463C0.304984 17.9856 0.228217 17.8989 0.179541 17.7962C0.130864 17.6935 0.112279 17.579 0.125947 17.4661C0.139614 17.3533 0.184972 17.2466 0.256746 17.1585C2.70255 14.2661 6.70144 10.001 9.90544 6.56927C12.5591 3.67683 15.2984 0.772135 15.5552 0.330915C15.6123 0.217927 15.703 0.125443 15.8146 0.0661844C15.9263 0.00692604 16.0536 -0.0161955 16.1789 2.7474e-08C16.2984 0.0177852 16.4094 0.072048 16.4969 0.155392C16.5845 0.238736 16.6442 0.347107 16.6681 0.465732C16.9371 1.92421 17.2551 3.43171 17.5853 5.03726C18.59 9.38732 19.2928 13.8019 19.6887 18.2493C19.694 18.3318 19.6827 18.4144 19.6554 18.4923C19.6281 18.5703 19.5853 18.6419 19.5297 18.7028C19.4116 18.8179 19.2542 18.8837 19.0894 18.8867ZM1.96881 16.9747C6.01661 17.0728 9.53857 17.2566 12.6937 17.4159C14.8704 17.5262 16.7904 17.6243 18.4291 17.6733C18.0132 13.5132 17.3393 9.38306 16.4113 5.30689C16.1789 4.15482 15.9466 3.05177 15.7387 1.98549C14.8704 2.97823 13.2929 4.65732 10.7737 7.37817C7.92434 10.4299 4.43907 14.1558 1.99327 16.9747H1.96881Z" fill="#1F2937"/>
<g opacity="0.13">
<path d="M18.9547 18.9234C17.4872 18.3229 14.1365 18.7028 11.4583 18.4699C9.11037 18.3842 6.7624 18.3842 4.41443 18.2861C3.23603 18.2015 2.05217 18.2344 0.880246 18.3842C0.572916 18.5326 0.32291 18.7783 0.168845 19.0834C0.0147813 19.3885 -0.0347675 19.7359 0.0278529 20.072C0.0904733 20.4081 0.261778 20.7142 0.515306 20.943C0.768834 21.1718 1.09048 21.3106 1.43055 21.3379C6.73795 21.4523 12.0372 21.5912 17.3283 21.7546H17.5484C17.9421 21.9055 18.3776 21.9055 18.7713 21.7546C19.0367 21.635 19.2646 21.4451 19.4305 21.2055C19.5964 20.9658 19.694 20.6854 19.7129 20.3943C19.7318 20.1032 19.6712 19.8125 19.5376 19.5534C19.404 19.2942 19.2025 19.0764 18.9547 18.9234Z" fill="#1F2937"/>
</g>
<path d="M98.0278 74.1372L113.571 90.352C116.236 93.2424 119.061 95.9798 122.033 98.5513C123.635 99.8872 125.433 101.15 127.39 101.15C128.455 101.115 129.466 100.67 130.213 99.9081C130.96 99.1458 131.386 98.1244 131.401 97.0561C131.21 95.3086 130.388 93.6915 129.09 92.5091C120.839 83.2843 112.23 74.5498 103.262 66.3055C101.623 68.8548 99.9722 71.4041 98.0278 74.1372Z" fill="#667D9A"/>
<path d="M127.39 101.726C125.237 101.726 123.354 100.402 121.654 98.9803C118.647 96.4007 115.788 93.6508 113.094 90.7442L97.5998 74.5539C97.5078 74.4488 97.457 74.3138 97.457 74.1739C97.457 74.0341 97.5078 73.8991 97.5998 73.794C99.483 71.0854 101.146 68.4871 102.724 65.9869C102.771 65.9134 102.834 65.8512 102.908 65.8046C102.982 65.758 103.065 65.7282 103.152 65.7172C103.237 65.7042 103.324 65.7107 103.407 65.7362C103.49 65.7617 103.565 65.8054 103.629 65.8643C112.556 74.0759 121.263 82.9003 129.493 92.1046C130.878 93.3847 131.748 95.1285 131.939 97.0071C131.942 97.6186 131.822 98.2246 131.587 98.7889C131.352 99.3532 131.006 99.8643 130.569 100.292C129.734 101.163 128.594 101.677 127.39 101.726ZM98.7982 74.0882L113.999 89.9475C116.649 92.8047 119.458 95.5095 122.412 98.0488C123.953 99.2744 125.616 100.5 127.39 100.5C128.313 100.481 129.192 100.098 129.835 99.4338C130.16 99.1144 130.417 98.7328 130.592 98.3117C130.766 97.8905 130.854 97.4385 130.85 96.9825C130.664 95.3776 129.894 93.8981 128.686 92.8277C120.639 83.8318 112.152 75.2035 103.433 67.1512C101.953 69.4308 100.486 71.6982 98.7982 74.0882Z" fill="#1F2937"/>
<path d="M77.8008 14.3764C59.9586 14.3764 45.4917 29.7211 45.4917 48.6935C45.4917 67.6659 59.9586 83.0106 77.8008 83.0106C95.6429 83.0106 110.122 67.5556 110.122 48.6445C110.122 29.7333 95.6551 14.3764 77.8008 14.3764ZM77.8008 74.6642C64.251 74.6642 53.2694 63.0086 53.2694 48.6445C53.2694 34.2803 64.2755 22.6125 77.8008 22.6125C91.326 22.6125 102.344 34.3171 102.344 48.6445C102.344 62.9719 91.3627 74.6642 77.8008 74.6642ZM77.8008 74.6642C64.251 74.6642 53.2694 63.0086 53.2694 48.6445C53.2694 34.2803 64.2755 22.6125 77.8008 22.6125C91.326 22.6125 102.344 34.3171 102.344 48.6445C102.344 62.9719 91.3627 74.6642 77.8008 74.6642Z" fill="#667D9A"/>
<path d="M77.8008 83.5008C59.6652 83.5008 44.9048 67.862 44.9048 48.6445C44.9048 29.4269 59.6652 13.7759 77.8008 13.7759C95.9365 13.7759 110.709 29.4146 110.709 48.6445C110.709 67.8743 95.9487 83.5008 77.8008 83.5008ZM77.8008 14.977C60.3256 14.977 46.091 30.0765 46.091 48.6445C46.091 67.2125 60.3256 82.2997 77.8008 82.2997C95.2761 82.2997 109.523 67.2002 109.523 48.6445C109.523 30.0887 95.2883 14.977 77.8008 14.977ZM77.8008 75.2525C63.9454 75.2525 52.6702 63.315 52.6702 48.6445C52.6702 33.9739 63.9454 22.061 77.8008 22.061C91.6563 22.061 102.944 33.9984 102.944 48.6812C102.944 63.3641 91.7175 75.2525 77.8008 75.2525ZM53.8687 48.6445C53.8687 62.6532 64.6057 74.0636 77.8008 74.0636C90.9959 74.0636 101.745 62.6532 101.745 48.6445C101.745 34.6357 91.0082 23.2131 77.8008 23.2131C64.5935 23.2131 53.8687 34.6235 53.8687 48.6445Z" fill="#1F2937"/>
<g opacity="0.13">
<path d="M100.669 56.9296C99.9693 57.7973 99.3396 58.7194 98.7858 59.6872C97.9411 60.7957 97.0347 61.8555 96.0709 62.8616C95.2516 63.6214 94.4812 64.2955 93.6251 64.9328C93.4763 64.9675 93.3353 65.0299 93.2094 65.1167C89.6714 67.9203 85.4488 69.7231 80.9803 70.3378C78.0034 71.0397 74.9 70.9976 71.9431 70.2152C69.4582 69.6005 67.1456 68.4269 65.1804 66.7835C63.1057 65.111 61.2194 63.2164 59.5551 61.1334C58.2449 59.1707 57.235 57.0225 56.559 54.7603C56.1554 53.6082 55.8497 52.4316 55.544 51.255C55.1241 50.1222 54.9168 48.9214 54.9325 47.713C54.6268 46.8306 54.3578 45.9481 54.1132 45.0534C53.8779 44.938 53.6163 44.8873 53.355 44.9064C52.9331 48.4317 52.9331 51.9949 53.355 55.5201C53.9933 59.0458 55.4979 62.3566 57.733 65.1534C59.1364 66.7627 60.7111 68.2134 62.4289 69.4799C64.5979 71.244 67.0335 72.6507 69.644 73.6469C71.0895 74.0438 72.5666 74.3145 74.0587 74.4558C75.6725 74.7535 77.3226 74.799 78.9503 74.5906C80.1969 74.4182 81.425 74.131 82.619 73.7327C85.2022 73.1226 87.6969 72.1835 90.042 70.9383C90.6336 70.5599 91.2051 70.1509 91.7541 69.7127C94.4637 67.9284 96.9302 65.7984 99.0915 63.3763C99.4828 62.5061 99.8619 61.6482 100.217 60.7658L101.55 56.8316C101.254 56.7528 100.94 56.7878 100.669 56.9296Z" fill="#1F2937"/>
</g>
<path d="M101.953 77.6792C101.91 77.6841 101.866 77.6745 101.829 77.6518C101.792 77.6291 101.763 77.5947 101.748 77.5539C101.733 77.5131 101.731 77.4684 101.744 77.4267C101.757 77.385 101.783 77.3488 101.819 77.3238C104.126 75.4892 106.022 73.1883 107.383 70.5706C107.407 70.5235 107.449 70.488 107.5 70.4719C107.55 70.4558 107.605 70.4605 107.652 70.4849C107.699 70.5092 107.734 70.5513 107.751 70.6019C107.767 70.6525 107.762 70.7074 107.738 70.7545C106.351 73.4181 104.422 75.7605 102.076 77.6302C102.059 77.646 102.04 77.6585 102.019 77.6669C101.998 77.6753 101.976 77.6795 101.953 77.6792Z" fill="#1F2937"/>
<path d="M57.3053 50.5197C57.2535 50.5197 57.2037 50.499 57.167 50.4622C57.1303 50.4255 57.1097 50.3756 57.1097 50.3236C56.827 45.7888 57.6672 41.2544 59.5555 37.1237C59.5793 37.076 59.6204 37.0392 59.6705 37.0209C59.7205 37.0027 59.7757 37.0044 59.8245 37.0257C59.8702 37.0516 59.9052 37.093 59.9231 37.1424C59.9411 37.1918 59.9408 37.2461 59.9224 37.2953C58.0524 41.345 57.2122 45.7956 57.4766 50.25C57.48 50.3034 57.463 50.356 57.4288 50.3971C57.3947 50.4381 57.3461 50.4645 57.2931 50.4706L57.3053 50.5197Z" fill="#1F2937"/>
<path d="M61.3894 34.5622C61.3493 34.5721 61.3073 34.5721 61.2671 34.5622C61.2483 34.5439 61.2333 34.522 61.223 34.4978C61.2128 34.4736 61.2075 34.4476 61.2075 34.4213C61.2075 34.395 61.2128 34.3689 61.223 34.3447C61.2333 34.3205 61.2483 34.2986 61.2671 34.2803C62.112 33.2378 63.01 32.2396 63.9575 31.2898C63.9758 31.2709 63.9976 31.2559 64.0218 31.2456C64.0459 31.2354 64.0719 31.2301 64.0982 31.2301C64.1244 31.2301 64.1504 31.2354 64.1745 31.2456C64.1987 31.2559 64.2205 31.2709 64.2388 31.2898C64.2594 31.3071 64.2759 31.3287 64.2872 31.353C64.2986 31.3774 64.3045 31.4039 64.3045 31.4308C64.3045 31.4577 64.2986 31.4842 64.2872 31.5086C64.2759 31.5329 64.2594 31.5545 64.2388 31.5717C63.2995 32.5092 62.4097 33.4951 61.5729 34.5254C61.519 34.5616 61.453 34.5748 61.3894 34.5622Z" fill="#1F2937"/>
<path d="M94.5794 61.6359C94.5393 61.6469 94.4971 61.6469 94.4571 61.6359C94.4382 61.6177 94.4232 61.5958 94.413 61.5715C94.4027 61.5473 94.3975 61.5213 94.3975 61.495C94.3975 61.4687 94.4027 61.4427 94.413 61.4185C94.4232 61.3942 94.4382 61.3723 94.4571 61.3541C96.7607 58.332 98.1031 54.6848 98.3092 50.8873C98.3123 50.8342 98.3356 50.7843 98.3743 50.7479C98.4129 50.7114 98.464 50.6912 98.5171 50.6912C98.544 50.6927 98.5702 50.6997 98.5942 50.7118C98.6183 50.7239 98.6396 50.7408 98.6568 50.7615C98.674 50.7822 98.6868 50.8062 98.6943 50.8321C98.7018 50.858 98.704 50.8851 98.7005 50.9119C98.4952 54.7911 97.1224 58.5171 94.7628 61.5992C94.7377 61.6202 94.7078 61.6345 94.6758 61.641C94.6437 61.6474 94.6106 61.6457 94.5794 61.6359Z" fill="#1F2937"/>
</g>
<defs>
<clipPath id="clip0_1360_18614">
<rect width="132" height="125" fill="white"/>
</clipPath>
</defs>
</svg>
