<svg width="289" height="187" viewBox="0 0 289 187" fill="none" xmlns="http://www.w3.org/2000/svg">
<path d="M0 10C0 4.47715 4.47715 0 10 0H279C284.523 0 289 4.47715 289 10V187H0V10Z" fill="#111827"/>
<path d="M83.8103 56.7388L71.4371 69.2813L85.7751 77.6136L84.7539 78.7004L76.0936 73.5523L67.7125 81.0718L81.2229 90.2079L84.5473 90.3725L80.522 96.1889L78.7459 89.682L63.5001 88.6186L39.5566 130.167L61.1072 133.092L69.1038 114.74L75.4987 123.624L85.6247 115.604L87.872 118.937L81.6415 126.577L89.2468 128.624L88.5653 134.604L110.438 132.307L107.961 123.021L118.59 124.944L118.772 135.313L143.056 134.651L142.514 132.953L155.825 132.329V124.2L166.656 135.576L181.615 130.647L181.782 135.543L204.997 133.219L202.553 122.331L219.434 136.031L245.089 129.587L248 104.917L234.255 91.4944L220.993 89.5882L228.393 86.0699L217.591 77.7852L221.727 73.0095L219.388 62.781L210.405 57.2019L189.895 58.4452L190.027 61.2773L167.789 59.2984L166.408 64.8227L154.881 58.339L137.005 58.2377L136.265 76.3261L135.861 62.8108L122.842 63.2059V76.5265L119.988 77.5644L122.202 59.5806H105.454L105.286 63.4885L97.3502 57.4359L83.8103 56.7388ZM190.278 63.5288L191.986 84.3907L189.737 78.2383L187.618 78.6865L188.409 70.8813L190.278 63.5288ZM105.168 66.9605L104.784 76.3242L91.5535 68.7136L92.4194 67.8438L101.435 72.8973L105.168 66.9605ZM205.027 68.5185L207.731 69.5402L206.184 71.6579L205.327 71.5122L205.027 68.5185ZM150.568 69.2412L153.563 70.4756L151.594 72.8987L150.511 72.846L150.568 69.2412ZM163.352 79.205L167.994 91.2826L166.005 90.0471L150.511 90.4285L150.515 84.3743L156.996 84.6424L163.352 79.205ZM104.556 80.7826L104.47 82.3649L112.017 89.838L102.229 101.776L99.1679 90.5186L98.1859 90.453L104.556 80.7826ZM135.966 82.3156L135.679 91.0342L140.352 91.0209L138.383 119.979L128.904 90.6304L119.374 89.5558L129.096 89.1308L135.966 82.3156ZM207.145 85.2593L213.759 91.327L201.855 99.0307L200.084 112.025L195.468 92.032L207.911 91.2361L207.145 85.2593ZM180.839 90.7995L181.048 99.5752L168.657 91.6955L180.839 90.7995ZM181.017 100.433L181.514 124.494L172.202 117.331L177.212 114.697L181.017 100.433ZM155.777 102.594L161.377 104.797L157.62 108.324L155.612 107.776L155.777 102.594ZM115.457 107.261L118.384 107.887L118.402 110.643L113.666 109.739L115.457 107.261ZM222.625 107.378L227.573 108.569L227.84 113.388L223.121 114.85L219.775 111.635L222.625 107.378Z" fill="#8697B1"/>
<path d="M82.2537 54L69.8804 66.5425L84.2184 74.8748L83.1972 75.9616L74.5369 70.8135L66.1559 78.3331L79.6662 87.4692L82.9907 87.6337L78.9654 93.4502L77.1893 86.9432L61.9435 85.8798L38 127.429L59.5506 130.354L67.5472 112.002L73.9421 120.886L84.0681 112.865L86.3153 116.198L80.0849 123.838L87.6902 125.885L87.0087 131.865L108.882 129.568L106.405 120.283L117.034 122.205L117.215 132.574L141.5 131.912L140.957 130.215L154.268 129.59V121.461L165.099 132.837L180.058 127.909L180.225 132.804L203.441 130.48L200.996 119.593L217.878 133.292L243.533 126.848L246.444 102.179L232.698 88.7556L219.436 86.8494L226.837 83.3312L216.035 75.0464L220.171 70.2707L217.831 60.0422L208.848 54.4631L188.339 55.7064L188.471 58.5385L166.233 56.5596L164.851 62.0839L153.324 55.6002L135.448 55.4989L134.708 73.5873L134.305 60.0721L121.286 60.4671V73.7877L118.432 74.8256L120.645 56.8418H103.897L103.729 60.7497L95.7936 54.6972L82.2537 54ZM188.721 60.79L190.429 81.6519L188.18 75.4996L186.062 75.9477L186.852 68.1425L188.721 60.79ZM103.611 64.2217L103.228 73.5854L89.9969 65.9748L90.8628 65.105L99.8781 70.1585L103.611 64.2217ZM203.47 65.7798L206.175 66.8015L204.628 68.9191L203.77 68.7735L203.47 65.7798ZM149.011 66.5025L152.007 67.7368L150.037 70.1599L148.955 70.1072L149.011 66.5025ZM161.795 76.4663L166.437 88.5438L164.448 87.3084L148.954 87.6897L148.959 81.6355L155.439 81.9036L161.795 76.4663ZM102.999 78.0438L102.913 79.6262L110.46 87.0992L100.672 99.0375L97.6112 87.7798L96.6293 87.7142L102.999 78.0438ZM134.41 79.5768L134.122 88.2954L138.795 88.2821L136.826 117.24L127.348 87.8916L117.817 86.817L127.54 86.3921L134.41 79.5768ZM205.588 82.5205L212.202 88.5882L200.299 96.292L198.527 109.286L193.911 89.2932L206.355 88.4973L205.588 82.5205ZM179.282 88.0607L179.492 96.8364L167.1 88.9567L179.282 88.0607ZM179.46 97.6942L179.958 121.755L170.645 114.592L175.655 111.958L179.46 97.6942ZM154.221 99.8548L159.821 102.058L156.063 105.585L154.056 105.037L154.221 99.8548ZM113.901 104.522L116.827 105.148L116.846 107.905L112.109 107L113.901 104.522ZM221.069 104.639L226.017 105.83L226.283 110.649L221.564 112.112L218.219 108.897L221.069 104.639Z" fill="black"/>
<path d="M83.3595 56.8716L94.7884 57.4596L101.388 62.4928L98.9269 66.4069L90.3792 61.6153L85.4298 66.5872L101.211 75.6646L94.7953 85.4043L80.5818 84.7007L70.7041 78.0207L74.8738 74.28L83.6968 79.5248L88.6797 74.2211L74.4194 65.9342L83.3595 56.8716Z" fill="#EF3924"/>
<path d="M168.365 59.5713L185.751 61.1186L184.628 65.5321L175.549 66.1079L174.784 70.2609L183.804 70.4688L183.369 74.7689L174.369 74.9452L176.739 80.7936L186.388 78.7511L188.512 84.5636L168.473 86.038L164.398 75.4351L168.365 59.5713Z" fill="#00ADE7"/>
<path d="M106.598 59.6523H117.48L115.095 79.0282L124.083 75.7594V63.1938L131.591 62.9656L132.04 77.9771L126.341 83.6308L117.695 84.0087L111.594 84.2753L105.776 78.5136L106.598 59.6523Z" fill="#00ADE7"/>
<path d="M200.235 61.555L201.2 71.1876L205.862 71.9796L210.614 65.4754L200.235 61.555ZM208.131 57.3228L215.365 61.8156L217.125 69.5057L211.966 75.4626L221.487 82.7645L213.924 86.3609L201.838 75.2736L203.198 85.8835L193.647 86.4939L191.262 58.3453L208.131 57.3228Z" fill="#3AB54A"/>
<path d="M146.279 62.3387L146.114 72.7829L151.311 73.0362L156.563 66.5766L146.279 62.3387ZM138.133 58.3252L152.587 58.4067L162.604 64.041L161.788 72.7339L154.459 79.0508L146.163 78.7072L146.158 85.4509L137.015 85.4764L138.133 58.3252Z" fill="#FFD401"/>
<path d="M216.352 89.2456L202.896 97.9553L200.494 115.572L218.551 130.227L240.981 124.592L243.502 103.227L231.401 91.4085L216.352 89.2456ZM219.831 101.451L228.694 103.584L229.198 112.688L220.817 115.285L214.582 109.292L219.831 101.451Z" fill="#3AB54A"/>
<path d="M191.07 89.4175L200.016 127.999L182.919 129.711L182.106 89.7924L191.07 89.4175Z" fill="#EF3924"/>
<path d="M151.552 95.7858L151.188 107.168L156.834 108.708L164.975 101.068L151.552 95.7858ZM163.685 90.1387L176.425 98.213L173.27 110.04L165.461 114.145L179.674 125.078L165.903 129.615L151.47 114.456V126.908L138.933 127.496L141.436 90.6873L163.685 90.1387Z" fill="#FFD401"/>
<path d="M63.4904 88.8052L42.5146 125.205L57.8338 127.284L66.9464 106.37L74.5002 116.865L84.6981 108.787L91.3329 118.628L90.1853 128.706L105.33 127.115L95.4369 90.451L84.9331 89.7505L77.8486 99.9874L75.0156 89.609L63.4904 88.8052Z" fill="#00ADE7"/>
<path d="M88.0487 118.855L85.4751 121.994L88.0421 122.813L88.4507 119.349L88.0487 118.855ZM112.705 101.393L119.611 102.869L119.667 111.304L107.253 108.935L112.705 101.393ZM112.491 89.0444L101.486 102.467L105.486 117.261L119.791 119.848L119.963 129.688L137.697 129.205L137.177 127.578L134.164 118.108L125.243 90.4826L112.491 89.0444Z" fill="#3AB54A"/>
</svg>
