<svg width="17" height="18" viewBox="0 0 17 18" fill="none" xmlns="http://www.w3.org/2000/svg">
    <rect y="0.5625" width="16.0741" height="16.625" rx="8.03704" fill="#AAFF00" />
    <g clip-path="url(#clip0_2736_26162)">
        <path
            d="M13.037 4.51953C13.0128 4.71562 12.9927 4.9125 12.9633 5.10781C12.8274 6.00859 12.5162 6.84896 12.0756 7.64219C11.6651 8.38125 11.1545 9.04323 10.5287 9.61302C10.4709 9.66562 10.4703 9.72318 10.4672 9.78776C10.3987 11.1221 9.90472 12.2734 8.98103 13.2372C8.93311 13.2872 8.85889 13.3273 8.79092 13.3398C8.68259 13.3599 8.59118 13.2638 8.57347 13.1383C8.50004 12.6234 8.42634 12.1083 8.34951 11.5695C8.28233 11.6292 8.22608 11.6792 8.17009 11.7292C8.03024 11.8536 7.93441 11.851 7.80056 11.7169C6.93675 10.8518 6.07295 9.9862 5.20941 9.12057C5.07608 8.98698 5.07425 8.89167 5.20004 8.75078C5.24899 8.69583 5.29743 8.64089 5.35811 8.5724C5.10498 8.53542 4.87217 8.50104 4.6391 8.46771C4.35316 8.42682 4.06748 8.38646 3.78129 8.34661C3.69014 8.33385 3.61957 8.29167 3.5904 8.20234C3.56019 8.10964 3.59274 8.03307 3.66201 7.9651C4.26905 7.36953 4.97712 6.94297 5.78701 6.68672C6.23832 6.54401 6.7003 6.46328 7.17373 6.44635C7.21905 6.44479 7.2753 6.41979 7.30629 6.38646C8.36853 5.24635 9.65681 4.48568 11.1586 4.0849C11.5451 3.98177 11.9386 3.91641 12.3383 3.89089C12.3636 3.88932 12.3883 3.88047 12.4133 3.875C12.5693 3.875 12.7253 3.875 12.881 3.875C12.9331 3.92708 12.9849 3.97917 13.037 4.03125V4.51953ZM10.1808 5.69401C9.60863 5.69401 9.1391 6.16562 9.14092 6.73854C9.14248 7.30807 9.60759 7.775 10.1761 7.77839C10.7472 7.78177 11.2196 7.31172 11.2211 6.73854C11.2227 6.16589 10.7529 5.69401 10.1808 5.69401Z"
            fill="#111827" />
        <path
            d="M3.21274 13.875C3.05987 13.788 3.02888 13.719 3.08045 13.5565C3.31873 12.8044 3.56092 12.0539 3.91039 11.3435C4.07263 11.0133 4.29607 10.7534 4.65024 10.6224C5.20883 10.4159 5.83982 10.6198 6.16873 11.1164C6.49946 11.6154 6.44269 12.2854 6.02862 12.7169C5.84946 12.9034 5.61612 13.0078 5.3867 13.1143C4.7531 13.4083 4.0906 13.6245 3.42654 13.8362C3.39347 13.8466 3.36196 13.8622 3.32967 13.8753H3.21274V13.875Z"
            fill="#111827" />
        <path d="M13.0371 4.03125C12.985 3.97917 12.9332 3.92708 12.8811 3.875H13.0371V4.03125Z" fill="#FDFDFD" />
    </g>
    <defs>
        <clipPath id="clip0_2736_26162">
            <rect width="10" height="10" fill="white" transform="translate(3.03711 3.875)" />
        </clipPath>
    </defs>
</svg>