<svg width="59" height="59" viewBox="0 0 59 59" fill="none" xmlns="http://www.w3.org/2000/svg">
    <g clip-path="url(#clip0_2732_26149)">
        <path d="M58.9892 27.2584V31.857C58.7357 32.1213 58.9693 32.5023 58.7664 32.7789C58.4668 32.7451 58.3178 32.5008 58.1334 32.3149C53.2552 27.452 48.3815 22.5845 43.5048 17.7216C43.3312 17.548 43.1868 17.3329 42.9286 17.2637C41.8716 15.6628 40.3366 15.4999 38.983 16.8489C36.01 19.8127 33.0308 22.7735 30.0762 25.7557C29.7243 26.1107 29.5661 26.0646 29.248 25.7373C27.9789 24.4313 26.6775 23.1561 25.3884 21.87C23.6645 20.1507 21.9452 18.4268 20.2152 16.7122C19.4423 15.947 18.4759 15.7534 17.5786 16.1529C16.0514 16.832 15.741 18.7387 16.9748 19.9756C19.9955 23.0024 23.0192 26.0231 26.0599 29.0299C26.3733 29.3403 26.3441 29.4801 26.0491 29.7705C23.0515 32.7389 20.0692 35.7212 17.0854 38.7035C15.6795 40.1093 15.9623 41.8425 17.7353 42.7229C17.7584 43.0471 18.0165 43.2115 18.2147 43.4112C23.1175 48.3079 28.0219 53.2015 32.9248 58.0982C33.1122 58.2856 33.3381 58.4439 33.4364 58.7082C32.9017 58.8618 32.324 58.7558 31.8031 58.9909H27.1953C27.1369 58.8511 27.0079 58.8864 26.9003 58.8772C23.5539 58.576 20.3212 57.7986 17.2944 56.339C7.78522 51.7511 2.1034 44.267 0.325716 33.856C0.218164 33.2291 0.270404 32.5746 0.0107422 31.9738V27.1447C0.199727 27.0556 0.119831 26.8774 0.133659 26.7406C0.691393 21.2847 2.5797 16.3388 5.87387 11.9491C14.8345 0.0123835 31.1978 -3.42621 44.1209 4.0333C52.3149 8.76252 57.1317 15.9193 58.6727 25.2579C58.7833 25.9248 58.7373 26.6146 58.9892 27.2584Z" fill="#2D3948" />
        <path d="M58.7665 32.7802C58.682 34.7592 58.2425 36.6767 57.5911 38.5281C53.8222 49.2342 46.4041 55.8932 35.2986 58.4222C34.6856 58.562 34.0694 58.6849 33.4364 58.708C33.3381 58.4452 33.1122 58.2854 32.9248 58.098C28.0219 53.2013 23.1176 48.3077 18.2147 43.411C18.015 43.2128 17.7584 43.0468 17.7354 42.7242C18.7848 43.0115 19.6283 42.6981 20.3873 41.9314C23.1391 39.1535 25.9185 36.4017 28.6842 33.636C29.0068 33.3134 29.3033 32.9631 29.6291 32.6066C31.5005 34.4765 33.3027 36.2772 35.1066 38.0795C36.4632 39.4346 37.8076 40.8005 39.1797 42.1388C40.3228 43.2527 42.1128 42.9946 42.8549 41.6394C43.3696 40.7007 43.173 39.6282 42.3125 38.7663C39.3165 35.7702 36.3204 32.7741 33.3104 29.7933C33.0031 29.4891 32.9755 29.3339 33.3012 29.0128C36.2866 26.0613 39.2442 23.0806 42.2311 20.1306C43.0746 19.2978 43.342 18.3775 42.9287 17.2666C43.1868 17.3357 43.3312 17.5508 43.5048 17.7245C48.3816 22.5889 53.2567 27.4549 58.1335 32.3177C58.3194 32.5021 58.4669 32.748 58.7665 32.7818V32.7802Z" fill="#25303E" />
        <path d="M42.9286 17.2653C43.3419 18.3761 43.0746 19.2965 42.231 20.1292C39.2442 23.0792 36.288 26.0599 33.3012 29.0115C32.9754 29.3341 33.0031 29.4878 33.3104 29.792C36.3203 32.7727 39.3164 35.7688 42.3125 38.7649C43.1729 39.6253 43.368 40.6993 42.8549 41.6381C42.1127 42.9933 40.3228 43.2514 39.1796 42.1374C37.8076 40.7992 36.4616 39.4333 35.1065 38.0781C33.3027 36.2759 31.5004 34.4751 29.629 32.6053C29.3033 32.9617 29.0068 33.3105 28.6841 33.6347C25.92 36.4003 23.1406 39.1521 20.3872 41.93C19.6282 42.6967 18.7847 43.0102 17.7353 42.7228C15.9607 41.8424 15.678 40.1093 17.0854 38.7035C20.0692 35.7212 23.0514 32.7389 26.0491 29.7705C26.3425 29.4786 26.3733 29.3403 26.0598 29.0299C23.0192 26.0246 19.9954 23.0024 16.9747 19.9756C15.741 18.7403 16.0529 16.832 17.5786 16.1529C18.4759 15.7534 19.4438 15.947 20.2151 16.7121C21.9452 18.4253 23.6645 20.1507 25.3884 21.87C26.6775 23.156 27.9789 24.4313 29.248 25.7373C29.566 26.0646 29.7258 26.1107 30.0761 25.7557C33.0307 22.7719 36.0099 19.8127 38.983 16.8489C40.3366 15.4999 41.8715 15.6627 42.9286 17.2637V17.2653Z" fill="#E9E9E9" />
    </g>
    <defs>
        <clipPath id="clip0_2732_26149">
            <rect width="59" height="59" fill="white" />
        </clipPath>
    </defs>
</svg>
    