<svg width="59" height="59" viewBox="0 0 59 59" fill="none" xmlns="http://www.w3.org/2000/svg">
<path d="M29.5 59C45.7924 59 59 45.7924 59 29.5C59 13.2076 45.7924 0 29.5 0C13.2076 0 0 13.2076 0 29.5C0 45.7924 13.2076 59 29.5 59Z" fill="white"/>
<path d="M29.5 0C13.1953 0 0 13.1516 0 29.4023C0 45.653 13.1953 58.8045 29.5 58.8045C45.8048 58.8045 59 45.653 59 29.4023C59 13.1516 45.8048 0 29.5 0ZM29.5 46.6065C19.9723 46.6065 12.2385 38.8985 12.2385 29.4023C12.2385 19.9062 19.9723 12.198 29.5 12.198C39.0277 12.198 46.7614 19.9062 46.7614 29.4023C46.7614 38.8985 39.0277 46.6065 29.5 46.6065Z" fill="url(#paint0_linear_366_998)"/>
<path d="M33.6859 34.9252H25.3143C24.5967 34.9252 23.9987 34.3292 23.9987 33.614V25.2304C23.9987 24.5152 24.5967 23.9192 25.3143 23.9192H33.7257C34.4433 23.9192 35.0413 24.5152 35.0413 25.2304V33.614C35.0413 34.3292 34.4433 34.9252 33.6859 34.9252Z" fill="#2059EB"/>
<defs>
<linearGradient id="paint0_linear_366_998" x1="29.5" y1="58.8045" x2="29.5" y2="0" gradientUnits="userSpaceOnUse">
<stop stop-color="#1447EA"/>
<stop offset="1" stop-color="#2B65FB"/>
</linearGradient>
</defs>
</svg>
