<svg width="406" height="406" viewBox="0 0 406 406" fill="none" xmlns="http://www.w3.org/2000/svg">
<circle cx="203" cy="203" r="203" fill="#0B1747"/>
<path d="M245 225V180.5L232.5 177H112L125 300L165 277V222L205 247L245 225Z" fill="#37BCF4"/>
<path d="M85 277.5L125 300V203L205 247V203L85 133.5V277.5Z" fill="#3092F5"/>
<path d="M245 180.5L125 110L85 133.5L205 203.5L245 180.5Z" fill="#336FE9"/>
<path d="M326 132.5L284.5 110L245 132L247 135.5L267 170.5L294 173L326 132.5Z" fill="#336FE9"/>
<path d="M286 155L245 132V276.5L285.5 297.5L286 155Z" fill="#3092F5"/>
<path d="M326 132.5L285.5 155V297.5L326 276.5V132.5Z" fill="#37BCF4"/>
</svg>
