<svg width="17" height="18" viewBox="0 0 17 18" fill="none" xmlns="http://www.w3.org/2000/svg">
    <rect y="0.9375" width="16.0741" height="16.625" rx="8.03704" fill="#AAFF00" />
    <path
        d="M11.0661 3.75C11.2883 3.85901 11.3175 3.95564 11.1868 4.15765C10.4515 5.29151 9.71598 6.42507 8.98109 7.55893C8.95762 7.59487 8.9365 7.63201 8.90298 7.68666H9.04881C9.74883 7.68666 10.4485 7.68666 11.1485 7.68666C11.1844 7.68666 11.2206 7.68425 11.2558 7.68787C11.3688 7.69965 11.4617 7.74222 11.5133 7.83885C11.5653 7.93608 11.5254 8.01791 11.459 8.09673C11.0959 8.52702 10.7338 8.95822 10.3714 9.38912C8.91136 11.1236 7.4513 12.858 5.99092 14.5925C5.97181 14.6155 5.95404 14.6396 5.93258 14.6605C5.83703 14.7522 5.68181 14.7767 5.57385 14.7187C5.46422 14.6598 5.4317 14.5632 5.48266 14.4267C5.80418 13.5701 6.1267 12.7137 6.44922 11.857C6.67484 11.258 6.90081 10.6589 7.1261 10.0598C7.13985 10.0229 7.14991 9.98519 7.16633 9.93386H7.02821C6.29667 9.93386 5.5648 9.93386 4.83327 9.93386C4.57009 9.93386 4.47052 9.79646 4.58249 9.58419C5.57788 7.69814 6.57393 5.81239 7.57401 3.92846C7.61055 3.85961 7.69001 3.80888 7.74935 3.75H11.0661Z"
        fill="#111827" />
</svg>