<svg width="59" height="59" viewBox="0 0 59 59" fill="none" xmlns="http://www.w3.org/2000/svg">
<path d="M29.5 59C45.7924 59 59 45.7924 59 29.5C59 13.2076 45.7924 0 29.5 0C13.2076 0 0 13.2076 0 29.5C0 45.7924 13.2076 59 29.5 59Z" fill="#FCEAE7"/>
<path d="M43.647 14.5532L31.2154 23.7864L33.5144 18.3389L43.647 14.5532Z" fill="#E2761B" stroke="#E2761B" stroke-linecap="round" stroke-linejoin="round"/>
<path d="M14.9482 14.5532L27.2799 23.8738L25.0934 18.3389L14.9482 14.5532Z" fill="#E4761B" stroke="#E4761B" stroke-linecap="round" stroke-linejoin="round"/>
<path d="M39.1742 35.9558L35.8632 41.0282L42.9473 42.9776L44.984 36.0682L39.1742 35.9558Z" fill="#E4761B" stroke="#E4761B" stroke-linecap="round" stroke-linejoin="round"/>
<path d="M13.6361 36.0682L15.6601 42.9776L22.7443 41.0282L19.4333 35.9558L13.6361 36.0682Z" fill="#E4761B" stroke="#E4761B" stroke-linecap="round" stroke-linejoin="round"/>
<path d="M22.3452 27.3848L20.3711 30.3709L27.4053 30.6832L27.1554 23.1243L22.3452 27.3848Z" fill="#E4761B" stroke="#E4761B" stroke-linecap="round" stroke-linejoin="round"/>
<path d="M36.2506 27.3848L31.3779 23.0369L31.2154 30.6833L38.2372 30.3709L36.2506 27.3848Z" fill="#E4761B" stroke="#E4761B" stroke-linecap="round" stroke-linejoin="round"/>
<path d="M22.7442 41.0282L26.9672 38.9668L23.3189 36.1182L22.7442 41.0282Z" fill="#E4761B" stroke="#E4761B" stroke-linecap="round" stroke-linejoin="round"/>
<path d="M31.628 38.9668L35.8635 41.0282L35.2763 36.1182L31.628 38.9668Z" fill="#E4761B" stroke="#E4761B" stroke-linecap="round" stroke-linejoin="round"/>
<path d="M35.8627 41.0282L31.6272 38.9668L31.9646 41.7279L31.9271 42.8898L35.8627 41.0282Z" fill="#D7C1B3" stroke="#D7C1B3" stroke-linecap="round" stroke-linejoin="round"/>
<path d="M22.7442 41.0282L26.6798 42.8898L26.6549 41.7279L26.9672 38.9668L22.7442 41.0282Z" fill="#D7C1B3" stroke="#D7C1B3" stroke-linecap="round" stroke-linejoin="round"/>
<path d="M26.7423 34.2941L23.2189 33.2571L25.7053 32.1201L26.7423 34.2941Z" fill="#233447" stroke="#233447" stroke-linecap="round" stroke-linejoin="round"/>
<path d="M31.8515 34.2941L32.8886 32.1201L35.3874 33.2571L31.8515 34.2941Z" fill="#233447" stroke="#233447" stroke-linecap="round" stroke-linejoin="round"/>
<path d="M22.7433 41.0282L23.343 35.9558L19.4324 36.0682L22.7433 41.0282Z" fill="#CD6116" stroke="#CD6116" stroke-linecap="round" stroke-linejoin="round"/>
<path d="M35.2617 35.9558L35.8614 41.0282L39.1724 36.0682L35.2617 35.9558Z" fill="#CD6116" stroke="#CD6116" stroke-linecap="round" stroke-linejoin="round"/>
<path d="M38.2364 30.3708L31.2147 30.6832L31.8644 34.294L32.9014 32.12L35.4002 33.257L38.2364 30.3708Z" fill="#CD6116" stroke="#CD6116" stroke-linecap="round" stroke-linejoin="round"/>
<path d="M23.2175 33.257L25.7163 32.12L26.7408 34.294L27.403 30.6832L20.3688 30.3708L23.2175 33.257Z" fill="#CD6116" stroke="#CD6116" stroke-linecap="round" stroke-linejoin="round"/>
<path d="M20.3704 30.3708L23.319 36.1182L23.219 33.257L20.3704 30.3708Z" fill="#E4751F" stroke="#E4751F" stroke-linecap="round" stroke-linejoin="round"/>
<path d="M35.4005 33.257L35.2756 36.1182L38.2366 30.3708L35.4005 33.257Z" fill="#E4751F" stroke="#E4751F" stroke-linecap="round" stroke-linejoin="round"/>
<path d="M27.4042 30.6833L26.7421 34.2941L27.5667 38.5547L27.7541 32.9448L27.4042 30.6833Z" fill="#E4751F" stroke="#E4751F" stroke-linecap="round" stroke-linejoin="round"/>
<path d="M31.2148 30.6833L30.8775 32.9323L31.0274 38.5547L31.8645 34.2941L31.2148 30.6833Z" fill="#E4751F" stroke="#E4751F" stroke-linecap="round" stroke-linejoin="round"/>
<path d="M31.8651 34.2941L31.028 38.5546L31.6277 38.9669L35.276 36.1182L35.4009 33.2571L31.8651 34.2941Z" fill="#F6851B" stroke="#F6851B" stroke-linecap="round" stroke-linejoin="round"/>
<path d="M23.2189 33.2571L23.3189 36.1182L26.9672 38.9669L27.5669 38.5546L26.7423 34.2941L23.2189 33.2571Z" fill="#F6851B" stroke="#F6851B" stroke-linecap="round" stroke-linejoin="round"/>
<path d="M31.9274 42.89L31.9649 41.7281L31.6525 41.4531H26.9422L26.6549 41.7281L26.6798 42.89L22.7442 41.0283L24.1185 42.1529L26.9047 44.0896H31.69L34.4886 42.1529L35.863 41.0283L31.9274 42.89Z" fill="#C0AD9E" stroke="#C0AD9E" stroke-linecap="round" stroke-linejoin="round"/>
<path d="M31.6271 38.9667L31.0274 38.5544H27.5665L26.9668 38.9667L26.6545 41.7279L26.9418 41.453H31.6521L31.9645 41.7279L31.6271 38.9667Z" fill="#161616" stroke="#161616" stroke-linecap="round" stroke-linejoin="round"/>
<path d="M44.1713 24.3861L45.2333 19.2885L43.6466 14.5532L31.6272 23.474L36.25 27.3847L42.7844 29.2963L44.2339 27.6096L43.6093 27.1598L44.6087 26.2477L43.8339 25.648L44.8333 24.8859L44.1713 24.3861Z" fill="#763D16" stroke="#763D16" stroke-linecap="round" stroke-linejoin="round"/>
<path d="M13.3733 19.2885L14.4353 24.3861L13.7607 24.8859L14.7602 25.648L13.998 26.2477L14.9976 27.1598L14.3729 27.6096L15.8097 29.2963L22.3441 27.3847L26.9669 23.474L14.9476 14.5532L13.3733 19.2885Z" fill="#763D16" stroke="#763D16" stroke-linecap="round" stroke-linejoin="round"/>
<path d="M42.7837 29.2964L36.2493 27.3848L38.2359 30.3709L35.2748 36.1181L39.1729 36.0682H44.9828L42.7837 29.2964Z" fill="#F6851B" stroke="#F6851B" stroke-linecap="round" stroke-linejoin="round"/>
<path d="M22.3445 27.3848L15.81 29.2964L13.6361 36.0682H19.4333L23.319 36.1181L20.3704 30.3709L22.3445 27.3848Z" fill="#F6851B" stroke="#F6851B" stroke-linecap="round" stroke-linejoin="round"/>
<path d="M31.2148 30.6833L31.6271 23.4742L33.5262 18.3391H25.0927L26.9668 23.4742L27.4041 30.6833L27.554 32.9572L27.5665 38.5546H31.0274L31.0524 32.9572L31.2148 30.6833Z" fill="#F6851B" stroke="#F6851B" stroke-linecap="round" stroke-linejoin="round"/>
</svg>
