<svg width="17" height="18" viewBox="0 0 17 18" fill="none" xmlns="http://www.w3.org/2000/svg">
    <rect y="0.75" width="16.0741" height="16.625" rx="8.03704" fill="#AAFF00" />
    <path
        d="M6.79349 3.0625C6.85069 3.1002 6.90699 3.13969 6.96598 3.17379C7.79267 3.65128 8.47727 4.28404 9.00814 5.08015C9.53633 5.86998 9.82321 6.74418 9.86969 7.69376C9.89382 8.19279 9.90812 8.69361 9.90186 9.19354C9.89292 9.88195 9.82321 10.5632 9.54527 11.2058C10.5114 10.013 10.9582 8.64515 10.927 7.10409C10.9967 7.21897 11.07 7.33116 11.1361 7.44874C11.5508 8.19369 11.8591 8.97723 11.9851 9.8263C12.0933 10.5578 12.0343 11.2731 11.793 11.9741C11.3846 13.1624 10.6883 14.1515 9.76155 14.9862C9.7392 15.0069 9.71418 15.0239 9.67128 15.058C9.87863 14.1757 10.1092 13.3204 10.1566 12.4085C9.69184 12.719 9.25391 13.0422 8.73108 13.2459C7.92852 11.9723 7.504 10.6036 7.60142 9.05442C7.45038 9.17379 7.31721 9.26714 7.19924 9.37574C6.47622 10.039 6.04187 10.8647 5.86044 11.8269C5.66293 12.8761 5.79431 13.9029 6.08119 14.918C6.09281 14.9584 6.10175 14.9988 6.11158 15.0401L6.08477 15.0625C5.87385 14.8624 5.65221 14.6721 5.4529 14.4612C4.855 13.8275 4.40635 13.1041 4.18382 12.2532C3.92464 11.2632 4.00954 10.2885 4.43317 9.36946C4.9274 8.29691 5.48329 7.25308 6.01148 6.19668C6.25368 5.71201 6.51286 5.23542 6.66748 4.71127C6.80868 4.23557 6.83103 3.7518 6.78366 3.26085C6.7774 3.19444 6.77472 3.12892 6.77025 3.0625H6.79349V3.0625Z"
        fill="#111827" />
</svg>