<svg width="59" height="59" viewBox="0 0 59 59" fill="none" xmlns="http://www.w3.org/2000/svg">
<path d="M29.5 59C45.7924 59 59 45.7924 59 29.5C59 13.2076 45.7924 0 29.5 0C13.2076 0 0 13.2076 0 29.5C0 45.7924 13.2076 59 29.5 59Z" fill="#E7EEFC"/>
<path d="M16.5456 21.2924C23.6947 14.2928 35.2858 14.2928 42.4348 21.2924L43.2954 22.1348C43.6529 22.4848 43.6529 23.0522 43.2954 23.4022L40.3521 26.284C40.1735 26.459 39.8836 26.459 39.7046 26.284L38.5208 25.1247C33.5334 20.2416 25.4471 20.2416 20.4597 25.1247L19.1917 26.3662C19.013 26.5412 18.7232 26.5412 18.5445 26.3662L15.6012 23.4844C15.2437 23.1345 15.2437 22.567 15.6012 22.2171L16.5456 21.2924ZM48.522 27.2522L51.1416 29.8169C51.4987 30.1669 51.4987 30.7343 51.1416 31.0843L39.3298 42.6492C38.9723 42.9992 38.3928 42.9992 38.0353 42.6492L29.6521 34.4412C29.5628 34.3537 29.4179 34.3537 29.3285 34.4412L20.9455 42.6492C20.588 42.9992 20.0085 42.9992 19.651 42.6492L7.83897 31.0841C7.48151 30.7342 7.48151 30.1667 7.83897 29.8167L10.4585 27.252C10.816 26.902 11.3955 26.902 11.753 27.252L20.1363 35.46C20.2257 35.5475 20.3706 35.5475 20.4599 35.46L28.8429 27.252C29.2003 26.902 29.7799 26.902 30.1373 27.252C30.1374 27.252 30.1374 27.252 30.1374 27.252L38.5207 35.46C38.61 35.5475 38.7549 35.5475 38.8443 35.46L47.2275 27.2522C47.5851 26.9022 48.1644 26.9022 48.522 27.2522Z" fill="#3B99FC"/>
</svg>
