<svg width="17" height="17" viewBox="0 0 17 17" fill="none" xmlns="http://www.w3.org/2000/svg">
<rect width="16.0741" height="16.625" rx="8.03704" fill="#D65745"/>
<path d="M3.66696 4.07977C3.48821 3.95165 3.22869 3.98134 3.08775 4.14383C2.94682 4.30633 2.97947 4.54226 3.15822 4.67039L13.333 11.9202C13.5118 12.0483 13.7713 12.0187 13.9122 11.8562C14.0532 11.6937 14.0205 11.4577 13.8418 11.3296L11.4098 9.59684L12.9652 8.18281C13.9363 7.30002 13.9363 5.87036 12.9652 4.98757C12.1059 4.20633 10.7515 4.10477 9.76326 4.74695L9.73576 4.76413C9.48826 4.92507 9.43155 5.23756 9.60857 5.46099C9.7856 5.68443 10.1293 5.73755 10.3751 5.57662L10.4026 5.55943C10.9543 5.20162 11.7088 5.25787 12.1867 5.6938C12.7281 6.18598 12.7281 6.98283 12.1867 7.47501L10.5367 8.97498L9.98841 8.58436C10.4061 7.74376 10.2204 6.73597 9.47967 6.06254C8.5825 5.24537 7.16799 5.18444 6.19176 5.87973L3.66696 4.07977ZM7.10784 6.53128C7.62517 6.29848 8.27141 6.3766 8.70281 6.77034C9.04655 7.08283 9.17546 7.52501 9.07577 7.93438L7.10784 6.53128ZM9.98841 10.5062L6.79675 8.21875C6.76066 8.84061 7.00643 9.47028 7.52205 9.93746C8.19063 10.5453 9.14452 10.7343 9.99013 10.5046L9.98841 10.5062ZM5.00412 6.93596L4.03477 7.81719C3.06369 8.69998 3.06369 10.1296 4.03477 11.0124C4.89413 11.7937 6.24848 11.8952 7.23674 11.2531L7.26424 11.2359C7.51174 11.0749 7.56845 10.7624 7.39143 10.539C7.2144 10.3156 6.87065 10.2625 6.62488 10.4234L6.59738 10.4406C6.04567 10.7984 5.29115 10.7421 4.81335 10.3062C4.27195 9.81246 4.27195 9.0156 4.81335 8.52343L5.87551 7.55782L5.00584 6.9344L5.00412 6.93596Z" fill="black"/>
</svg>
