<svg width="279" height="303" viewBox="0 0 279 303" fill="none" xmlns="http://www.w3.org/2000/svg">
<path style="mix-blend-mode:screen" d="M125.566 303C124.038 303.001 122.536 302.6 121.213 301.838L14.6179 240.377C13.2949 239.613 12.1963 238.516 11.4325 237.194C10.6687 235.873 10.2666 234.374 10.2666 232.848C10.2666 231.322 10.6687 229.823 11.4325 228.502C12.1963 227.18 13.2949 226.083 14.6179 225.319L136.646 155.393C137.97 154.63 139.471 154.228 140.999 154.228C142.528 154.228 144.029 154.63 145.352 155.393L250.982 216.917C252.295 217.683 253.385 218.78 254.143 220.097C254.9 221.414 255.299 222.907 255.299 224.426C255.299 225.945 254.9 227.438 254.143 228.756C253.385 230.073 252.295 231.169 250.982 231.935L129.919 301.838C128.595 302.6 127.094 303.001 125.566 303ZM140.984 155.005C139.595 155.003 138.23 155.366 137.026 156.057L15.0374 225.983C13.8231 226.674 12.8135 227.673 12.1112 228.88C11.4089 230.086 11.039 231.457 11.039 232.852C11.039 234.247 11.4089 235.618 12.1112 236.824C12.8135 238.031 13.8231 239.03 15.0374 239.721L121.64 301.182C122.845 301.871 124.209 302.234 125.597 302.234C126.986 302.234 128.35 301.871 129.555 301.182L250.578 231.319C251.785 230.626 252.787 229.628 253.484 228.424C254.182 227.221 254.549 225.856 254.549 224.466C254.549 223.076 254.182 221.71 253.484 220.507C252.787 219.304 251.785 218.306 250.578 217.613L144.98 156.08C143.767 155.374 142.388 155.003 140.984 155.005Z" fill="url(#paint0_linear_1413_5011)"/>
<path style="mix-blend-mode:color-dodge" d="M130.172 291.002L233.767 231.208C234.843 230.582 235.735 229.685 236.356 228.606C236.976 227.528 237.303 226.306 237.303 225.063C237.303 223.819 236.976 222.597 236.356 221.519C235.735 220.441 234.843 219.544 233.767 218.917L143.39 166.253C142.307 165.628 141.078 165.3 139.828 165.3C138.578 165.3 137.349 165.628 136.266 166.253L31.8244 226.055C30.7412 226.679 29.8417 227.577 29.2164 228.658C28.591 229.74 28.2617 230.967 28.2617 232.216C28.2617 233.465 28.591 234.691 29.2164 235.773C29.8417 236.855 30.7412 237.753 31.8244 238.377L123.065 290.986C124.144 291.61 125.369 291.94 126.616 291.942C127.864 291.945 129.09 291.621 130.172 291.002Z" fill="url(#paint1_linear_1413_5011)"/>
<g style="mix-blend-mode:screen">
<path style="mix-blend-mode:screen" d="M205.251 175.366C204.838 175.233 204.389 175.267 204.001 175.461C203.911 175.491 203.834 175.549 203.779 175.625C203.724 175.702 203.694 175.794 203.694 175.888C203.694 175.982 203.724 176.074 203.779 176.15C203.834 176.227 203.911 176.284 204.001 176.315C204.23 176.431 204.483 176.492 204.741 176.492C204.998 176.492 205.251 176.431 205.481 176.315C205.813 176.117 205.868 175.825 205.647 175.595L263.709 142.122C264.12 142.252 264.567 142.216 264.951 142.019C265.042 141.991 265.121 141.935 265.177 141.859C265.233 141.783 265.264 141.691 265.264 141.596C265.264 141.502 265.233 141.41 265.177 141.334C265.121 141.257 265.042 141.201 264.951 141.173C264.724 141.054 264.472 140.992 264.215 140.992C263.959 140.992 263.706 141.054 263.479 141.173C263.139 141.363 263.084 141.656 263.305 141.893L205.251 175.366ZM236.332 166.482L256.055 155.108C256.278 155.222 256.525 155.281 256.776 155.281C257.026 155.281 257.273 155.222 257.496 155.108C257.585 155.078 257.663 155.021 257.718 154.944C257.773 154.867 257.803 154.776 257.803 154.681C257.803 154.587 257.773 154.495 257.718 154.419C257.663 154.342 257.585 154.285 257.496 154.254C257.267 154.142 257.015 154.083 256.76 154.083C256.505 154.083 256.253 154.142 256.024 154.254C255.747 154.413 255.66 154.634 255.755 154.839L235.928 166.269L236.332 166.482ZM220.194 163.226L255.573 142.825C255.986 142.954 256.434 142.92 256.823 142.73C256.913 142.7 256.99 142.643 257.045 142.566C257.1 142.49 257.13 142.398 257.13 142.304C257.13 142.209 257.1 142.118 257.045 142.041C256.99 141.964 256.913 141.907 256.823 141.877C256.594 141.76 256.34 141.699 256.083 141.699C255.826 141.699 255.572 141.76 255.343 141.877C255.003 142.074 254.947 142.367 255.177 142.596L220.756 162.435V156.689L247.326 141.371C247.74 141.501 248.189 141.464 248.576 141.268C248.663 141.236 248.738 141.179 248.79 141.103C248.843 141.028 248.872 140.938 248.872 140.845C248.872 140.753 248.843 140.663 248.79 140.588C248.738 140.512 248.663 140.454 248.576 140.422C248.347 140.306 248.093 140.245 247.836 140.245C247.579 140.245 247.325 140.306 247.096 140.422C246.756 140.612 246.708 140.913 246.93 141.142L220.194 156.555V163.226ZM263.725 146.959L231.33 165.628C230.918 165.498 230.472 165.535 230.087 165.731C229.998 165.761 229.92 165.819 229.865 165.895C229.81 165.972 229.781 166.064 229.781 166.158C229.781 166.252 229.81 166.344 229.865 166.421C229.92 166.497 229.998 166.555 230.087 166.585C230.318 166.698 230.571 166.757 230.827 166.757C231.084 166.757 231.337 166.698 231.567 166.585C231.9 166.387 231.955 166.095 231.734 165.865L263.155 147.742V153.82L243.574 165.115C243.371 165.046 243.157 165.018 242.943 165.035C242.729 165.051 242.521 165.11 242.331 165.209C242.242 165.24 242.164 165.297 242.109 165.374C242.054 165.45 242.025 165.542 242.025 165.636C242.025 165.73 242.054 165.822 242.109 165.899C242.164 165.976 242.242 166.033 242.331 166.063C242.56 166.176 242.812 166.235 243.067 166.235C243.323 166.235 243.575 166.176 243.804 166.063C244.144 165.865 244.199 165.573 243.978 165.344L263.764 153.954L263.725 146.959ZM278.691 152.974C278.462 152.859 278.208 152.8 277.951 152.8C277.694 152.8 277.441 152.859 277.211 152.974C276.871 153.172 276.824 153.464 277.045 153.693L245.608 171.817H226.613L212.825 179.769C212.449 179.683 212.055 179.731 211.71 179.903C211.62 179.933 211.542 179.991 211.487 180.067C211.432 180.144 211.403 180.236 211.403 180.33C211.403 180.424 211.432 180.516 211.487 180.592C211.542 180.669 211.62 180.726 211.71 180.757C211.939 180.873 212.192 180.934 212.45 180.934C212.707 180.934 212.96 180.873 213.19 180.757C213.562 180.543 213.585 180.203 213.277 179.966L226.85 172.141H245.845L277.441 153.962C277.645 154.032 277.861 154.06 278.076 154.044C278.291 154.027 278.5 153.967 278.691 153.867C278.8 153.854 278.9 153.801 278.973 153.72C279.045 153.638 279.086 153.533 279.087 153.424C279.088 153.315 279.049 153.209 278.978 153.126C278.907 153.044 278.808 152.989 278.699 152.974H278.691ZM223.985 168.972H244.073L260.432 159.534C260.843 159.667 261.289 159.633 261.675 159.44C261.764 159.409 261.842 159.352 261.897 159.275C261.952 159.199 261.982 159.107 261.982 159.013C261.982 158.918 261.952 158.827 261.897 158.75C261.842 158.673 261.764 158.616 261.675 158.586C261.448 158.467 261.195 158.405 260.939 158.405C260.682 158.405 260.43 158.467 260.203 158.586C259.862 158.783 259.807 159.076 260.029 159.305L243.835 168.64H223.756L200.669 181.958C200.464 181.89 200.248 181.864 200.034 181.88C199.819 181.896 199.61 181.955 199.418 182.053C199.329 182.083 199.251 182.14 199.196 182.217C199.141 182.294 199.111 182.385 199.111 182.48C199.111 182.574 199.141 182.666 199.196 182.742C199.251 182.819 199.329 182.876 199.418 182.907C199.647 183.023 199.901 183.084 200.158 183.084C200.415 183.084 200.669 183.023 200.898 182.907C201.238 182.709 201.286 182.416 201.064 182.187L223.985 168.972ZM200.771 174.188C200.998 174.307 201.251 174.37 201.508 174.37C201.764 174.37 202.017 174.307 202.244 174.188C202.584 173.991 202.639 173.698 202.418 173.469L215.524 165.913V155.59L247.555 137.119C247.759 137.189 247.975 137.216 248.19 137.2C248.405 137.184 248.615 137.124 248.806 137.024C248.895 136.994 248.973 136.936 249.028 136.86C249.083 136.783 249.112 136.691 249.112 136.597C249.112 136.503 249.083 136.411 249.028 136.334C248.973 136.258 248.895 136.2 248.806 136.17C248.575 136.057 248.322 135.998 248.066 135.998C247.809 135.998 247.556 136.057 247.326 136.17C246.985 136.368 246.938 136.66 247.159 136.889L214.962 155.456V165.779L202.022 173.24C201.611 173.107 201.165 173.141 200.779 173.335C200.69 173.365 200.612 173.422 200.557 173.499C200.502 173.575 200.473 173.667 200.473 173.762C200.473 173.856 200.502 173.948 200.557 174.024C200.612 174.101 200.69 174.158 200.779 174.188H200.771ZM224.959 156.902L225.362 157.132L261.073 136.542C261.487 136.671 261.934 136.637 262.324 136.447C262.413 136.417 262.491 136.359 262.546 136.283C262.601 136.206 262.631 136.114 262.631 136.02C262.631 135.926 262.601 135.834 262.546 135.757C262.491 135.681 262.413 135.623 262.324 135.593C262.095 135.477 261.841 135.416 261.584 135.416C261.327 135.416 261.073 135.477 260.844 135.593C260.503 135.791 260.456 136.083 260.678 136.312L224.959 156.902Z" fill="url(#paint2_linear_1413_5011)"/>
</g>
<g style="mix-blend-mode:screen">
<path style="mix-blend-mode:screen" d="M42.6755 268.894L22.9521 280.268C22.7277 280.159 22.4814 280.102 22.2319 280.102C21.9823 280.102 21.736 280.159 21.5117 280.268C21.4222 280.298 21.3446 280.356 21.2896 280.432C21.2345 280.509 21.2049 280.601 21.2049 280.695C21.2049 280.789 21.2345 280.881 21.2896 280.958C21.3446 281.034 21.4222 281.092 21.5117 281.122C21.7409 281.238 21.9944 281.299 22.2517 281.299C22.5089 281.299 22.7625 281.238 22.9917 281.122C23.2608 280.964 23.3479 280.742 23.2529 280.545L43.0791 269.108L42.6755 268.894ZM15.2749 288.425L47.6617 269.748C48.0728 269.877 48.5177 269.843 48.9043 269.653C48.9937 269.623 49.0714 269.565 49.1264 269.489C49.1814 269.412 49.211 269.32 49.211 269.226C49.211 269.132 49.1814 269.04 49.1264 268.964C49.0714 268.887 48.9937 268.83 48.9043 268.799C48.6773 268.68 48.4247 268.618 48.1683 268.618C47.9118 268.618 47.6592 268.68 47.4322 268.799C47.0919 268.997 47.0365 269.289 47.266 269.519L15.8289 287.635V281.564L35.4177 270.27C35.8319 270.401 36.2811 270.364 36.6682 270.167C36.7549 270.135 36.8297 270.077 36.8825 270.002C36.9354 269.926 36.9637 269.836 36.9637 269.744C36.9637 269.652 36.9354 269.562 36.8825 269.486C36.8297 269.411 36.7549 269.353 36.6682 269.321C36.439 269.204 36.1854 269.144 35.9282 269.144C35.671 269.144 35.4174 269.204 35.1882 269.321C34.8479 269.511 34.8004 269.811 35.022 270.04L15.2353 281.43L15.2749 288.425ZM79.5816 252.478C79.3524 252.361 79.0988 252.3 78.8416 252.3C78.5843 252.3 78.3307 252.361 78.1015 252.478C77.7691 252.667 77.7137 252.968 77.9353 253.197L54.9828 266.412H34.927L18.5674 275.85C18.1532 275.719 17.704 275.756 17.3169 275.953C17.2302 275.984 17.1554 276.042 17.1026 276.118C17.0497 276.193 17.0214 276.283 17.0214 276.375C17.0214 276.468 17.0497 276.558 17.1026 276.633C17.1554 276.709 17.2302 276.766 17.3169 276.798C17.5461 276.915 17.7997 276.976 18.0569 276.976C18.3141 276.976 18.5677 276.915 18.7969 276.798C19.1293 276.609 19.1847 276.308 18.9631 276.079L35.1565 266.744H55.244L78.3548 253.426C78.7664 253.557 79.213 253.52 79.5974 253.323C79.6874 253.294 79.7655 253.236 79.8203 253.159C79.8751 253.082 79.9037 252.989 79.9019 252.895C79.9002 252.8 79.8681 252.709 79.8105 252.634C79.7528 252.558 79.6726 252.504 79.5816 252.478ZM33.3837 263.543H52.3789L66.1741 255.592C66.5476 255.683 66.9414 255.635 67.2822 255.457C67.3716 255.427 67.4493 255.37 67.5043 255.293C67.5593 255.217 67.5889 255.125 67.5889 255.031C67.5889 254.936 67.5593 254.845 67.5043 254.768C67.4493 254.691 67.3716 254.634 67.2822 254.604C67.0552 254.485 66.8026 254.423 66.5461 254.423C66.2897 254.423 66.0371 254.485 65.8101 254.604C65.4302 254.825 65.4064 255.157 65.7151 255.394L52.1572 263.203H33.162L1.58251 281.454C1.17148 281.325 0.726559 281.359 0.33991 281.549C0.25051 281.579 0.172834 281.636 0.117814 281.713C0.0627952 281.789 0.0332031 281.881 0.0332031 281.975C0.0332031 282.07 0.0627952 282.162 0.117814 282.238C0.172834 282.315 0.25051 282.372 0.33991 282.402C0.566937 282.521 0.819536 282.584 1.07597 282.584C1.33241 282.584 1.58501 282.521 1.81204 282.402C2.15237 282.205 2.20777 281.912 1.98616 281.683L33.3837 263.543ZM73.7485 260.002C74.16 260.133 74.6066 260.096 74.9911 259.9C75.0815 259.872 75.1606 259.815 75.2168 259.739C75.273 259.663 75.3033 259.571 75.3033 259.477C75.3033 259.382 75.273 259.29 75.2168 259.214C75.1606 259.138 75.0815 259.082 74.9911 259.054C74.764 258.935 74.5114 258.872 74.255 258.872C73.9986 258.872 73.746 258.935 73.5189 259.054C73.1786 259.243 73.1232 259.536 73.3448 259.765L15.2986 293.239C14.8855 293.105 14.4363 293.139 14.0481 293.333C13.9587 293.364 13.881 293.421 13.826 293.498C13.771 293.574 13.7414 293.666 13.7414 293.76C13.7414 293.855 13.771 293.946 13.826 294.023C13.881 294.1 13.9587 294.157 14.0481 294.187C14.2773 294.304 14.5309 294.364 14.7881 294.364C15.0454 294.364 15.299 294.304 15.5282 294.187C15.8685 293.99 15.916 293.697 15.6944 293.468L73.7485 260.002ZM78.2203 261.18C77.991 261.063 77.7375 261.003 77.4802 261.003C77.223 261.003 76.9694 261.063 76.7402 261.18C76.3999 261.37 76.3445 261.662 76.574 261.891L63.4752 269.463V279.802L31.4366 298.258C31.0256 298.129 30.5807 298.163 30.194 298.353C30.1046 298.383 30.027 298.44 29.9719 298.517C29.9169 298.593 29.8873 298.685 29.8873 298.779C29.8873 298.874 29.9169 298.965 29.9719 299.042C30.027 299.119 30.1046 299.176 30.194 299.206C30.4211 299.325 30.6737 299.387 30.9301 299.387C31.1865 299.387 31.4391 299.325 31.6662 299.206C32.0065 299.009 32.0619 298.716 31.8403 298.487L64.0372 279.92V269.598L76.9777 262.144C77.3919 262.274 77.8408 262.238 78.2282 262.042C78.3148 262.01 78.3896 261.952 78.4425 261.876C78.4953 261.801 78.5237 261.711 78.5237 261.619C78.5237 261.526 78.4953 261.436 78.4425 261.361C78.3896 261.285 78.3148 261.228 78.2282 261.196L78.2203 261.18ZM58.8135 272.159L23.427 292.551C23.0154 292.42 22.5688 292.457 22.1844 292.654C22.095 292.684 22.0173 292.741 21.9623 292.818C21.9073 292.894 21.8777 292.986 21.8777 293.081C21.8777 293.175 21.9073 293.267 21.9623 293.343C22.0173 293.42 22.095 293.477 22.1844 293.507C22.4133 293.62 22.6652 293.679 22.9205 293.679C23.1758 293.679 23.4276 293.62 23.6565 293.507C23.9969 293.31 24.0523 293.017 23.8306 292.788L58.2436 272.941V278.687L31.6583 294.029C31.4555 293.96 31.2408 293.933 31.0272 293.949C30.8136 293.965 30.6056 294.025 30.4157 294.124C30.3263 294.154 30.2486 294.211 30.1936 294.288C30.1385 294.365 30.1089 294.456 30.1089 294.551C30.1089 294.645 30.1385 294.737 30.1936 294.813C30.2486 294.89 30.3263 294.947 30.4157 294.978C30.6446 295.09 30.8964 295.149 31.1517 295.149C31.407 295.149 31.6589 295.09 31.8878 294.978C32.2281 294.78 32.2835 294.487 32.0619 294.258L58.7977 278.845L58.8135 272.159ZM54.0647 278.482L53.661 278.253L17.9184 298.835C17.5068 298.704 17.0602 298.741 16.6758 298.937C16.5853 298.965 16.5062 299.021 16.45 299.098C16.3938 299.174 16.3635 299.266 16.3635 299.36C16.3635 299.455 16.3938 299.547 16.45 299.623C16.5062 299.699 16.5853 299.755 16.6758 299.783C16.9028 299.902 17.1554 299.964 17.4119 299.964C17.6683 299.964 17.9209 299.902 18.1479 299.783C18.4882 299.593 18.5436 299.293 18.322 299.064L54.0647 278.482Z" fill="url(#paint3_linear_1413_5011)"/>
</g>
<path style="mix-blend-mode:color-dodge" d="M202.393 271.945C201.525 271.505 200.565 271.276 199.591 271.276C198.618 271.276 197.658 271.505 196.79 271.945C195.207 272.838 195.207 274.316 196.79 275.178C197.658 275.618 198.618 275.847 199.591 275.847C200.565 275.847 201.525 275.618 202.393 275.178C203.937 274.269 203.937 272.838 202.393 271.945ZM189.508 279.375C188.64 278.935 187.68 278.705 186.706 278.705C185.733 278.705 184.773 278.935 183.905 279.375C182.322 280.268 182.322 281.746 183.905 282.608C184.774 283.044 185.733 283.271 186.706 283.271C187.679 283.271 188.639 283.044 189.508 282.608C191.052 281.714 191.052 280.268 189.508 279.375ZM176.623 286.805C175.755 286.364 174.795 286.135 173.821 286.135C172.848 286.135 171.888 286.364 171.02 286.805C169.437 287.69 169.437 289.176 171.02 290.029C171.888 290.47 172.848 290.699 173.821 290.699C174.795 290.699 175.755 290.47 176.623 290.029C178.166 289.144 178.166 287.706 176.623 286.805ZM163.738 294.226C162.869 293.79 161.909 293.563 160.936 293.563C159.963 293.563 159.004 293.79 158.134 294.226C156.552 295.12 156.552 296.598 158.134 297.459C159.003 297.899 159.963 298.129 160.936 298.129C161.91 298.129 162.87 297.899 163.738 297.459C165.289 296.566 165.289 295.12 163.738 294.226ZM253.965 242.226C253.096 241.786 252.134 241.556 251.16 241.556C250.185 241.556 249.223 241.786 248.354 242.226C246.81 243.119 246.81 244.597 248.354 245.459C249.223 245.899 250.185 246.128 251.16 246.128C252.134 246.128 253.096 245.899 253.965 245.459C255.477 244.566 255.477 243.119 253.934 242.226H253.965ZM241.08 249.656C240.212 249.216 239.252 248.986 238.278 248.986C237.305 248.986 236.345 249.216 235.477 249.656C233.894 250.549 233.894 252.027 235.477 252.889C236.345 253.329 237.305 253.558 238.278 253.558C239.252 253.558 240.212 253.329 241.08 252.889C242.592 251.995 242.592 250.557 241.049 249.656H241.08ZM228.195 257.086C227.327 256.645 226.367 256.416 225.393 256.416C224.42 256.416 223.46 256.645 222.592 257.086C221.009 257.979 221.009 259.457 222.592 260.318C223.46 260.758 224.42 260.988 225.393 260.988C226.367 260.988 227.327 260.758 228.195 260.318C229.707 259.425 229.707 257.979 228.163 257.086H228.195ZM215.278 264.515C214.41 264.075 213.45 263.846 212.477 263.846C211.503 263.846 210.543 264.075 209.675 264.515C208.092 265.408 208.092 266.887 209.675 267.748C210.543 268.188 211.503 268.418 212.477 268.418C213.45 268.418 214.41 268.188 215.278 267.748C216.861 266.855 216.861 265.408 215.278 264.515Z" fill="url(#paint4_linear_1413_5011)"/>
<path d="M206.114 188.827L153.845 158.697L82.4471 169.723L63.3174 210.887L115.586 241.025L186.984 229.999L206.114 188.827Z" fill="url(#paint5_linear_1413_5011)"/>
<path d="M206.113 188.827L186.983 229.999V250.652L206.113 209.488V188.827Z" fill="url(#paint6_linear_1413_5011)"/>
<path d="M63.3174 210.887V231.548L115.586 261.678V241.025L63.3174 210.887Z" fill="url(#paint7_linear_1413_5011)"/>
<path d="M115.585 241.025L186.983 229.999V250.652L115.585 261.678V241.025Z" fill="url(#paint8_linear_1413_5011)"/>
<path style="mix-blend-mode:overlay" d="M205.663 189.799V208.587L186.533 249.759L115.135 260.785L63.3174 230.908V231.548L115.586 261.678L186.984 250.652L206.114 209.488V188.827L205.663 189.799Z" fill="url(#paint9_linear_1413_5011)"/>
<path style="mix-blend-mode:color-dodge" opacity="0.4" d="M74.9116 207.259L117.334 231.722L180.865 221.905L194.518 192.526L214.146 32.4855L157.802 0L73.4157 13.0337L55.2832 52.0637L74.9116 207.259Z" fill="url(#paint10_radial_1413_5011)"/>
<path d="M77.6582 208.808L88.5646 185.333L152.096 175.524L191.772 198.398L180.873 221.889L117.342 231.722L77.6582 208.808Z" fill="url(#paint11_linear_1413_5011)"/>
<path style="mix-blend-mode:overlay" d="M157.446 178.631L91.3582 216.736L92.3554 217.313L158.443 179.207L157.446 178.631ZM155.269 177.374L89.1816 215.479L90.1789 216.056L156.266 177.951L155.269 177.374ZM153.085 176.117L86.9972 214.199L87.9944 214.776L154.082 176.67L153.085 176.117ZM148.858 176.046L84.8207 212.965L85.8179 213.543L151.581 175.603L148.858 176.046ZM142.898 176.963L82.6362 211.74L83.6335 212.317L145.629 176.544L142.898 176.963ZM166.168 183.657L100.08 221.763L101.077 222.34L167.165 184.234L166.168 183.657ZM163.983 182.401L97.8957 220.522L98.8929 221.099L164.98 182.994L163.983 182.401ZM161.807 181.144L95.7192 219.249L96.7164 219.826L162.804 181.721L161.807 181.144ZM159.63 179.887L93.5347 217.992L94.532 218.569L160.667 180.464L159.63 179.887ZM101.212 183.373L85.1689 192.621L84.4408 194.201L103.935 182.962L101.212 183.373ZM113.124 181.531L81.9793 199.489L81.2511 201.07L115.846 181.12L113.124 181.531ZM95.2601 184.29L86.7677 189.19L86.0395 190.771L97.9828 183.887L95.2601 184.29ZM89.3004 185.215L88.3585 185.752L87.6304 187.333L92.0309 184.796L89.3004 185.215ZM125.035 179.682L78.7897 206.389L78.0615 207.97L127.758 179.31L125.035 179.682ZM130.987 178.765L78.2831 209.195L79.2804 209.772L133.757 178.385L130.987 178.765ZM136.947 177.84L80.4597 210.412L81.4569 210.99L139.669 177.421L136.947 177.84ZM119.083 180.607L80.3805 202.912L79.6524 204.492L121.806 180.211L119.083 180.607ZM107.172 182.44L83.578 196.09L82.842 197.671L109.894 182.077L107.172 182.44ZM168.21 223.81L184.253 214.562L184.981 212.981L165.487 224.221L168.21 223.81ZM174.161 222.893L182.654 217.992L183.382 216.412L171.439 223.304L174.161 222.893ZM180.121 221.968L181.055 221.431L181.791 219.85L177.391 222.379L180.121 221.968ZM190.141 197.466L135.704 228.853L138.435 228.434L191.138 198.043L190.141 197.466ZM141.672 227.951L144.394 227.533L190.64 200.864L191.368 199.284L141.672 227.951ZM150.378 226.608L189.073 204.295L189.809 202.714L147.655 227.011L150.378 226.608ZM168.344 184.954L102.257 223.059L103.254 223.636L169.373 185.491L168.344 184.954ZM156.298 225.73L187.442 207.773L188.17 206.192L153.544 226.11L156.298 225.73ZM162.25 224.806L185.843 211.203L186.572 209.622L159.527 225.217L162.25 224.806ZM187.965 196.264L129.752 229.833L132.475 229.406L188.962 196.81L187.965 196.264ZM172.705 187.467L106.618 225.572L107.615 226.149L173.702 188.044L172.705 187.467ZM177.066 189.981L110.979 228.086L111.976 228.663L178.079 190.487L177.066 189.981ZM174.913 188.684L108.826 226.79L109.823 227.367L175.911 189.261L174.913 188.684ZM170.56 186.171L104.473 224.276L105.47 224.853L171.558 186.748L170.56 186.171ZM183.619 193.711L117.856 231.651L120.579 231.232L184.617 194.312L183.619 193.711ZM185.796 194.968L123.808 230.71L126.539 230.291L186.793 195.513L185.796 194.968ZM179.258 191.198L113.179 229.303L114.176 229.88L180.264 191.775L179.258 191.198ZM181.443 192.455L115.355 230.56L116.353 231.137L182.44 193.032L181.443 192.455Z" fill="url(#paint12_linear_1413_5011)"/>
<path style="mix-blend-mode:overlay" opacity="0.6" d="M77.6582 172.07L88.5646 148.595L152.096 138.779L191.772 161.653L180.873 185.151L117.342 194.976L77.6582 172.07Z" fill="url(#paint13_linear_1413_5011)"/>
<path style="mix-blend-mode:overlay" d="M77.6582 136.344L88.5646 112.869L152.096 103.052L191.772 125.927L180.873 149.417L117.342 159.25L77.6582 136.344Z" fill="url(#paint14_linear_1413_5011)"/>
<path style="mix-blend-mode:overlay" d="M77.6582 99.4877L88.5646 76.0128L152.096 66.204L191.772 89.0782L180.873 112.569L117.342 122.401L77.6582 99.4877Z" fill="url(#paint15_linear_1413_5011)"/>
<path d="M88.5649 185.333L152.096 175.524L191.772 198.398L194.519 192.494L152.096 168.031L88.5649 177.848L74.9121 207.227L77.6585 208.808L88.5649 185.333Z" fill="url(#paint16_linear_1413_5011)"/>
<g style="mix-blend-mode:color-dodge">
<path style="mix-blend-mode:color-dodge" d="M126.12 53.0912C127.055 53.0912 127.813 52.3339 127.813 51.3997C127.813 50.4655 127.055 49.7083 126.12 49.7083C125.184 49.7083 124.426 50.4655 124.426 51.3997C124.426 52.3339 125.184 53.0912 126.12 53.0912Z" fill="url(#paint17_radial_1413_5011)"/>
<path style="mix-blend-mode:color-dodge" d="M155.507 82.004C155.507 82.3479 155.405 82.6841 155.213 82.9701C155.022 83.256 154.75 83.4789 154.432 83.6105C154.114 83.7421 153.764 83.7766 153.426 83.7095C153.088 83.6424 152.778 83.4768 152.534 83.2336C152.291 82.9904 152.125 82.6806 152.058 82.3433C151.991 82.0059 152.025 81.6563 152.157 81.3386C152.289 81.0208 152.512 80.7493 152.798 80.5582C153.085 80.3671 153.421 80.2651 153.766 80.2651C154.227 80.2672 154.668 80.4511 154.995 80.7767C155.321 81.1024 155.505 81.5435 155.507 82.004Z" fill="url(#paint18_radial_1413_5011)"/>
<path style="mix-blend-mode:color-dodge" d="M125.51 60.7027C125.512 61.0567 125.408 61.4031 125.212 61.6981C125.016 61.9931 124.737 62.2233 124.409 62.3594C124.082 62.4956 123.722 62.5317 123.374 62.463C123.027 62.3943 122.707 62.224 122.457 61.9737C122.206 61.7234 122.035 61.4044 121.967 61.0572C121.898 60.7099 121.934 60.3501 122.07 60.0234C122.207 59.6967 122.437 59.4178 122.733 59.2221C123.028 59.0264 123.375 58.9228 123.729 58.9243C124.201 58.9264 124.653 59.1144 124.986 59.4475C125.32 59.7806 125.508 60.2317 125.51 60.7027Z" fill="url(#paint19_radial_1413_5011)"/>
<path style="mix-blend-mode:color-dodge" d="M137.714 78.4947C137.714 78.8561 137.607 79.2094 137.406 79.5099C137.204 79.8103 136.918 80.0443 136.584 80.1822C136.249 80.3202 135.881 80.3559 135.526 80.2848C135.171 80.2137 134.846 80.039 134.59 79.7829C134.335 79.5268 134.161 79.2007 134.092 78.846C134.022 78.4913 134.059 78.1239 134.199 77.7905C134.339 77.457 134.574 77.1724 134.876 76.9727C135.178 76.773 135.532 76.6673 135.894 76.6688C136.377 76.6709 136.84 76.8642 137.182 77.2064C137.523 77.5486 137.714 78.0118 137.714 78.4947Z" fill="url(#paint20_radial_1413_5011)"/>
<path style="mix-blend-mode:color-dodge" d="M136.259 96.6581C136.259 97.0015 136.156 97.3371 135.965 97.6222C135.773 97.9074 135.501 98.1292 135.183 98.2595C134.865 98.3898 134.515 98.4227 134.178 98.3539C133.841 98.2852 133.533 98.118 133.291 97.8735C133.05 97.629 132.887 97.3184 132.822 96.9811C132.758 96.6437 132.796 96.295 132.931 95.9791C133.066 95.6633 133.292 95.3946 133.58 95.2073C133.868 95.02 134.205 94.9225 134.549 94.9272C135.005 94.9334 135.439 95.1185 135.759 95.4425C136.079 95.7664 136.259 96.2031 136.259 96.6581Z" fill="url(#paint21_radial_1413_5011)"/>
<path style="mix-blend-mode:color-dodge" d="M111.319 153.132C111.319 153.484 111.215 153.828 111.019 154.12C110.824 154.413 110.545 154.641 110.22 154.775C109.895 154.91 109.537 154.945 109.191 154.876C108.846 154.808 108.528 154.638 108.279 154.39C108.03 154.141 107.861 153.824 107.792 153.479C107.723 153.134 107.759 152.777 107.893 152.452C108.028 152.127 108.256 151.849 108.549 151.653C108.842 151.458 109.186 151.354 109.539 151.354C110.011 151.354 110.464 151.541 110.798 151.875C111.132 152.208 111.319 152.66 111.319 153.132Z" fill="url(#paint22_radial_1413_5011)"/>
<path style="mix-blend-mode:color-dodge" d="M100.113 175.089C101.083 175.089 101.87 174.304 101.87 173.335C101.87 172.366 101.083 171.58 100.113 171.58C99.1421 171.58 98.3555 172.366 98.3555 173.335C98.3555 174.304 99.1421 175.089 100.113 175.089Z" fill="url(#paint23_radial_1413_5011)"/>
<path style="mix-blend-mode:color-dodge" d="M182.734 168.181C182.734 168.543 182.626 168.896 182.426 169.196C182.225 169.496 181.939 169.73 181.605 169.868C181.271 170.006 180.903 170.043 180.549 169.972C180.194 169.902 179.868 169.728 179.613 169.472C179.357 169.217 179.183 168.892 179.112 168.538C179.042 168.183 179.078 167.816 179.216 167.483C179.355 167.149 179.589 166.864 179.89 166.663C180.19 166.463 180.544 166.356 180.905 166.356C181.146 166.355 181.384 166.401 181.606 166.492C181.829 166.584 182.031 166.718 182.201 166.888C182.371 167.058 182.505 167.259 182.597 167.481C182.688 167.703 182.735 167.941 182.734 168.181Z" fill="url(#paint24_radial_1413_5011)"/>
<path style="mix-blend-mode:color-dodge" d="M148.313 124.615C148.314 124.959 148.213 125.296 148.023 125.583C147.833 125.87 147.561 126.094 147.243 126.227C146.925 126.359 146.575 126.395 146.236 126.329C145.898 126.263 145.587 126.098 145.343 125.855C145.099 125.612 144.932 125.302 144.864 124.965C144.796 124.627 144.83 124.277 144.962 123.959C145.093 123.641 145.317 123.369 145.603 123.177C145.89 122.986 146.227 122.884 146.571 122.884C147.032 122.884 147.473 123.066 147.8 123.39C148.126 123.714 148.31 124.155 148.313 124.615Z" fill="url(#paint25_radial_1413_5011)"/>
<path style="mix-blend-mode:color-dodge" d="M116.393 57.5175C116.393 57.8771 116.286 58.2285 116.086 58.5275C115.886 58.8264 115.602 59.0594 115.269 59.197C114.936 59.3346 114.57 59.3706 114.217 59.3005C113.864 59.2303 113.54 59.0572 113.285 58.803C113.031 58.5487 112.857 58.2248 112.787 57.8722C112.717 57.5195 112.753 57.154 112.891 56.8218C113.028 56.4896 113.262 56.2057 113.561 56.006C113.86 55.8062 114.212 55.6996 114.572 55.6996C115.055 55.6996 115.518 55.8911 115.86 56.232C116.201 56.573 116.393 57.0354 116.393 57.5175Z" fill="url(#paint26_radial_1413_5011)"/>
<path style="mix-blend-mode:color-dodge" d="M96.6531 50.5461C97.606 50.5461 98.3785 49.7747 98.3785 48.823C98.3785 47.8714 97.606 47.1 96.6531 47.1C95.7002 47.1 94.9277 47.8714 94.9277 48.823C94.9277 49.7747 95.7002 50.5461 96.6531 50.5461Z" fill="url(#paint27_radial_1413_5011)"/>
<path style="mix-blend-mode:color-dodge" d="M80.6657 33.4497C81.6143 33.4497 82.3832 32.6818 82.3832 31.7346C82.3832 30.7873 81.6143 30.0194 80.6657 30.0194C79.7172 30.0194 78.9482 30.7873 78.9482 31.7346C78.9482 32.6818 79.7172 33.4497 80.6657 33.4497Z" fill="url(#paint28_radial_1413_5011)"/>
<path style="mix-blend-mode:color-dodge" d="M109.435 40.6266C110.423 40.6266 111.224 39.8268 111.224 38.8403C111.224 37.8537 110.423 37.054 109.435 37.054C108.447 37.054 107.646 37.8537 107.646 38.8403C107.646 39.8268 108.447 40.6266 109.435 40.6266Z" fill="url(#paint29_radial_1413_5011)"/>
<path style="mix-blend-mode:color-dodge" d="M160.097 24.5024C160.097 24.8338 159.999 25.1578 159.814 25.4334C159.63 25.7089 159.368 25.9237 159.061 26.0505C158.755 26.1774 158.417 26.2105 158.092 26.1459C157.766 26.0812 157.467 25.9216 157.233 25.6873C156.998 25.4529 156.838 25.1544 156.773 24.8293C156.709 24.5043 156.742 24.1674 156.869 23.8612C156.996 23.555 157.211 23.2933 157.487 23.1092C157.763 22.9251 158.087 22.8268 158.419 22.8268C158.864 22.8268 159.291 23.0033 159.606 23.3176C159.92 23.6318 160.097 24.058 160.097 24.5024Z" fill="url(#paint30_radial_1413_5011)"/>
<path style="mix-blend-mode:color-dodge" d="M166.674 41.1798C167.605 41.1798 168.36 40.4261 168.36 39.4963C168.36 38.5665 167.605 37.8127 166.674 37.8127C165.743 37.8127 164.988 38.5665 164.988 39.4963C164.988 40.4261 165.743 41.1798 166.674 41.1798Z" fill="url(#paint31_radial_1413_5011)"/>
<path style="mix-blend-mode:color-dodge" d="M167.307 46.9419C167.309 47.2846 167.209 47.6201 167.019 47.9058C166.83 48.1915 166.56 48.4146 166.243 48.5468C165.926 48.679 165.578 48.7144 165.241 48.6485C164.904 48.5826 164.595 48.4184 164.351 48.1766C164.108 47.9349 163.942 47.6265 163.875 47.2905C163.807 46.9545 163.841 46.606 163.972 46.2893C164.103 45.9725 164.325 45.7017 164.61 45.5112C164.896 45.3206 165.231 45.2189 165.574 45.2189C166.032 45.2189 166.472 45.4002 166.797 45.7231C167.122 46.046 167.305 46.4842 167.307 46.9419Z" fill="url(#paint32_radial_1413_5011)"/>
<path style="mix-blend-mode:color-dodge" d="M157.216 64.307C158.186 64.307 158.973 63.5214 158.973 62.5523C158.973 61.5832 158.186 60.7976 157.216 60.7976C156.246 60.7976 155.459 61.5832 155.459 62.5523C155.459 63.5214 156.246 64.307 157.216 64.307Z" fill="url(#paint33_radial_1413_5011)"/>
<path style="mix-blend-mode:color-dodge" d="M144.949 106.633C144.95 106.964 144.853 107.288 144.671 107.564C144.488 107.841 144.227 108.057 143.922 108.185C143.616 108.314 143.28 108.349 142.954 108.286C142.628 108.224 142.329 108.066 142.093 107.834C141.857 107.602 141.695 107.305 141.628 106.98C141.56 106.656 141.591 106.319 141.715 106.012C141.84 105.705 142.052 105.442 142.326 105.256C142.6 105.07 142.923 104.968 143.255 104.965C143.476 104.962 143.696 105.003 143.901 105.085C144.107 105.168 144.293 105.29 144.451 105.445C144.609 105.6 144.734 105.785 144.819 105.989C144.905 106.193 144.949 106.412 144.949 106.633Z" fill="url(#paint34_radial_1413_5011)"/>
<path style="mix-blend-mode:color-dodge" d="M121.126 70.322C122.079 70.322 122.851 69.5506 122.851 68.5989C122.851 67.6473 122.079 66.8759 121.126 66.8759C120.173 66.8759 119.4 67.6473 119.4 68.5989C119.4 69.5506 120.173 70.322 121.126 70.322Z" fill="url(#paint35_radial_1413_5011)"/>
<path style="mix-blend-mode:color-dodge" d="M94.049 93.3384C94.9757 93.3384 95.7269 92.5881 95.7269 91.6627C95.7269 90.7373 94.9757 89.9871 94.049 89.9871C93.1223 89.9871 92.3711 90.7373 92.3711 91.6627C92.3711 92.5881 93.1223 93.3384 94.049 93.3384Z" fill="url(#paint36_radial_1413_5011)"/>
<path style="mix-blend-mode:color-dodge" d="M91.659 69.6264C91.659 69.9687 91.5573 70.3034 91.3669 70.588C91.1764 70.8727 90.9057 71.0946 90.589 71.2256C90.2723 71.3566 89.9238 71.3909 89.5875 71.3241C89.2513 71.2573 88.9425 71.0924 88.7001 70.8503C88.4576 70.6083 88.2926 70.2998 88.2257 69.9641C88.1588 69.6283 88.1931 69.2802 88.3243 68.9639C88.4555 68.6477 88.6777 68.3773 88.9627 68.1871C89.2478 67.9969 89.5829 67.8954 89.9257 67.8954C90.3854 67.8954 90.8263 68.0778 91.1513 68.4024C91.4764 68.727 91.659 69.1673 91.659 69.6264Z" fill="url(#paint37_radial_1413_5011)"/>
<path style="mix-blend-mode:color-dodge" d="M110.606 116.671C110.606 117.015 110.504 117.351 110.313 117.637C110.122 117.923 109.85 118.146 109.532 118.278C109.213 118.409 108.863 118.444 108.526 118.376C108.188 118.309 107.878 118.144 107.634 117.901C107.391 117.657 107.225 117.348 107.157 117.01C107.09 116.673 107.125 116.323 107.257 116.006C107.388 115.688 107.612 115.416 107.898 115.225C108.184 115.034 108.521 114.932 108.865 114.932C109.094 114.931 109.321 114.975 109.533 115.062C109.745 115.149 109.937 115.277 110.099 115.439C110.261 115.601 110.389 115.793 110.476 116.004C110.563 116.216 110.608 116.442 110.606 116.671Z" fill="url(#paint38_radial_1413_5011)"/>
<path style="mix-blend-mode:color-dodge" d="M171.748 124.346C171.743 124.702 171.633 125.05 171.431 125.344C171.23 125.638 170.946 125.867 170.614 126C170.283 126.134 169.92 126.167 169.57 126.095C169.221 126.023 168.9 125.85 168.648 125.596C168.397 125.343 168.226 125.021 168.157 124.671C168.088 124.321 168.124 123.959 168.261 123.629C168.398 123.3 168.629 123.018 168.925 122.819C169.222 122.621 169.57 122.514 169.927 122.512C170.168 122.51 170.407 122.556 170.63 122.648C170.853 122.739 171.055 122.874 171.225 123.045C171.395 123.216 171.528 123.419 171.618 123.643C171.708 123.866 171.752 124.105 171.748 124.346Z" fill="url(#paint39_radial_1413_5011)"/>
<path style="mix-blend-mode:color-dodge" d="M177.375 156.27C177.375 156.612 177.273 156.947 177.083 157.232C176.892 157.516 176.622 157.738 176.305 157.869C175.988 158 175.64 158.035 175.303 157.968C174.967 157.901 174.658 157.736 174.416 157.494C174.173 157.252 174.008 156.944 173.942 156.608C173.875 156.272 173.909 155.924 174.04 155.608C174.171 155.291 174.394 155.021 174.679 154.831C174.964 154.641 175.299 154.539 175.642 154.539C176.101 154.539 176.542 154.721 176.867 155.046C177.192 155.371 177.375 155.811 177.375 156.27Z" fill="url(#paint40_radial_1413_5011)"/>
<path style="mix-blend-mode:color-dodge" d="M123.627 124.828C123.627 125.178 123.523 125.52 123.328 125.812C123.133 126.103 122.856 126.33 122.532 126.464C122.208 126.598 121.852 126.633 121.508 126.564C121.164 126.496 120.848 126.328 120.6 126.08C120.352 125.832 120.184 125.517 120.115 125.173C120.047 124.83 120.082 124.474 120.216 124.15C120.35 123.827 120.577 123.55 120.869 123.356C121.161 123.161 121.503 123.057 121.854 123.057C122.324 123.057 122.775 123.244 123.108 123.576C123.44 123.908 123.627 124.358 123.627 124.828Z" fill="url(#paint41_radial_1413_5011)"/>
<path style="mix-blend-mode:color-dodge" d="M183.936 178.891C183.937 179.253 183.832 179.607 183.632 179.908C183.432 180.209 183.147 180.444 182.813 180.584C182.479 180.723 182.111 180.76 181.756 180.691C181.401 180.621 181.074 180.448 180.818 180.193C180.561 179.938 180.386 179.613 180.315 179.258C180.244 178.904 180.28 178.536 180.418 178.202C180.556 177.868 180.79 177.583 181.091 177.382C181.392 177.181 181.746 177.073 182.108 177.073C182.347 177.072 182.585 177.119 182.807 177.209C183.028 177.3 183.23 177.434 183.4 177.603C183.57 177.772 183.705 177.973 183.797 178.194C183.889 178.415 183.936 178.652 183.936 178.891Z" fill="url(#paint42_radial_1413_5011)"/>
<path style="mix-blend-mode:color-dodge" d="M98.4337 126.148C98.4337 126.5 98.3292 126.843 98.1336 127.136C97.9379 127.428 97.6598 127.656 97.3344 127.791C97.009 127.926 96.6509 127.961 96.3055 127.892C95.96 127.824 95.6427 127.654 95.3937 127.405C95.1446 127.157 94.975 126.84 94.9063 126.495C94.8376 126.15 94.8728 125.792 95.0076 125.467C95.1424 125.142 95.3707 124.865 95.6635 124.669C95.9564 124.474 96.3007 124.37 96.6529 124.37C97.1252 124.37 97.5781 124.557 97.9121 124.89C98.2461 125.224 98.4337 125.676 98.4337 126.148Z" fill="url(#paint43_radial_1413_5011)"/>
<path style="mix-blend-mode:color-dodge" d="M132.403 151.354C132.403 151.713 132.297 152.065 132.097 152.364C131.897 152.663 131.612 152.896 131.28 153.033C130.947 153.171 130.581 153.207 130.228 153.137C129.875 153.067 129.55 152.894 129.296 152.639C129.041 152.385 128.868 152.061 128.798 151.708C128.727 151.356 128.763 150.99 128.901 150.658C129.039 150.326 129.272 150.042 129.572 149.842C129.871 149.643 130.223 149.536 130.583 149.536C131.066 149.536 131.529 149.727 131.87 150.068C132.212 150.409 132.403 150.872 132.403 151.354Z" fill="url(#paint44_radial_1413_5011)"/>
<path style="mix-blend-mode:color-dodge" d="M95.5687 156.246C95.5687 156.607 95.4615 156.96 95.2606 157.261C95.0597 157.561 94.7741 157.795 94.4401 157.933C94.106 158.071 93.7384 158.108 93.3837 158.037C93.0291 157.967 92.7033 157.793 92.4476 157.537C92.1919 157.282 92.0178 156.957 91.9472 156.603C91.8767 156.248 91.9129 155.881 92.0513 155.548C92.1897 155.214 92.424 154.929 92.7247 154.728C93.0253 154.528 93.3788 154.421 93.7404 154.421C93.9808 154.42 94.219 154.466 94.4413 154.557C94.6636 154.649 94.8656 154.783 95.0355 154.953C95.2055 155.123 95.3401 155.324 95.4317 155.546C95.5232 155.768 95.5697 156.006 95.5687 156.246Z" fill="url(#paint45_radial_1413_5011)"/>
<path style="mix-blend-mode:color-dodge" d="M149.302 155.029C149.302 155.364 149.202 155.691 149.016 155.969C148.83 156.247 148.565 156.464 148.256 156.592C147.946 156.72 147.606 156.753 147.277 156.688C146.949 156.623 146.647 156.462 146.41 156.225C146.173 155.989 146.012 155.687 145.947 155.359C145.881 155.031 145.915 154.691 146.043 154.382C146.171 154.073 146.388 153.809 146.667 153.623C146.945 153.437 147.273 153.338 147.608 153.338C147.831 153.337 148.051 153.38 148.257 153.464C148.463 153.549 148.65 153.673 148.808 153.831C148.965 153.988 149.09 154.175 149.175 154.381C149.259 154.586 149.303 154.807 149.302 155.029Z" fill="url(#paint46_radial_1413_5011)"/>
<path style="mix-blend-mode:color-dodge" d="M138.562 122.583C138.563 122.923 138.464 123.255 138.276 123.538C138.089 123.821 137.821 124.042 137.507 124.173C137.193 124.305 136.848 124.34 136.514 124.274C136.181 124.209 135.874 124.046 135.633 123.807C135.392 123.567 135.227 123.262 135.161 122.929C135.094 122.596 135.127 122.25 135.257 121.937C135.387 121.623 135.607 121.354 135.889 121.166C136.172 120.977 136.504 120.876 136.844 120.876C137.299 120.876 137.734 121.056 138.056 121.376C138.378 121.695 138.56 122.13 138.562 122.583Z" fill="url(#paint47_radial_1413_5011)"/>
<path style="mix-blend-mode:color-dodge" d="M177.241 111.399C177.241 111.753 177.135 112.098 176.938 112.392C176.742 112.686 176.462 112.915 176.134 113.05C175.807 113.185 175.447 113.22 175.1 113.151C174.753 113.081 174.434 112.91 174.184 112.659C173.934 112.409 173.765 112.09 173.696 111.743C173.628 111.396 173.665 111.036 173.802 110.71C173.938 110.384 174.169 110.105 174.464 109.91C174.759 109.715 175.106 109.611 175.46 109.613C175.933 109.615 176.386 109.804 176.719 110.139C177.053 110.474 177.241 110.927 177.241 111.399Z" fill="url(#paint48_radial_1413_5011)"/>
<path style="mix-blend-mode:color-dodge" d="M161.641 81.0477C161.641 81.4072 161.534 81.7587 161.334 82.0576C161.134 82.3566 160.85 82.5896 160.517 82.7272C160.184 82.8648 159.818 82.9008 159.465 82.8306C159.112 82.7605 158.788 82.5874 158.533 82.3331C158.279 82.0789 158.105 81.755 158.035 81.4023C157.965 81.0497 158.001 80.6842 158.139 80.352C158.276 80.0198 158.51 79.7359 158.809 79.5361C159.108 79.3364 159.46 79.2297 159.82 79.2297C160.303 79.2297 160.766 79.4213 161.108 79.7622C161.449 80.1031 161.641 80.5655 161.641 81.0477Z" fill="url(#paint49_radial_1413_5011)"/>
<path style="mix-blend-mode:color-dodge" d="M135.34 40.4052C135.34 40.7511 135.237 41.0891 135.045 41.3765C134.852 41.664 134.579 41.8878 134.258 42.0198C133.938 42.1518 133.586 42.1859 133.247 42.1179C132.907 42.0498 132.596 41.8827 132.351 41.6376C132.107 41.3925 131.941 41.0805 131.874 40.7412C131.808 40.4018 131.844 40.0503 131.977 39.7313C132.111 39.4122 132.336 39.14 132.625 38.949C132.914 38.758 133.253 38.6569 133.599 38.6585C134.061 38.6606 134.504 38.8455 134.831 39.1729C135.157 39.5002 135.34 39.9433 135.34 40.4052Z" fill="url(#paint50_radial_1413_5011)"/>
<path style="mix-blend-mode:color-dodge" d="M136.417 37.4255C136.418 37.7666 136.318 38.1005 136.13 38.3849C135.941 38.6693 135.672 38.8914 135.357 39.0231C135.042 39.1547 134.695 39.1899 134.359 39.1243C134.024 39.0588 133.716 38.8953 133.474 38.6546C133.232 38.414 133.067 38.1069 133 37.7725C132.932 37.438 132.966 37.0912 133.096 36.7759C133.227 36.4606 133.448 36.191 133.732 36.0013C134.016 35.8116 134.35 35.7103 134.691 35.7103C134.917 35.7093 135.142 35.7529 135.351 35.8386C135.56 35.9244 135.75 36.0505 135.911 36.2099C136.071 36.3693 136.198 36.5587 136.285 36.7673C136.372 36.9759 136.417 37.1996 136.417 37.4255Z" fill="url(#paint51_radial_1413_5011)"/>
<path style="mix-blend-mode:color-dodge" d="M154.66 68.9941C154.66 69.3333 154.559 69.6649 154.37 69.947C154.181 70.2291 153.913 70.4489 153.599 70.5787C153.286 70.7085 152.94 70.7425 152.607 70.6763C152.274 70.6101 151.968 70.4468 151.728 70.2069C151.487 69.967 151.324 69.6614 151.258 69.3287C151.191 68.996 151.225 68.6511 151.355 68.3377C151.485 68.0243 151.705 67.7565 151.988 67.568C152.27 67.3795 152.602 67.2789 152.942 67.2789C153.398 67.2789 153.834 67.4596 154.157 67.7813C154.479 68.1029 154.66 68.5392 154.66 68.9941Z" fill="url(#paint52_radial_1413_5011)"/>
</g>
<path d="M110.852 203.283C110.979 201.987 110.338 198.153 111.121 196.96C111.905 195.766 111.62 197.15 113.068 196.272L136.559 186.139L136.496 190.818L119.511 201.441C119.055 201.702 118.661 202.058 118.355 202.485C118.097 202.845 117.941 203.268 117.904 203.71C117.875 204.152 117.965 204.595 118.165 204.99C118.41 205.447 118.754 205.844 119.171 206.152C119.648 206.517 120.183 206.8 120.754 206.99C121.355 207.189 121.981 207.306 122.613 207.338C123.248 207.369 123.884 207.316 124.505 207.18C125.105 207.054 125.68 206.83 126.207 206.516L133.449 202.192C134.983 201.287 136.657 200.643 138.403 200.287C140.232 199.892 142.297 198.865 144.236 198.952C146.193 199.042 148.132 199.36 150.014 199.9C151.937 200.438 153.536 202.074 155.127 203.062C156.559 203.89 157.815 204.991 158.823 206.302C159.686 207.488 161.554 202.706 161.672 203.931C161.791 205.156 161.926 211.527 161.174 212.705C160.422 213.882 157.264 215.771 155.633 216.696L139.298 225.485L132.064 220.593L131.929 216.427L148.02 211.922C148.485 211.668 148.885 211.311 149.191 210.879C149.44 210.528 149.573 210.108 149.571 209.677C149.554 209.237 149.408 208.811 149.151 208.452C148.839 208.006 148.434 207.631 147.964 207.354C147.427 207.004 146.84 206.737 146.223 206.563C145.589 206.384 144.935 206.283 144.276 206.263C143.625 206.236 142.973 206.295 142.337 206.437C141.738 206.562 141.163 206.783 140.635 207.093L133.18 211.487C131.543 212.436 129.762 213.114 127.908 213.495C125.981 213.914 124.007 214.087 122.036 214.009C120.224 213.862 118.442 213.452 116.749 212.792C114.944 212.207 111.715 209.14 111.082 207.796L110.852 203.283Z" fill="url(#paint53_linear_1413_5011)"/>
<path d="M113.757 204.619C112.57 203.697 111.64 202.486 111.058 201.102C110.55 199.869 110.378 198.525 110.559 197.205C110.752 195.844 111.267 194.548 112.063 193.427C112.967 192.144 114.132 191.066 115.482 190.265L131.011 180.512L137.77 185.404L121.79 195.332C121.332 195.602 120.934 195.963 120.619 196.391C120.355 196.757 120.189 197.184 120.136 197.632C120.095 198.071 120.174 198.514 120.365 198.912C120.596 199.365 120.929 199.757 121.339 200.058C121.814 200.416 122.35 200.684 122.922 200.849C123.518 201.041 124.139 201.148 124.766 201.165C125.4 201.189 126.034 201.125 126.65 200.975C127.255 200.837 127.834 200.605 128.367 200.287L135.688 195.822C137.228 194.889 138.909 194.213 140.667 193.822C142.516 193.395 144.413 193.209 146.31 193.269C148.244 193.318 150.166 193.602 152.032 194.114C153.852 194.595 155.592 195.335 157.2 196.312C158.594 197.11 159.809 198.186 160.77 199.473C161.54 200.524 161.986 201.777 162.052 203.078C162.058 204.377 161.663 205.646 160.92 206.713C159.983 208.048 158.754 209.154 157.327 209.946L139.416 220.522L132.388 215.724L149.8 205.362C150.272 205.097 150.68 204.733 150.995 204.295C151.25 203.939 151.394 203.515 151.407 203.078C151.401 202.644 151.269 202.221 151.027 201.86C150.729 201.42 150.337 201.05 149.879 200.777C149.354 200.443 148.78 200.193 148.178 200.034C146.916 199.69 145.589 199.665 144.315 199.963C143.712 200.103 143.135 200.338 142.606 200.659L135.087 205.196C133.445 206.168 131.661 206.878 129.8 207.298C127.881 207.747 125.913 207.954 123.943 207.915C122.041 207.876 120.153 207.578 118.331 207.03C116.667 206.523 115.114 205.705 113.757 204.619Z" fill="#F7F7F7"/>
<defs>
<linearGradient id="paint0_linear_1413_5011" x1="283.155" y1="217.921" x2="-241.019" y2="255.455" gradientUnits="userSpaceOnUse">
<stop stop-color="#CEFF6B"/>
<stop offset="0.11" stop-color="#B5E05E" stop-opacity="0.88"/>
<stop offset="0.56" stop-color="#556B2C" stop-opacity="0.41"/>
<stop offset="0.86" stop-color="#19210C" stop-opacity="0.12"/>
<stop offset="1" stop-color="#010400" stop-opacity="0"/>
</linearGradient>
<linearGradient id="paint1_linear_1413_5011" x1="227.625" y1="281.217" x2="0.572368" y2="154.405" gradientUnits="userSpaceOnUse">
<stop stop-color="#CEFF6B"/>
<stop offset="0.11" stop-color="#B5E05E" stop-opacity="0.88"/>
<stop offset="0.56" stop-color="#556B2C" stop-opacity="0.41"/>
<stop offset="0.86" stop-color="#19210C" stop-opacity="0.12"/>
<stop offset="1" stop-color="#010400" stop-opacity="0"/>
</linearGradient>
<linearGradient id="paint2_linear_1413_5011" x1="205.821" y1="177.026" x2="280.78" y2="134.938" gradientUnits="userSpaceOnUse">
<stop stop-color="#CEFF6B"/>
<stop offset="0.11" stop-color="#B5E05E" stop-opacity="0.88"/>
<stop offset="0.56" stop-color="#556B2C" stop-opacity="0.41"/>
<stop offset="0.86" stop-color="#19210C" stop-opacity="0.12"/>
<stop offset="1" stop-color="#010400" stop-opacity="0"/>
</linearGradient>
<linearGradient id="paint3_linear_1413_5011" x1="87.0293" y1="248.581" x2="-3.33292" y2="301.889" gradientUnits="userSpaceOnUse">
<stop stop-color="#CEFF6B"/>
<stop offset="0.11" stop-color="#B5E05E" stop-opacity="0.88"/>
<stop offset="0.56" stop-color="#556B2C" stop-opacity="0.41"/>
<stop offset="0.86" stop-color="#19210C" stop-opacity="0.12"/>
<stop offset="1" stop-color="#010400" stop-opacity="0"/>
</linearGradient>
<linearGradient id="paint4_linear_1413_5011" x1="265.204" y1="236.97" x2="87.7913" y2="335.799" gradientUnits="userSpaceOnUse">
<stop stop-color="#CEFF6B"/>
<stop offset="0.11" stop-color="#B5E05E" stop-opacity="0.88"/>
<stop offset="0.56" stop-color="#556B2C" stop-opacity="0.41"/>
<stop offset="0.86" stop-color="#19210C" stop-opacity="0.12"/>
<stop offset="1" stop-color="#010400" stop-opacity="0"/>
</linearGradient>
<linearGradient id="paint5_linear_1413_5011" x1="204.65" y1="203.33" x2="69.9587" y2="196.626" gradientUnits="userSpaceOnUse">
<stop stop-color="#E8E9FF"/>
<stop offset="1" stop-color="#C0C0F6"/>
</linearGradient>
<linearGradient id="paint6_linear_1413_5011" x1="214.463" y1="189.159" x2="168.579" y2="267.699" gradientUnits="userSpaceOnUse">
<stop stop-color="#E8E9FF"/>
<stop offset="1" stop-color="#C0C0F6"/>
</linearGradient>
<linearGradient id="paint7_linear_1413_5011" x1="132.072" y1="254.596" x2="43.7579" y2="216.554" gradientUnits="userSpaceOnUse">
<stop stop-color="#B6B9FE"/>
<stop offset="1" stop-color="#12121C"/>
</linearGradient>
<linearGradient id="paint8_linear_1413_5011" x1="237.178" y1="224.948" x2="130.702" y2="250.915" gradientUnits="userSpaceOnUse">
<stop stop-color="#E8E9FF"/>
<stop offset="1" stop-color="#C0C0F6"/>
</linearGradient>
<linearGradient id="paint9_linear_1413_5011" x1="210.878" y1="203.465" x2="71.1182" y2="264.464" gradientUnits="userSpaceOnUse">
<stop stop-color="#4E0F82"/>
<stop offset="1" stop-color="white" stop-opacity="0"/>
</linearGradient>
<radialGradient id="paint10_radial_1413_5011" cx="0" cy="0" r="1" gradientUnits="userSpaceOnUse" gradientTransform="translate(135.712 201.876) scale(217.44 217.147)">
<stop stop-color="#D3FF84"/>
<stop offset="0.85" stop-opacity="0"/>
</radialGradient>
<linearGradient id="paint11_linear_1413_5011" x1="211.139" y1="204.982" x2="15.5045" y2="201.495" gradientUnits="userSpaceOnUse">
<stop stop-color="#AAFF00"/>
<stop offset="1" stop-color="#9FF1C7"/>
</linearGradient>
<linearGradient id="paint12_linear_1413_5011" x1="192.151" y1="195.458" x2="55.3854" y2="214.953" gradientUnits="userSpaceOnUse">
<stop stop-color="#E8E9FF"/>
<stop offset="1" stop-color="#501275"/>
</linearGradient>
<linearGradient id="paint13_linear_1413_5011" x1="230.126" y1="191.324" x2="64.4604" y2="148.757" gradientUnits="userSpaceOnUse">
<stop stop-color="white"/>
<stop offset="1" stop-color="white" stop-opacity="0"/>
</linearGradient>
<linearGradient id="paint14_linear_1413_5011" x1="230.126" y1="155.598" x2="64.4604" y2="113.03" gradientUnits="userSpaceOnUse">
<stop stop-color="white"/>
<stop offset="1" stop-color="white" stop-opacity="0"/>
</linearGradient>
<linearGradient id="paint15_linear_1413_5011" x1="230.126" y1="118.75" x2="64.4604" y2="76.1819" gradientUnits="userSpaceOnUse">
<stop stop-color="white"/>
<stop offset="1" stop-color="white" stop-opacity="0"/>
</linearGradient>
<linearGradient id="paint16_linear_1413_5011" x1="66.293" y1="191.143" x2="190.821" y2="184.152" gradientUnits="userSpaceOnUse">
<stop stop-color="#B6B9FE"/>
<stop offset="1" stop-color="#AAFF00"/>
</linearGradient>
<radialGradient id="paint17_radial_1413_5011" cx="0" cy="0" r="1" gradientUnits="userSpaceOnUse" gradientTransform="translate(126.12 51.3997) scale(1.69374 1.69146)">
<stop stop-color="#E9FFF2"/>
<stop offset="0.85" stop-opacity="0"/>
</radialGradient>
<radialGradient id="paint18_radial_1413_5011" cx="0" cy="0" r="1" gradientUnits="userSpaceOnUse" gradientTransform="translate(153.766 82.004) scale(1.74123 1.73888)">
<stop stop-color="#E9FFF2"/>
<stop offset="0.85" stop-opacity="0"/>
</radialGradient>
<radialGradient id="paint19_radial_1413_5011" cx="0" cy="0" r="1" gradientUnits="userSpaceOnUse" gradientTransform="translate(123.729 60.7027) scale(1.7808 1.7784)">
<stop stop-color="#E9FFF2"/>
<stop offset="0.85" stop-opacity="0"/>
</radialGradient>
<radialGradient id="paint20_radial_1413_5011" cx="0" cy="0" r="1" gradientUnits="userSpaceOnUse" gradientTransform="translate(135.918 78.4947) scale(1.82829 1.82582)">
<stop stop-color="#E9FFF2"/>
<stop offset="0.85" stop-opacity="0"/>
</radialGradient>
<radialGradient id="paint21_radial_1413_5011" cx="0" cy="0" r="1" gradientUnits="userSpaceOnUse" gradientTransform="translate(134.533 96.6581) scale(1.7254 1.72307)">
<stop stop-color="#E9FFF2"/>
<stop offset="0.85" stop-opacity="0"/>
</radialGradient>
<radialGradient id="paint22_radial_1413_5011" cx="0" cy="0" r="1" gradientUnits="userSpaceOnUse" gradientTransform="translate(109.539 153.132) scale(1.7808 1.7784)">
<stop stop-color="#E9FFF2"/>
<stop offset="0.85" stop-opacity="0"/>
</radialGradient>
<radialGradient id="paint23_radial_1413_5011" cx="0" cy="0" r="1" gradientUnits="userSpaceOnUse" gradientTransform="translate(100.113 173.335) scale(1.75706 1.75469)">
<stop stop-color="#E9FFF2"/>
<stop offset="0.85" stop-opacity="0"/>
</radialGradient>
<radialGradient id="paint24_radial_1413_5011" cx="0" cy="0" r="1" gradientUnits="userSpaceOnUse" gradientTransform="translate(180.905 168.181) scale(1.82829 1.82582)">
<stop stop-color="#E9FFF2"/>
<stop offset="0.85" stop-opacity="0"/>
</radialGradient>
<radialGradient id="paint25_radial_1413_5011" cx="0" cy="0" r="1" gradientUnits="userSpaceOnUse" gradientTransform="translate(146.571 124.615) scale(1.73331 1.73097)">
<stop stop-color="#E9FFF2"/>
<stop offset="0.85" stop-opacity="0"/>
</radialGradient>
<radialGradient id="paint26_radial_1413_5011" cx="0" cy="0" r="1" gradientUnits="userSpaceOnUse" gradientTransform="translate(114.572 57.5175) scale(1.82037 1.81792)">
<stop stop-color="#E9FFF2"/>
<stop offset="0.85" stop-opacity="0"/>
</radialGradient>
<radialGradient id="paint27_radial_1413_5011" cx="0" cy="0" r="1" gradientUnits="userSpaceOnUse" gradientTransform="translate(96.6531 48.823) scale(1.7254 1.72307)">
<stop stop-color="#E9FFF2"/>
<stop offset="0.85" stop-opacity="0"/>
</radialGradient>
<radialGradient id="paint28_radial_1413_5011" cx="0" cy="0" r="1" gradientUnits="userSpaceOnUse" gradientTransform="translate(80.6657 31.7346) scale(1.71748 1.71517)">
<stop stop-color="#E9FFF2"/>
<stop offset="0.85" stop-opacity="0"/>
</radialGradient>
<radialGradient id="paint29_radial_1413_5011" cx="0" cy="0" r="1" gradientUnits="userSpaceOnUse" gradientTransform="translate(109.435 38.8403) scale(1.78872 1.78631)">
<stop stop-color="#E9FFF2"/>
<stop offset="0.85" stop-opacity="0"/>
</radialGradient>
<radialGradient id="paint30_radial_1413_5011" cx="0" cy="0" r="1" gradientUnits="userSpaceOnUse" gradientTransform="translate(158.419 24.5261) scale(1.67791 1.67565)">
<stop stop-color="#E9FFF2"/>
<stop offset="0.85" stop-opacity="0"/>
</radialGradient>
<radialGradient id="paint31_radial_1413_5011" cx="0" cy="0" r="1" gradientUnits="userSpaceOnUse" gradientTransform="translate(166.674 39.4963) scale(1.68582 1.68355)">
<stop stop-color="#E9FFF2"/>
<stop offset="0.85" stop-opacity="0"/>
</radialGradient>
<radialGradient id="paint32_radial_1413_5011" cx="0" cy="0" r="1" gradientUnits="userSpaceOnUse" gradientTransform="translate(165.574 46.9419) scale(1.73331 1.73098)">
<stop stop-color="#E9FFF2"/>
<stop offset="0.85" stop-opacity="0"/>
</radialGradient>
<radialGradient id="paint33_radial_1413_5011" cx="0" cy="0" r="1" gradientUnits="userSpaceOnUse" gradientTransform="translate(157.216 62.5523) scale(1.75706 1.75469)">
<stop stop-color="#E9FFF2"/>
<stop offset="0.85" stop-opacity="0"/>
</radialGradient>
<radialGradient id="paint34_radial_1413_5011" cx="0" cy="0" r="1" gradientUnits="userSpaceOnUse" gradientTransform="translate(143.279 106.633) scale(1.67 1.66774)">
<stop stop-color="#E9FFF2"/>
<stop offset="0.85" stop-opacity="0"/>
</radialGradient>
<radialGradient id="paint35_radial_1413_5011" cx="0" cy="0" r="1" gradientUnits="userSpaceOnUse" gradientTransform="translate(121.126 68.5989) scale(1.7254 1.72307)">
<stop stop-color="#E9FFF2"/>
<stop offset="0.85" stop-opacity="0"/>
</radialGradient>
<radialGradient id="paint36_radial_1413_5011" cx="0" cy="0" r="1" gradientUnits="userSpaceOnUse" gradientTransform="translate(94.049 91.6627) scale(1.67791 1.67565)">
<stop stop-color="#E9FFF2"/>
<stop offset="0.85" stop-opacity="0"/>
</radialGradient>
<radialGradient id="paint37_radial_1413_5011" cx="0" cy="0" r="1" gradientUnits="userSpaceOnUse" gradientTransform="translate(89.9257 69.6264) scale(1.73331 1.73098)">
<stop stop-color="#E9FFF2"/>
<stop offset="0.85" stop-opacity="0"/>
</radialGradient>
<radialGradient id="paint38_radial_1413_5011" cx="0" cy="0" r="1" gradientUnits="userSpaceOnUse" gradientTransform="translate(108.865 116.671) scale(1.74123 1.73888)">
<stop stop-color="#E9FFF2"/>
<stop offset="0.85" stop-opacity="0"/>
</radialGradient>
<radialGradient id="paint39_radial_1413_5011" cx="0" cy="0" r="1" gradientUnits="userSpaceOnUse" gradientTransform="translate(169.927 124.346) scale(1.80454 1.80211)">
<stop stop-color="#E9FFF2"/>
<stop offset="0.85" stop-opacity="0"/>
</radialGradient>
<radialGradient id="paint40_radial_1413_5011" cx="0" cy="0" r="1" gradientUnits="userSpaceOnUse" gradientTransform="translate(175.642 156.27) scale(1.73331 1.73098)">
<stop stop-color="#E9FFF2"/>
<stop offset="0.85" stop-opacity="0"/>
</radialGradient>
<radialGradient id="paint41_radial_1413_5011" cx="0" cy="0" r="1" gradientUnits="userSpaceOnUse" gradientTransform="translate(121.854 124.828) scale(1.77288 1.77049)">
<stop stop-color="#E9FFF2"/>
<stop offset="0.85" stop-opacity="0"/>
</radialGradient>
<radialGradient id="paint42_radial_1413_5011" cx="0" cy="0" r="1" gradientUnits="userSpaceOnUse" gradientTransform="translate(182.108 178.891) scale(1.82037 1.81792)">
<stop stop-color="#E9FFF2"/>
<stop offset="0.85" stop-opacity="0"/>
</radialGradient>
<radialGradient id="paint43_radial_1413_5011" cx="0" cy="0" r="1" gradientUnits="userSpaceOnUse" gradientTransform="translate(96.6529 126.148) scale(1.7808 1.7784)">
<stop stop-color="#E9FFF2"/>
<stop offset="0.85" stop-opacity="0"/>
</radialGradient>
<radialGradient id="paint44_radial_1413_5011" cx="0" cy="0" r="1" gradientUnits="userSpaceOnUse" gradientTransform="translate(130.583 151.354) scale(1.82037 1.81792)">
<stop stop-color="#E9FFF2"/>
<stop offset="0.85" stop-opacity="0"/>
</radialGradient>
<radialGradient id="paint45_radial_1413_5011" cx="0" cy="0" r="1" gradientUnits="userSpaceOnUse" gradientTransform="translate(93.7404 156.246) scale(1.82829 1.82583)">
<stop stop-color="#E9FFF2"/>
<stop offset="0.85" stop-opacity="0"/>
</radialGradient>
<radialGradient id="paint46_radial_1413_5011" cx="0" cy="0" r="1" gradientUnits="userSpaceOnUse" gradientTransform="translate(147.608 155.029) scale(1.68582 1.68355)">
<stop stop-color="#E9FFF2"/>
<stop offset="0.85" stop-opacity="0"/>
</radialGradient>
<radialGradient id="paint47_radial_1413_5011" cx="0" cy="0" r="1" gradientUnits="userSpaceOnUse" gradientTransform="translate(136.844 122.583) scale(1.71748 1.71517)">
<stop stop-color="#E9FFF2"/>
<stop offset="0.85" stop-opacity="0"/>
</radialGradient>
<radialGradient id="paint48_radial_1413_5011" cx="0" cy="0" r="1" gradientUnits="userSpaceOnUse" gradientTransform="translate(175.46 111.399) scale(1.78871 1.78631)">
<stop stop-color="#E9FFF2"/>
<stop offset="0.85" stop-opacity="0"/>
</radialGradient>
<radialGradient id="paint49_radial_1413_5011" cx="0" cy="0" r="1" gradientUnits="userSpaceOnUse" gradientTransform="translate(159.82 81.0477) scale(1.82037 1.81792)">
<stop stop-color="#E9FFF2"/>
<stop offset="0.85" stop-opacity="0"/>
</radialGradient>
<radialGradient id="paint50_radial_1413_5011" cx="0" cy="0" r="1" gradientUnits="userSpaceOnUse" gradientTransform="translate(133.559 40.4052) scale(1.74123 1.73888)">
<stop stop-color="#E9FFF2"/>
<stop offset="0.85" stop-opacity="0"/>
</radialGradient>
<radialGradient id="paint51_radial_1413_5011" cx="0" cy="0" r="1" gradientUnits="userSpaceOnUse" gradientTransform="translate(134.691 37.4255) scale(1.7254 1.72307)">
<stop stop-color="#E9FFF2"/>
<stop offset="0.85" stop-opacity="0"/>
</radialGradient>
<radialGradient id="paint52_radial_1413_5011" cx="0" cy="0" r="1" gradientUnits="userSpaceOnUse" gradientTransform="translate(152.942 68.9941) scale(1.71748 1.71517)">
<stop stop-color="#E9FFF2"/>
<stop offset="0.85" stop-opacity="0"/>
</radialGradient>
<linearGradient id="paint53_linear_1413_5011" x1="110.726" y1="205.812" x2="161.791" y2="205.812" gradientUnits="userSpaceOnUse">
<stop stop-color="#EBECFF"/>
<stop offset="1" stop-color="#009E0A"/>
</linearGradient>
</defs>
</svg>
