<svg width="162" height="107" viewBox="0 0 162 107" fill="none" xmlns="http://www.w3.org/2000/svg">
    <path
        d="M76.846 106.539C119.287 106.539 153.692 103.233 153.692 99.1537C153.692 95.0746 119.287 91.7679 76.846 91.7679C34.4051 91.7679 0 95.0746 0 99.1537C0 103.233 34.4051 106.539 76.846 106.539Z"
        fill="#F5F5F5" fill-opacity="0.02" />
    <path d="M5.70126 27.3792L5.04028 27.4565L6.21542 37.5008L6.8764 37.4235L5.70126 27.3792Z" fill="#AAFF00" />
    <path d="M7.31698 41.1608L6.65601 41.2382L7.24888 46.3057L7.90986 46.2283L7.31698 41.1608Z" fill="#AAFF00" />
    <path
        d="M51.2043 6.89942L50.4213 4.70717C49.3122 1.59497 46.2 -0.336292 42.9181 0.0486551L11.7374 3.69587C7.84874 4.15259 5.06276 7.67584 5.51948 11.5645L14.3928 87.4448C14.706 90.1133 17.1201 92.0185 19.7886 91.7119L131.352 78.6628C134.02 78.3496 135.925 75.9355 135.619 73.267L127.939 7.66931C127.626 5.00078 125.212 3.09561 122.544 3.40227L57.7614 10.9773C54.8972 11.3165 52.1764 9.62667 51.2043 6.89942Z"
        fill="#AAFF00" />
    <path
        d="M61.1608 8.30872L60.5867 6.16214C59.7776 3.11519 56.8742 1.22959 53.5989 1.61454L22.4181 5.26176C18.5295 5.71848 15.4499 9.16995 15.5413 12.9803L17.3094 87.2556C17.3747 89.8654 19.5865 91.7314 22.255 91.4183L133.818 78.3692C136.487 78.056 138.601 75.6876 138.535 73.0778L137.009 8.86983C136.943 6.26001 134.731 4.39399 132.063 4.70717L67.2808 12.2822C64.4035 12.6149 61.872 10.9707 61.1608 8.30872Z"
        fill="#AAFF00" />
    <path opacity="0.3"
        d="M61.1608 8.30872L60.5867 6.16214C59.7776 3.11519 56.8742 1.22959 53.5989 1.61454L22.4181 5.26176C18.5295 5.71848 15.4499 9.16995 15.5413 12.9803L17.3094 87.2556C17.3747 89.8654 19.5865 91.7314 22.255 91.4183L133.818 78.3692C136.487 78.056 138.601 75.6876 138.535 73.0778L137.009 8.86983C136.943 6.26001 134.731 4.39399 132.063 4.70717L67.2808 12.2822C64.4035 12.6149 61.872 10.9707 61.1608 8.30872Z"
        fill="black" />
    <path
        d="M155.465 21.1585C158.938 18.4154 159.529 13.3769 156.786 9.90465C154.043 6.43237 149.004 5.84121 145.532 8.58425C142.06 11.3273 141.469 16.3658 144.212 19.8381C146.955 23.3104 151.993 23.9015 155.465 21.1585Z"
        stroke="#AAFF00" stroke-width="3" stroke-miterlimit="10" />
    <path
        d="M155.447 14.1677L151.911 13.7502L152.328 10.2139L149.79 9.92027L149.379 13.4566L145.843 13.039L145.543 15.577L149.079 15.9881L148.662 19.5244L151.2 19.8245L151.611 16.2882L155.147 16.6993L155.447 14.1677Z"
        fill="#AAFF00" />
</svg>