<svg width="163" height="37" viewBox="0 0 163 37" fill="none" xmlns="http://www.w3.org/2000/svg">
<path d="M13.9302 35.1878H0V29.1157H13.9302C14.3469 29.1157 14.7041 28.9668 15.0017 28.6692C15.2994 28.3715 15.4482 28.0143 15.4482 27.5976C15.4482 27.166 15.2994 26.8833 15.0017 26.7493C14.7041 26.6154 14.3469 26.5484 13.9302 26.5484H7.59017C6.5335 26.5484 5.5438 26.3475 4.62107 25.9457C3.69835 25.5438 2.89468 25.0006 2.21008 24.316C1.52547 23.6165 0.982257 22.8054 0.580425 21.8827C0.193475 20.96 0 19.9703 0 18.9136C0 17.8569 0.193475 16.8672 0.580425 15.9445C0.982257 15.0218 1.52547 14.2181 2.21008 13.5335C2.89468 12.8489 3.69835 12.3131 4.62107 11.9262C5.5438 11.5243 6.5335 11.3234 7.59017 11.3234H19.9353V17.3956H7.59017C7.17345 17.3956 6.81627 17.5444 6.51861 17.842C6.22096 18.1397 6.07213 18.4969 6.07213 18.9136C6.07213 19.3452 6.22096 19.7172 6.51861 20.0298C6.81627 20.3274 7.17345 20.4763 7.59017 20.4763H13.9302C14.972 20.4763 15.9542 20.6549 16.877 21.012C17.7997 21.3543 18.6033 21.838 19.288 22.4631C19.9726 23.0882 20.5158 23.8398 20.9176 24.7178C21.3194 25.5959 21.5204 26.5558 21.5204 27.5976C21.5204 28.6543 21.3194 29.644 20.9176 30.5667C20.5158 31.4746 19.9726 32.2782 19.288 32.9777C18.6033 33.6623 17.7997 34.2055 16.877 34.6074C15.9542 34.9943 14.972 35.1878 13.9302 35.1878Z" fill="#E6E6E6"/>
<path d="M36.7677 35.1878C35.2943 35.1878 33.9102 34.9125 32.6154 34.3618C31.3206 33.7963 30.1821 33.0298 29.1998 32.0624C28.2324 31.0802 27.466 29.9416 26.9004 28.6469C26.3498 27.3521 26.0745 25.968 26.0745 24.4946V17.3956H23.1054V11.3234H26.0745V1.76874H32.1466V11.3234H41.3887V17.3956H32.1466V24.4946C32.1466 25.1345 32.2656 25.7373 32.5038 26.3028C32.7419 26.8535 33.0693 27.3372 33.486 27.7539C33.9027 28.1706 34.3939 28.5055 34.9594 28.7585C35.525 28.9966 36.1277 29.1157 36.7677 29.1157H41.3887V35.1878H36.7677Z" fill="#E6E6E6"/>
<path d="M67.9766 35.1878H66.5033L64.1369 31.9062C63.5565 32.4271 62.9388 32.9182 62.284 33.3795C61.6441 33.826 60.9669 34.2204 60.2525 34.5627C59.5382 34.8901 58.8015 35.1506 58.0424 35.3441C57.2983 35.5375 56.5393 35.6343 55.7654 35.6343C54.0837 35.6343 52.4986 35.3515 51.0104 34.786C49.537 34.2204 48.2422 33.4019 47.126 32.3303C46.0247 31.2439 45.154 29.9193 44.5141 28.3566C43.8741 26.794 43.5542 25.0155 43.5542 23.0212C43.5542 21.1609 43.8741 19.4568 44.5141 17.909C45.154 16.3463 46.0247 15.0069 47.126 13.8907C48.2422 12.7745 49.537 11.9113 51.0104 11.3011C52.4986 10.676 54.0837 10.3635 55.7654 10.3635C56.5393 10.3635 57.3058 10.4602 58.0648 10.6537C58.8238 10.8472 59.5605 11.1151 60.2748 11.4574C60.9892 11.7997 61.6664 12.2015 62.3063 12.6629C62.9612 13.1242 63.5714 13.6228 64.1369 14.1586L66.5033 11.3234H67.9766V35.1878ZM61.8375 23.0212C61.8375 22.1878 61.6738 21.3841 61.3464 20.6102C61.0339 19.8214 60.6023 19.1294 60.0516 18.5341C59.5009 17.9239 58.8535 17.4402 58.1094 17.083C57.3802 16.7109 56.5988 16.5249 55.7654 16.5249C54.932 16.5249 54.1432 16.6663 53.3991 16.9491C52.6698 17.2318 52.0298 17.6486 51.4792 18.1992C50.9434 18.7499 50.5193 19.4345 50.2067 20.253C49.8942 21.0567 49.7379 21.9794 49.7379 23.0212C49.7379 24.063 49.8942 24.9932 50.2067 25.8117C50.5193 26.6154 50.9434 27.2925 51.4792 27.8432C52.0298 28.3939 52.6698 28.8106 53.3991 29.0933C54.1432 29.3761 54.932 29.5175 55.7654 29.5175C56.5988 29.5175 57.3802 29.3389 58.1094 28.9817C58.8535 28.6096 59.5009 28.126 60.0516 27.5307C60.6023 26.9205 61.0339 26.2284 61.3464 25.4545C61.6738 24.6657 61.8375 23.8546 61.8375 23.0212Z" fill="#E6E6E6"/>
<path d="M93.5376 16.0338L89.0728 20.5209C88.8496 19.8958 88.5445 19.3377 88.1575 18.8466C87.7706 18.3406 87.3316 17.9164 86.8404 17.5741C86.3642 17.2318 85.8433 16.9714 85.2777 16.7928C84.7122 16.6142 84.1318 16.5249 83.5365 16.5249C82.703 16.5249 81.9143 16.6961 81.1701 17.0384C80.4409 17.3807 79.8009 17.8644 79.2503 18.4894C78.7145 19.0996 78.2903 19.8289 77.9778 20.6772C77.6653 21.5255 77.509 22.4631 77.509 23.49C77.509 24.3234 77.6653 25.1048 77.9778 25.834C78.2903 26.5633 78.7145 27.2032 79.2503 27.7539C79.8009 28.3046 80.4409 28.7362 81.1701 29.0487C81.9143 29.3612 82.703 29.5175 83.5365 29.5175C84.1318 29.5175 84.7048 29.4356 85.2554 29.2719C85.8061 29.1082 86.3195 28.8775 86.7958 28.5799C87.2869 28.2674 87.7185 27.8953 88.0906 27.4637C88.4775 27.0172 88.7901 26.5261 89.0282 25.9903L93.493 30.4774C92.9274 31.2811 92.2726 32.0029 91.5285 32.6429C90.7992 33.2828 90.003 33.826 89.1398 34.2725C88.2915 34.719 87.3911 35.0539 86.4386 35.2771C85.501 35.5152 84.5336 35.6343 83.5365 35.6343C81.8547 35.6343 80.2697 35.3217 78.7815 34.6967C77.3081 34.0567 76.0133 33.1861 74.8971 32.0848C73.7958 30.9834 72.9251 29.6961 72.2852 28.2227C71.6452 26.7493 71.3252 25.1718 71.3252 23.49C71.3252 21.6594 71.6452 19.9479 72.2852 18.3555C72.9251 16.763 73.7958 15.3789 74.8971 14.2032C76.0133 13.0126 77.3081 12.075 78.7815 11.3904C80.2697 10.7058 81.8547 10.3635 83.5365 10.3635C84.5336 10.3635 85.5084 10.49 86.4609 10.743C87.4283 10.996 88.3436 11.3681 89.2068 11.8592C90.0849 12.3354 90.8885 12.9233 91.6178 13.6228C92.3619 14.3223 93.0019 15.1259 93.5376 16.0338Z" fill="#E6E6E6"/>
<path d="M102.668 35.1878H96.5291V1.76874H102.668V22.8426L111.754 11.3234H118.764L110.839 21.2799L118.764 35.1878H111.754L106.91 26.5038L102.668 32.1294V35.1878Z" fill="#E6E6E6"/>
<path d="M138.476 0.712341H120.155L114.705 8.21265H119.214L122.207 4.24519H136.438L145.579 20.0808L136.431 31.8695H121.462L123.504 35.4114H138.472L149.653 20.0826L138.476 0.712341Z" fill="#AAFF00"/>
<path d="M138.844 36.1328H123.096L120.211 31.1482H136.081L144.705 20.0393L136.014 4.97556H122.555L119.562 8.94302H113.286L119.778 0H138.892L150.524 20.1439L138.844 36.1328ZM123.92 34.69H138.11L148.806 20.0393L138.064 1.4337H120.521L116.121 7.49129H118.848L121.841 3.52383H136.847L146.439 20.1385L136.784 32.5819H122.718L123.92 34.69Z" fill="#AAFF00"/>
<path d="M151.428 36.2031H144.879L155.765 19.574L149.289 8.42906L156.863 0.113617H163L155.469 8.42906L161.945 19.574L151.428 36.2031Z" fill="#AAFF00"/>
</svg>
