<svg width="12" height="9" viewBox="0 0 12 9" fill="none" xmlns="http://www.w3.org/2000/svg">
<path d="M11.9176 2.67713C10.4194 0.975644 8.26303 0 5.99977 0C3.73652 0 1.58015 0.975644 0.0819339 2.67713C-0.0317539 2.80672 -0.026466 3.01047 0.0936534 3.13245C0.213754 3.25483 0.40314 3.24879 0.517334 3.11997C1.90266 1.54589 3.90153 0.644122 5.99977 0.644122C8.09802 0.644122 10.0969 1.5467 11.4826 3.11997C11.5407 3.18639 11.6213 3.22061 11.7001 3.22061C11.7739 3.22061 11.8483 3.19167 11.9064 3.13255C12.0264 3.01127 12.032 2.80596 11.9176 2.67713ZM5.99977 3.2025C4.54188 3.2025 3.18711 3.80958 2.18581 4.91043C2.06955 5.05435 2.07142 5.25966 2.18956 5.38245C2.30909 5.50763 2.49895 5.50384 2.61389 5.37742C3.50213 4.40217 4.70408 3.86473 5.99977 3.86473C7.29547 3.86473 8.49742 4.40197 9.38622 5.37822C9.44435 5.44283 9.52123 5.47504 9.59998 5.47504C9.67557 5.47504 9.75117 5.44485 9.80981 5.38321C9.92818 5.2593 9.93053 5.05491 9.81449 4.9279C8.81244 3.82649 7.45861 3.2025 5.99977 3.2025ZM5.9829 6.42311C5.32005 6.42311 4.78283 7 4.78283 7.71155C4.78283 8.42311 5.32024 9 5.9829 9C6.64556 9 7.18297 8.42311 7.18297 7.71155C7.18297 7 6.66169 6.42311 5.9829 6.42311ZM5.99977 8.37359C5.66901 8.37359 5.39974 8.08454 5.39974 7.72947C5.39974 7.3744 5.66976 7.08535 5.99977 7.08535C6.32979 7.08535 6.59981 7.3744 6.59981 7.72947C6.59981 8.08454 6.32979 8.37359 5.99977 8.37359Z" fill="#AAFF00"/>
</svg>
