<svg width="14" height="14" viewBox="0 0 14 14" fill="none" xmlns="http://www.w3.org/2000/svg">
<path d="M1.31258 9.62304C0.587976 9.62304 8.89241e-05 10.2112 8.89241e-05 10.9361C8.89241e-05 11.6611 0.587976 12.2492 1.31258 12.2492C2.03719 12.2492 2.62507 11.6611 2.62507 10.9361C2.62507 10.2112 2.03719 9.62304 1.31258 9.62304ZM1.31258 11.8115C0.83024 11.8115 0.437586 11.4187 0.437586 10.9361C0.437586 10.4536 0.83024 10.0607 1.31258 10.0607C1.79492 10.0607 2.18758 10.4536 2.18758 10.9361C2.18758 11.4187 1.79492 11.8115 1.31258 11.8115ZM12.6875 9.62304C11.9629 9.62304 11.375 10.2112 11.375 10.9361C11.375 11.6611 11.9629 12.2492 12.6875 12.2492C13.4121 12.2492 14 11.6611 14 10.9361C14 10.2112 13.4121 9.62304 12.6875 9.62304ZM12.6875 11.8115C12.2052 11.8115 11.8125 11.4187 11.8125 10.9361C11.8125 10.4536 12.2052 10.0607 12.6875 10.0607C13.1698 10.0607 13.5625 10.4536 13.5625 10.9361C13.5625 11.4187 13.1688 11.8115 12.6875 11.8115ZM9.43362 9.92669C9.56009 9.53003 9.47806 9.08221 9.16702 8.76761C8.94614 8.54663 8.65953 8.44208 8.37105 8.44208C8.2488 8.44208 8.1263 8.46083 8.0082 8.49747C7.8168 8.12817 7.44438 7.86828 6.99977 7.86828C6.55516 7.86828 6.18274 8.12817 5.99134 8.49747C5.87349 8.4604 5.75044 8.44125 5.6274 8.44125C5.3392 8.44125 5.05291 8.54748 4.83225 8.76843C4.51779 9.08303 4.43904 9.53085 4.56223 9.92751C4.19309 10.119 3.93333 10.4916 3.93333 10.9364C3.93333 11.3812 4.19309 11.7538 4.56223 11.9453C4.43576 12.342 4.51779 12.7898 4.83225 13.1044C5.05783 13.3266 5.32716 13.4395 5.64572 13.4395C5.76193 13.4395 5.87814 13.4087 5.99079 13.3711C6.18247 13.7401 6.55708 14 7.00004 14C7.44301 14 7.81707 13.7401 8.00848 13.3708C8.12127 13.405 8.23748 13.4392 8.35355 13.4392C8.6475 13.4392 8.94144 13.3264 9.16702 13.1041C9.48147 12.7895 9.56022 12.3417 9.43362 11.945C9.80276 11.7541 10.0625 11.382 10.0625 10.9361C10.0625 10.4902 9.80276 10.1182 9.43362 9.92669ZM9.23128 11.5571C9.04206 11.6553 8.95101 11.8755 9.01584 12.0788C9.10022 12.3435 9.04073 12.6114 8.85911 12.7931C8.49489 13.152 8.17114 12.9339 8.00735 12.9339C7.84745 12.9339 7.69564 13.022 7.61908 13.1702C7.49223 13.4146 7.25981 13.5623 7.00004 13.5623C6.74028 13.5623 6.50759 13.4154 6.38017 13.1692C6.30322 13.0207 6.15138 12.9329 5.99161 12.9329C5.84065 12.9329 5.50271 13.1495 5.14232 12.7944C4.95942 12.6115 4.89713 12.3368 4.97976 12.0777C5.04449 11.8745 4.95354 11.6542 4.76432 11.556C4.51725 11.4285 4.37233 11.196 4.37233 10.9361C4.37233 10.6753 4.51919 10.4434 4.76525 10.316C4.9533 10.2184 5.04443 10 4.98171 9.79757C4.89894 9.53074 4.95933 9.26166 5.14325 9.07756C5.47958 8.74108 5.87168 8.93569 5.99254 8.93569C6.15228 8.93569 6.30399 8.84768 6.3811 8.69941C6.48325 8.4522 6.74028 8.30721 7.00004 8.30721C7.25981 8.30721 7.4925 8.45409 7.61992 8.70032C7.69673 8.84853 7.84843 8.93659 8.0082 8.93659C8.12436 8.93659 8.52609 8.74677 8.85585 9.07679C9.03769 9.2607 9.09932 9.5361 9.01666 9.79516C8.95194 9.99831 9.04288 10.2186 9.2321 10.3168C9.47737 10.4191 9.62503 10.6762 9.62503 10.9361C9.62503 11.196 9.47737 11.4285 9.23128 11.5571ZM13.9754 6.1707C14.0027 4.69895 12.8406 3.49529 11.375 3.49529C11.3579 3.49529 11.3443 3.50212 11.3306 3.50212C11.3613 3.35851 11.375 3.21078 11.375 3.05759C11.3751 2.12475 10.78 1.24388 9.86292 0.970324C8.91628 0.68801 8.05332 1.02205 7.51957 1.65559C6.94809 0.547947 5.73404 -0.145802 4.36412 0.0260485C2.95456 0.227963 1.86219 1.42531 1.7591 2.84645C1.73777 3.12051 1.75746 3.38039 1.80832 3.64027C0.735084 3.98769 -0.034364 5.0026 0.00118269 6.2008C0.0438387 7.63425 1.27649 8.74764 2.70984 8.74764H3.28132C3.40163 8.74764 3.50007 8.64916 3.50007 8.52879C3.50007 8.40843 3.40163 8.30995 3.28132 8.30995H2.6907C1.62813 8.30995 0.671374 7.57954 0.475594 6.53481C0.268548 5.42963 0.91227 4.39092 1.94312 4.05499L2.31171 3.93487L2.23679 3.55547C2.20398 3.38313 2.18758 3.1971 2.18758 3.05759C2.18758 1.9535 2.86159 0.96157 3.9012 0.591443C5.20275 0.128032 6.53684 0.708253 7.13047 1.85666L7.43153 2.4388L7.85371 1.93763C8.25648 1.45972 8.83999 1.23404 9.46233 1.32759C10.3762 1.46511 11.0004 2.27849 10.9321 3.20039C10.9266 3.27381 10.9168 3.34332 10.9024 3.41037L10.7899 3.94119H11.331C11.3612 3.94119 11.3875 3.93836 11.4103 3.93462C12.6539 3.95428 13.649 5.01737 13.5571 6.28532C13.4723 7.44002 12.4578 8.30995 11.2985 8.30995H10.7188C10.5985 8.30995 10.5 8.40843 10.5 8.52879C10.5 8.64916 10.5985 8.74764 10.7188 8.74764H11.2875C12.7313 8.74764 13.948 7.61784 13.9754 6.1707Z" fill="#AAFF00"/>
</svg>
