<svg width="13" height="13" viewBox="0 0 13 13" fill="none" xmlns="http://www.w3.org/2000/svg">
<path d="M12.7969 6.70312C12.9086 6.70312 13 6.61172 13 6.5C13 6.38828 12.9092 6.29688 12.7969 6.29688H11.375V4.26562H12.7969C12.9086 4.26562 13 4.17422 13 4.0625C13 3.95078 12.9092 3.85938 12.7969 3.85938H11.375C11.3673 3.85938 11.3628 3.86672 11.3553 3.86751C11.2596 2.67948 10.3204 1.74054 9.13262 1.64456C9.13301 1.63719 9.14062 1.63262 9.14062 1.625V0.203125C9.14062 0.0908477 9.04922 0 8.9375 0C8.82578 0 8.73438 0.0908477 8.73438 0.203125V1.625H6.70312V0.203125C6.70312 0.0908477 6.61172 0 6.5 0C6.38828 0 6.29688 0.0908477 6.29688 0.203125V1.625H4.26562V0.203125C4.26562 0.0908477 4.17422 0 4.0625 0C3.95078 0 3.85938 0.0908477 3.85938 0.203125V1.625C3.85938 1.63274 3.86666 1.6373 3.86751 1.64464C2.67871 1.74053 1.74027 2.67871 1.6448 3.86699C1.63719 3.86699 1.63262 3.85938 1.625 3.85938H0.203125C0.0908477 3.85938 0 3.95078 0 4.0625C0 4.17422 0.0908477 4.26562 0.203125 4.26562H1.625V6.29688H0.203125C0.0908477 6.29688 0 6.38828 0 6.5C0 6.61172 0.0908477 6.70312 0.203125 6.70312H1.625V8.73438H0.203125C0.0908477 8.73438 0 8.82578 0 8.9375C0 9.04922 0.0908477 9.14062 0.203125 9.14062H1.625C1.63269 9.14062 1.63725 9.13328 1.64469 9.13249C1.74041 10.3205 2.67961 11.2595 3.86738 11.3554C3.86699 11.3623 3.85938 11.3674 3.85938 11.375V12.7969C3.85938 12.9086 3.95078 13 4.0625 13C4.17422 13 4.26562 12.9092 4.26562 12.7969V11.375H6.29688V12.7969C6.29688 12.9086 6.38828 13 6.5 13C6.61172 13 6.70312 12.9092 6.70312 12.7969V11.375H8.73438V12.7969C8.73438 12.9092 8.82522 13 8.9375 13C9.04978 13 9.14062 12.9092 9.14062 12.7969V11.375C9.14062 11.3673 9.13334 11.3627 9.13249 11.3554C10.3205 11.2596 11.2597 10.3204 11.3552 9.13241C11.3623 9.13301 11.3674 9.14062 11.375 9.14062H12.7969C12.9092 9.14062 13 9.04978 13 8.9375C13 8.82522 12.9092 8.73438 12.7969 8.73438H11.375V6.70312H12.7969ZM10.9688 8.9375C10.9688 10.0575 10.0575 10.9688 8.9375 10.9688H4.0625C2.94252 10.9688 2.03125 10.0575 2.03125 8.9375V4.0625C2.03125 2.94252 2.94252 2.03125 4.0625 2.03125H8.9375C10.0575 2.03125 10.9688 2.94252 10.9688 4.0625V8.9375ZM8.53125 3.25H4.46875C3.7959 3.25 3.25 3.7959 3.25 4.46875V8.53125C3.25 9.2041 3.7959 9.75 4.46875 9.75H8.53125C9.20436 9.75 9.75 9.20436 9.75 8.53125V4.46875C9.75 3.7959 9.2041 3.25 8.53125 3.25ZM9.34375 8.53125C9.34375 8.97914 8.97914 9.34375 8.53125 9.34375H4.46875C4.02086 9.34375 3.65625 8.97914 3.65625 8.53125V4.46875C3.65625 4.02086 4.02086 3.65625 4.46875 3.65625H8.53125C8.97914 3.65625 9.34375 4.02086 9.34375 4.46875V8.53125Z" fill="#AAFF00"/>
</svg>
