<svg width="10" height="10" viewBox="0 0 10 10" fill="none" xmlns="http://www.w3.org/2000/svg">
<path d="M9.58259 2.43973L7.56228 0.41942C7.29241 0.150446 6.9308 0 6.55134 0H1.42857C0.639509 0 0 0.639509 0 1.42857V8.57143C0 9.36049 0.639509 10 1.42857 10H8.57143C9.36049 10 10 9.36049 10 8.57143V3.44866C10 3.0692 9.85045 2.70759 9.58259 2.43973ZM1.78571 0.357143H6.55134C6.6317 0.357143 6.70982 0.367857 6.78571 0.385045V2.67857C6.78571 2.97388 6.54509 3.21429 6.25 3.21429H2.32143C2.02634 3.21429 1.78571 2.97321 1.78571 2.67857V0.357143ZM9.64286 8.57143C9.64286 9.16228 9.16228 9.64286 8.57143 9.64286H1.42857C0.837723 9.64286 0.357143 9.16228 0.357143 8.57143V1.42857C0.357143 0.837723 0.837723 0.357143 1.42857 0.357143V2.67857C1.42857 3.17188 1.82902 3.57143 2.32143 3.57143H6.25C6.7433 3.57143 7.14286 3.17188 7.14286 2.67857V0.535268C7.20185 0.574509 7.25752 0.61971 7.30875 0.670937L9.32906 2.69125C9.53125 2.89286 9.64286 3.16295 9.64286 3.44866V8.57143ZM5 4.64286C3.91674 4.64286 3.03571 5.52388 3.03571 6.60714C3.03571 7.6904 3.91741 8.57143 5 8.57143C6.08259 8.57143 6.96429 7.6904 6.96429 6.60714C6.96429 5.52388 6.08259 4.64286 5 4.64286ZM5 8.21429C4.11406 8.21429 3.39286 7.4933 3.39286 6.60714C3.39286 5.72098 4.11384 5 5 5C5.88616 5 6.60714 5.72098 6.60714 6.60714C6.60714 7.4933 5.88616 8.21429 5 8.21429Z" fill="#AAFF00"/>
</svg>
