<svg width="12" height="10" viewBox="0 0 12 10" fill="none" xmlns="http://www.w3.org/2000/svg">
<path d="M11.25 0H0.75C0.335391 0 0 0.31942 0 0.714286V2.14286C0 2.33955 0.168469 2.5 0.375 2.5H0.75V8.92857C0.75 9.52009 1.25367 10 1.875 10H10.125C10.7463 10 11.25 9.52031 11.25 8.92857V2.5H11.625C11.8313 2.5 12 2.33929 12 2.14286V0.714286C12 0.31942 11.6648 0 11.25 0ZM10.875 8.92857C10.875 9.32232 10.5384 9.64286 10.125 9.64286H1.875C1.46156 9.64286 1.125 9.32232 1.125 8.92857V2.5H10.875V8.92857ZM11.625 2.14286H0.375V0.714286C0.375 0.517411 0.543234 0.357143 0.75 0.357143H11.25C11.4568 0.357143 11.625 0.517411 11.625 0.714286V2.14286ZM3.9375 5H8.0625C8.16562 5 8.25 4.91964 8.25 4.82143C8.25 4.72321 8.16562 4.64286 8.0625 4.64286H3.9375C3.83437 4.64286 3.75 4.72321 3.75 4.80134C3.75 4.87946 3.83437 5 3.9375 5Z" fill="#AAFF00"/>
</svg>
